<?xml version="1.0" encoding="UTF-8" standalone="no"?>
<!DOCTYPE svg PUBLIC "-//W3C//DTD SVG 1.1//EN" "http://www.w3.org/Graphics/SVG/1.1/DTD/svg11.dtd">
<svg xmlns="http://www.w3.org/2000/svg" xmlns:xlink="http://www.w3.org/1999/xlink" version="1.1" width="499.74098pt" height="227.4288pt" viewBox="0 0 499.74098 227.4288">
<g enable-background="new">
<clipPath id="cp0">
<path transform="matrix(1,0,0,-1,-45.79463,724.5489)" d="M 0 0 L 612 0 L 612 792 L 0 792 Z "/>
</clipPath>
<g clip-path="url(#cp0)">
<path transform="matrix(1,0,0,-1,7.1693727,4.947876)" stroke-width=".797" stroke-linecap="butt" stroke-miterlimit="10" stroke-linejoin="miter" fill="none" stroke="#000000" d="M 0 0 L 489.297 0 "/>
<text xml:space="preserve" transform="matrix(1 0 -0 1 -45.79463 724.5489)" font-size="9.9626" font-family="NimbusRomNo9L"><tspan y="-707.92" x="52.964 61.82075 66.24415 69.01375 73.99505 78.97635">Method</tspan></text>
<path transform="matrix(1,0,0,-1,165.18537,20.214905)" stroke-width=".398" stroke-linecap="butt" stroke-miterlimit="10" stroke-linejoin="miter" fill="none" stroke="#000000" d="M 0 0 L 0 11.955 "/>
<text xml:space="preserve" transform="matrix(1 0 -0 1 -45.79463 724.5489)" font-size="9.9626" font-family="NimbusRomNo9L"><tspan y="-707.92" x="217.814 225.00699 241.4652 248.65819">APAP</tspan></text>
<text xml:space="preserve" transform="matrix(1 0 -0 1 -45.79463 724.5489)" font-size="6.9738" font-family="CMR7"><tspan y="-706.426" x="254.198 258.1696">50</tspan></text>
<text xml:space="preserve" transform="matrix(1 0 -0 1 -45.79463 724.5489)" font-size="9.9626" font-family="NimbusRomNo9L"><tspan y="-707.92" x="271.206 278.399">AP</tspan></text>
<text xml:space="preserve" transform="matrix(1 0 -0 1 -45.79463 724.5489)" font-size="6.9738" font-family="CMR7"><tspan y="-706.426" x="283.938 287.90959">75</tspan></text>
<path transform="matrix(1,0,0,-1,251.06737,20.214905)" stroke-width=".398" stroke-linecap="butt" stroke-miterlimit="10" stroke-linejoin="miter" fill="none" stroke="#000000" d="M 0 0 L 0 11.955 "/>
<text xml:space="preserve" transform="matrix(1 0 -0 1 -45.79463 724.5489)" font-size="9.9626" font-family="NimbusRomNo9L"><tspan y="-707.92" x="301.345 308.538">AP</tspan></text>
<text xml:space="preserve" transform="matrix(1 0 -0 1 -45.79463 724.5489)" font-size="6.9738" font-family="CMMI7" font-style="italic"><tspan y="-706.426" x="314.077">M</tspan></text>
<text xml:space="preserve" transform="matrix(1 0 -0 1 -45.79463 724.5489)" font-size="9.9626" font-family="NimbusRomNo9L"><tspan y="-707.92" x="331.488 338.681">AP</tspan></text>
<text xml:space="preserve" transform="matrix(1 0 -0 1 -45.79463 724.5489)" font-size="6.9738" font-family="CMMI7" font-style="italic"><tspan y="-706.426" x="344.221">L</tspan></text>
<path transform="matrix(1,0,0,-1,308.87339,20.214905)" stroke-width=".398" stroke-linecap="butt" stroke-miterlimit="10" stroke-linejoin="miter" fill="none" stroke="#000000" d="M 0 0 L 0 11.955 "/>
<text xml:space="preserve" transform="matrix(1 0 -0 1 -45.79463 724.5489)" font-size="9.9626" font-family="NimbusRomNo9L"><tspan y="-707.92" x="360.949 368.142 385.1581 392.3511">ARAR</tspan></text>
<text xml:space="preserve" transform="matrix(1 0 -0 1 -45.79463 724.5489)" font-size="6.9738" font-family="CMR7"><tspan y="-706.426" x="398.991 402.9626">50</tspan></text>
<text xml:space="preserve" transform="matrix(1 0 -0 1 -45.79463 724.5489)" font-size="9.9626" font-family="NimbusRomNo9L"><tspan y="-707.92" x="416 423.193">AR</tspan></text>
<text xml:space="preserve" transform="matrix(1 0 -0 1 -45.79463 724.5489)" font-size="6.9738" font-family="CMR7"><tspan y="-706.426" x="429.838 433.8096">75</tspan></text>
<path transform="matrix(1,0,0,-1,396.96739,20.214905)" stroke-width=".398" stroke-linecap="butt" stroke-miterlimit="10" stroke-linejoin="miter" fill="none" stroke="#000000" d="M 0 0 L 0 11.955 "/>
<text xml:space="preserve" transform="matrix(1 0 -0 1 -45.79463 724.5489)" font-size="9.9626" font-family="NimbusRomNo9L"><tspan y="-707.92" x="447.245 454.438">AR</tspan></text>
<text xml:space="preserve" transform="matrix(1 0 -0 1 -45.79463 724.5489)" font-size="6.9738" font-family="CMMI7" font-style="italic"><tspan y="-706.426" x="461.083">M</tspan></text>
<text xml:space="preserve" transform="matrix(1 0 -0 1 -45.79463 724.5489)" font-size="9.9626" font-family="NimbusRomNo9L"><tspan y="-707.92" x="478.494 485.68699">AR</tspan></text>
<text xml:space="preserve" transform="matrix(1 0 -0 1 -45.79463 724.5489)" font-size="6.9738" font-family="CMMI7" font-style="italic"><tspan y="-706.426" x="492.332">L</tspan></text>
<path transform="matrix(1,0,0,-1,456.98439,20.214905)" stroke-width=".398" stroke-linecap="butt" stroke-miterlimit="10" stroke-linejoin="miter" fill="none" stroke="#000000" d="M 0 0 L 0 11.955 "/>
<text xml:space="preserve" transform="matrix(1 0 -0 1 -45.79463 724.5489)" font-size="9.9626" font-family="NimbusRomNo9L"><tspan y="-707.92" x="507.262 510.0316 512.8012 520.5521 527.4662 530.78378 534.6592">time(s)</tspan></text>
<path transform="matrix(1,0,0,-1,7.1693727,22.306885)" stroke-width=".598" stroke-linecap="butt" stroke-miterlimit="10" stroke-linejoin="miter" fill="none" stroke="#000000" d="M 0 0 L 489.297 0 "/>
<text xml:space="preserve" transform="matrix(1 0 -0 1 -45.79463 724.5489)" font-size="9.9626" font-family="NimbusRomNo9L"><tspan y="-690.66" x="239.615 244.90514 249.88643 254.86772 258.18528 263.16658 267.8988 275.0918 282.56376 290.31468 294.73808 297.50767 302.48896 307.47026 312.45155">Top-downmethods</tspan></text>
<path transform="matrix(1,0,0,-1,7.1693727,39.56787)" stroke-width=".598" stroke-linecap="butt" stroke-miterlimit="10" stroke-linejoin="miter" fill="none" stroke="#000000" d="M 0 0 L 489.297 0 "/>
<text xml:space="preserve" transform="matrix(1 0 -0 1 -45.79463 724.5489)" font-size="9.9626" font-family="NimbusRomNo9L"><tspan y="-673.4" x="52.964 60.156999 65.696208 69.01375 73.43714 77.860538 81.735988 86.15938 90.58277 95.56407 102.47811 105.795658 112.44071 116.864109 120.739559 125.720859 130.70215 136.51035">DP-cascade(Res50)[</tspan></text>
<text fill="#00ff00" xml:space="preserve" transform="matrix(1 0 -0 1 -45.79463 724.5489)" font-size="9.9626" font-family="NimbusRomNo9L"><tspan y="-673.4" x="139.8279">1</tspan></text>
<text xml:space="preserve" transform="matrix(1 0 -0 1 -45.79463 724.5489)" font-size="9.9626" font-family="NimbusRomNo9L"><tspan y="-673.4" x="144.8092">]</tspan></text>
<path transform="matrix(1,0,0,-1,165.18537,54.7359)" stroke-width=".398" stroke-linecap="butt" stroke-miterlimit="10" stroke-linejoin="miter" fill="none" stroke="#000000" d="M 0 0 L 0 11.955 "/>
<text xml:space="preserve" transform="matrix(1 0 -0 1 -45.79463 724.5489)" font-size="9.9626" font-family="NimbusRomNo9L"><tspan y="-673.4" x="215.463 220.44429 225.42559 227.91623 243.33834 248.31963 253.30092 255.79157 273.07667 278.05796 283.03926 285.5299">51.683.955.2</tspan></text>
<path transform="matrix(1,0,0,-1,251.06737,54.7359)" stroke-width=".398" stroke-linecap="butt" stroke-miterlimit="10" stroke-linejoin="miter" fill="none" stroke="#000000" d="M 0 0 L 0 11.955 "/>
<text xml:space="preserve" transform="matrix(1 0 -0 1 -45.79463 724.5489)" font-size="9.9626" font-family="NimbusRomNo9L"><tspan y="-673.4" x="303.416 308.39729 313.37858 315.86924 332.11824 337.09953 342.0808 344.57148">41.953.4</tspan></text>
<path transform="matrix(1,0,0,-1,308.87339,54.7359)" stroke-width=".398" stroke-linecap="butt" stroke-miterlimit="10" stroke-linejoin="miter" fill="none" stroke="#000000" d="M 0 0 L 0 11.955 "/>
<text xml:space="preserve" transform="matrix(1 0 -0 1 -45.79463 724.5489)" font-size="9.9626" font-family="NimbusRomNo9L"><tspan y="-673.4" x="359.151 364.1323 369.1136 371.60426 387.57429 392.55558 397.53688 400.02754 418.4185 423.39979 428.38108 430.87174">60.488.965.3</tspan></text>
<path transform="matrix(1,0,0,-1,396.96739,54.7359)" stroke-width=".398" stroke-linecap="butt" stroke-miterlimit="10" stroke-linejoin="miter" fill="none" stroke="#000000" d="M 0 0 L 0 11.955 "/>
<text xml:space="preserve" transform="matrix(1 0 -0 1 -45.79463 724.5489)" font-size="9.9626" font-family="NimbusRomNo9L"><tspan y="-673.4" x="449.868 454.8493 459.8306 462.32127 479.6761 484.65739 489.63868 492.12934">43.361.6</tspan></text>
<path transform="matrix(1,0,0,-1,456.98439,54.7359)" stroke-width=".398" stroke-linecap="butt" stroke-miterlimit="10" stroke-linejoin="miter" fill="none" stroke="#000000" d="M 0 0 L 0 11.955 "/>
<text xml:space="preserve" transform="matrix(1 0 -0 1 -45.79463 724.5489)" font-size="9.9626" font-family="NimbusRomNo9L"><tspan y="-673.4" x="511.411 516.39236 518.883 523.8643 528.84567">0.583</tspan></text>
<text xml:space="preserve" transform="matrix(1 0 -0 1 -45.79463 724.5489)" font-size="9.9626" font-family="NimbusRomNo9L"><tspan y="-661.445" x="52.964 60.156999 65.696208 69.01375 73.43714 77.860538 81.735988 86.15938 90.58277 95.56407 102.47811 105.795658 112.44071 116.864109 120.739559 125.720859 130.70215 134.0197 139.63861 147.38951 151.81291 155.68837 160.66967 167.03577">DP-cascade(Res50)+masks[</tspan></text>
<text fill="#00ff00" xml:space="preserve" transform="matrix(1 0 -0 1 -45.79463 724.5489)" font-size="9.9626" font-family="NimbusRomNo9L"><tspan y="-661.445" x="170.3533">1</tspan></text>
<text xml:space="preserve" transform="matrix(1 0 -0 1 -45.79463 724.5489)" font-size="9.9626" font-family="NimbusRomNo9L"><tspan y="-661.445" x="175.3346">]</tspan></text>
<path transform="matrix(1,0,0,-1,165.18537,66.69092)" stroke-width=".398" stroke-linecap="butt" stroke-miterlimit="10" stroke-linejoin="miter" fill="none" stroke="#000000" d="M 0 0 L 0 11.955 "/>
<text xml:space="preserve" transform="matrix(1 0 -0 1 -45.79463 724.5489)" font-size="9.9626" font-family="NimbusRomNo9L"><tspan y="-661.445" x="215.463 220.44429 225.42559 227.91623 243.33834 248.31963 253.30092 255.79157 273.07667 278.05796 283.03926 285.5299">52.885.556.1</tspan></text>
<path transform="matrix(1,0,0,-1,251.06737,66.69092)" stroke-width=".398" stroke-linecap="butt" stroke-miterlimit="10" stroke-linejoin="miter" fill="none" stroke="#000000" d="M 0 0 L 0 11.955 "/>
<text xml:space="preserve" transform="matrix(1 0 -0 1 -45.79463 724.5489)" font-size="9.9626" font-family="NimbusRomNo9L"><tspan y="-661.445" x="303.416 308.39729 313.37858 315.86924 332.11824 337.09953 342.0808 344.57148">40.354.6</tspan></text>
<path transform="matrix(1,0,0,-1,308.87339,66.69092)" stroke-width=".398" stroke-linecap="butt" stroke-miterlimit="10" stroke-linejoin="miter" fill="none" stroke="#000000" d="M 0 0 L 0 11.955 "/>
<text xml:space="preserve" transform="matrix(1 0 -0 1 -45.79463 724.5489)" font-size="9.9626" font-family="NimbusRomNo9L"><tspan y="-661.445" x="359.151 364.1323 369.1136 371.60426 387.57429 392.55558 397.53688 400.02754 418.4185 423.39979 428.38108 430.87174">62.089.767.0</tspan></text>
<path transform="matrix(1,0,0,-1,396.96739,66.69092)" stroke-width=".398" stroke-linecap="butt" stroke-miterlimit="10" stroke-linejoin="miter" fill="none" stroke="#000000" d="M 0 0 L 0 11.955 "/>
<text xml:space="preserve" transform="matrix(1 0 -0 1 -45.79463 724.5489)" font-size="9.9626" font-family="NimbusRomNo9L"><tspan y="-661.445" x="449.868 454.8493 459.8306 462.32127 479.6761 484.65739 489.63868 492.12934">42.463.3</tspan></text>
<path transform="matrix(1,0,0,-1,456.98439,66.69092)" stroke-width=".398" stroke-linecap="butt" stroke-miterlimit="10" stroke-linejoin="miter" fill="none" stroke="#000000" d="M 0 0 L 0 11.955 "/>
<text xml:space="preserve" transform="matrix(1 0 -0 1 -45.79463 724.5489)" font-size="9.9626" font-family="NimbusRomNo9L"><tspan y="-661.445" x="520.961">-</tspan></text>
<text xml:space="preserve" transform="matrix(1 0 -0 1 -45.79463 724.5489)" font-size="9.9626" font-family="NimbusRomNo9L"><tspan y="-649.49" x="52.964 60.156999 65.696208 69.01375 73.43714 77.860538 81.735988 86.15938 90.58277 95.56407 102.47811 105.795658 112.44071 116.864109 120.739559 125.720859 130.70215 134.0197 139.63861 144.52028 148.79424 153.77553 158.75682 163.73812 166.50772 171.48902 174.25862 180.62473">DP-cascade(Res50)+keypoints[</tspan></text>
<text fill="#00ff00" xml:space="preserve" transform="matrix(1 0 -0 1 -45.79463 724.5489)" font-size="9.9626" font-family="NimbusRomNo9L"><tspan y="-649.49" x="183.9423">1</tspan></text>
<text xml:space="preserve" transform="matrix(1 0 -0 1 -45.79463 724.5489)" font-size="9.9626" font-family="NimbusRomNo9L"><tspan y="-649.49" x="188.9236">]</tspan></text>
<path transform="matrix(1,0,0,-1,165.18537,78.645877)" stroke-width=".398" stroke-linecap="butt" stroke-miterlimit="10" stroke-linejoin="miter" fill="none" stroke="#000000" d="M 0 0 L 0 11.955 "/>
<text xml:space="preserve" transform="matrix(1 0 -0 1 -45.79463 724.5489)" font-size="9.9626" font-family="NimbusRomNo9L"><tspan y="-649.49" x="215.463 220.44429 225.42559 227.91623 243.33834 248.31963 253.30092 255.79157 273.07667 278.05796 283.03926 285.5299">55.887.561.2</tspan></text>
<path transform="matrix(1,0,0,-1,251.06737,78.645877)" stroke-width=".398" stroke-linecap="butt" stroke-miterlimit="10" stroke-linejoin="miter" fill="none" stroke="#000000" d="M 0 0 L 0 11.955 "/>
<text xml:space="preserve" transform="matrix(1 0 -0 1 -45.79463 724.5489)" font-size="9.9626" font-family="NimbusRomNo9L"><tspan y="-649.49" x="303.416 308.39729 313.37858 315.86924 332.11824 337.09953 342.0808 344.57148">48.457.1</tspan></text>
<path transform="matrix(1,0,0,-1,308.87339,78.645877)" stroke-width=".398" stroke-linecap="butt" stroke-miterlimit="10" stroke-linejoin="miter" fill="none" stroke="#000000" d="M 0 0 L 0 11.955 "/>
<text xml:space="preserve" transform="matrix(1 0 -0 1 -45.79463 724.5489)" font-size="9.9626" font-family="NimbusRomNo9L"><tspan y="-649.49" x="359.151 364.1323 369.1136 371.60426 387.57429 392.55558 397.53688 400.02754 418.4185 423.39979 428.38108 430.87174">63.991.069.7</tspan></text>
<path transform="matrix(1,0,0,-1,396.96739,78.645877)" stroke-width=".398" stroke-linecap="butt" stroke-miterlimit="10" stroke-linejoin="miter" fill="none" stroke="#000000" d="M 0 0 L 0 11.955 "/>
<text xml:space="preserve" transform="matrix(1 0 -0 1 -45.79463 724.5489)" font-size="9.9626" font-family="NimbusRomNo9L"><tspan y="-649.49" x="449.868 454.8493 459.8306 462.32127 479.6761 484.65739 489.63868 492.12934">50.364.8</tspan></text>
<path transform="matrix(1,0,0,-1,456.98439,78.645877)" stroke-width=".398" stroke-linecap="butt" stroke-miterlimit="10" stroke-linejoin="miter" fill="none" stroke="#000000" d="M 0 0 L 0 11.955 "/>
<text xml:space="preserve" transform="matrix(1 0 -0 1 -45.79463 724.5489)" font-size="9.9626" font-family="NimbusRomNo9L"><tspan y="-649.49" x="520.961">-</tspan></text>
<text xml:space="preserve" transform="matrix(1 0 -0 1 -45.79463 724.5489)" font-size="9.9626" font-family="NimbusRomNo9L"><tspan y="-637.534" x="52.964 58.353769 62.77716 66.0947 69.97015 72.73975 77.721057 85.193 88.510547 95.1556 99.578998 103.454448 108.435749 113.417049 119.225238">Parsing(Res50)[</tspan></text>
<text fill="#00ff00" xml:space="preserve" transform="matrix(1 0 -0 1 -45.79463 724.5489)" font-size="9.9626" font-family="NimbusRomNo9L"><tspan y="-637.534" x="122.5428 127.5241">54</tspan></text>
<text xml:space="preserve" transform="matrix(1 0 -0 1 -45.79463 724.5489)" font-size="9.9626" font-family="NimbusRomNo9L"><tspan y="-637.534" x="132.5054">]</tspan></text>
<path transform="matrix(1,0,0,-1,165.18537,90.60089)" stroke-width=".398" stroke-linecap="butt" stroke-miterlimit="10" stroke-linejoin="miter" fill="none" stroke="#000000" d="M 0 0 L 0 11.955 "/>
<text xml:space="preserve" transform="matrix(1 0 -0 1 -45.79463 724.5489)" font-size="9.9626" font-family="NimbusRomNo9L"><tspan y="-637.534" x="215.463 220.44429 225.42559 227.91623 243.33834 248.31963 253.30092 255.79157 273.07667 278.05796 283.03926 285.5299">55.087.659.8</tspan></text>
<path transform="matrix(1,0,0,-1,251.06737,90.60089)" stroke-width=".398" stroke-linecap="butt" stroke-miterlimit="10" stroke-linejoin="miter" fill="none" stroke="#000000" d="M 0 0 L 0 11.955 "/>
<text xml:space="preserve" transform="matrix(1 0 -0 1 -45.79463 724.5489)" font-size="9.9626" font-family="NimbusRomNo9L"><tspan y="-637.534" x="303.416 308.39729 313.37858 315.86924 332.11824 337.09953 342.0808 344.57148">50.656.6</tspan></text>
<path transform="matrix(1,0,0,-1,308.87339,90.60089)" stroke-width=".398" stroke-linecap="butt" stroke-miterlimit="10" stroke-linejoin="miter" fill="none" stroke="#000000" d="M 0 0 L 0 11.955 "/>
<text xml:space="preserve" transform="matrix(1 0 -0 1 -45.79463 724.5489)" font-size="9.9626" font-family="NimbusRomNo9L"><tspan y="-637.534" x="366.209 394.63233 425.47654">---</tspan></text>
<path transform="matrix(1,0,0,-1,396.96739,90.60089)" stroke-width=".398" stroke-linecap="butt" stroke-miterlimit="10" stroke-linejoin="miter" fill="none" stroke="#000000" d="M 0 0 L 0 11.955 "/>
<text xml:space="preserve" transform="matrix(1 0 -0 1 -45.79463 724.5489)" font-size="9.9626" font-family="NimbusRomNo9L"><tspan y="-637.534" x="456.927 486.7351">--</tspan></text>
<path transform="matrix(1,0,0,-1,456.98439,90.60089)" stroke-width=".398" stroke-linecap="butt" stroke-miterlimit="10" stroke-linejoin="miter" fill="none" stroke="#000000" d="M 0 0 L 0 11.955 "/>
<text xml:space="preserve" transform="matrix(1 0 -0 1 -45.79463 724.5489)" font-size="9.9626" font-family="NimbusRomNo9L"><tspan y="-637.534" x="511.411 516.39236 518.883 523.8643 528.84567">0.392</tspan></text>
<text xml:space="preserve" transform="matrix(1 0 -0 1 -45.79463 724.5489)" font-size="9.9626" font-family="NimbusRomNo9L"><tspan y="-625.579" x="52.964 58.353769 62.77716 66.0947 69.97015 72.73975 77.721057 85.193 88.510547 95.1556 99.578998 103.454448 108.435749 113.417049 116.73459 122.35349 127.23517 131.50913 136.49042 141.47171 146.453 149.22261 154.2039 156.97351 163.33962">Parsing(Res50)+keypoints[</tspan></text>
<text fill="#00ff00" xml:space="preserve" transform="matrix(1 0 -0 1 -45.79463 724.5489)" font-size="9.9626" font-family="NimbusRomNo9L"><tspan y="-625.579" x="166.6572 171.63849">54</tspan></text>
<text xml:space="preserve" transform="matrix(1 0 -0 1 -45.79463 724.5489)" font-size="9.9626" font-family="NimbusRomNo9L"><tspan y="-625.579" x="176.6198">]</tspan></text>
<path transform="matrix(1,0,0,-1,165.18537,102.55591)" stroke-width=".398" stroke-linecap="butt" stroke-miterlimit="10" stroke-linejoin="miter" fill="none" stroke="#000000" d="M 0 0 L 0 11.955 "/>
<text xml:space="preserve" transform="matrix(1 0 -0 1 -45.79463 724.5489)" font-size="9.9626" font-family="NimbusRomNo9L"><tspan y="-625.579" x="215.463 220.44429 225.42559 227.91623 243.33834 248.31963 253.30092 255.79157 273.07667 278.05796 283.03926 285.5299">58.390.166.9</tspan></text>
<path transform="matrix(1,0,0,-1,251.06737,102.55591)" stroke-width=".398" stroke-linecap="butt" stroke-miterlimit="10" stroke-linejoin="miter" fill="none" stroke="#000000" d="M 0 0 L 0 11.955 "/>
<text xml:space="preserve" transform="matrix(1 0 -0 1 -45.79463 724.5489)" font-size="9.9626" font-family="NimbusRomNo9L"><tspan y="-625.579" x="303.416 308.39729 313.37858 315.86924 332.11824 337.09953 342.0808 344.57148">51.861.9</tspan></text>
<path transform="matrix(1,0,0,-1,308.87339,102.55591)" stroke-width=".398" stroke-linecap="butt" stroke-miterlimit="10" stroke-linejoin="miter" fill="none" stroke="#000000" d="M 0 0 L 0 11.955 "/>
<text xml:space="preserve" transform="matrix(1 0 -0 1 -45.79463 724.5489)" font-size="9.9626" font-family="NimbusRomNo9L"><tspan y="-625.579" x="366.209 394.63233 425.47654">---</tspan></text>
<path transform="matrix(1,0,0,-1,396.96739,102.55591)" stroke-width=".398" stroke-linecap="butt" stroke-miterlimit="10" stroke-linejoin="miter" fill="none" stroke="#000000" d="M 0 0 L 0 11.955 "/>
<text xml:space="preserve" transform="matrix(1 0 -0 1 -45.79463 724.5489)" font-size="9.9626" font-family="NimbusRomNo9L"><tspan y="-625.579" x="456.927 486.7351">--</tspan></text>
<path transform="matrix(1,0,0,-1,456.98439,102.55591)" stroke-width=".398" stroke-linecap="butt" stroke-miterlimit="10" stroke-linejoin="miter" fill="none" stroke="#000000" d="M 0 0 L 0 11.955 "/>
<text xml:space="preserve" transform="matrix(1 0 -0 1 -45.79463 724.5489)" font-size="9.9626" font-family="NimbusRomNo9L"><tspan y="-625.579" x="520.961">-</tspan></text>
<text xml:space="preserve" transform="matrix(1 0 -0 1 -45.79463 724.5489)" font-size="9.9626" font-family="NimbusRomNo9L"><tspan y="-613.624" x="52.964 58.353769 62.77716 66.0947 69.97015 72.73975 77.721057 85.193 88.510547 95.1556 99.578998 103.454448 110.647449 115.07084 122.26384 125.03344 130.01474 134.99604 139.97733 145.78553">Parsing(ResNeXt101)[</tspan></text>
<text fill="#00ff00" xml:space="preserve" transform="matrix(1 0 -0 1 -45.79463 724.5489)" font-size="9.9626" font-family="NimbusRomNo9L"><tspan y="-613.624" x="149.1031 154.0844">54</tspan></text>
<text xml:space="preserve" transform="matrix(1 0 -0 1 -45.79463 724.5489)" font-size="9.9626" font-family="NimbusRomNo9L"><tspan y="-613.624" x="159.0657">]</tspan></text>
<path transform="matrix(1,0,0,-1,165.18537,114.510868)" stroke-width=".398" stroke-linecap="butt" stroke-miterlimit="10" stroke-linejoin="miter" fill="none" stroke="#000000" d="M 0 0 L 0 11.955 "/>
<text xml:space="preserve" transform="matrix(1 0 -0 1 -45.79463 724.5489)" font-size="9.9626" font-family="NimbusRomNo9L"><tspan y="-613.624" x="215.463 220.44429 225.42559 227.91623 243.33834 248.31963 253.30092 255.79157 273.07667 278.05796 283.03926 285.5299">59.191.066.9</tspan></text>
<path transform="matrix(1,0,0,-1,251.06737,114.510868)" stroke-width=".398" stroke-linecap="butt" stroke-miterlimit="10" stroke-linejoin="miter" fill="none" stroke="#000000" d="M 0 0 L 0 11.955 "/>
<text xml:space="preserve" transform="matrix(1 0 -0 1 -45.79463 724.5489)" font-size="9.9626" font-family="NimbusRomNo9L"><tspan y="-613.624" x="303.416 308.39729 313.37858 315.86924 332.11824 337.09953 342.0808 344.57148">51.861.9</tspan></text>
<path transform="matrix(1,0,0,-1,308.87339,114.510868)" stroke-width=".398" stroke-linecap="butt" stroke-miterlimit="10" stroke-linejoin="miter" fill="none" stroke="#000000" d="M 0 0 L 0 11.955 "/>
<text xml:space="preserve" transform="matrix(1 0 -0 1 -45.79463 724.5489)" font-size="9.9626" font-family="NimbusRomNo9L"><tspan y="-613.624" x="366.209 394.63233 425.47654">---</tspan></text>
<path transform="matrix(1,0,0,-1,396.96739,114.510868)" stroke-width=".398" stroke-linecap="butt" stroke-miterlimit="10" stroke-linejoin="miter" fill="none" stroke="#000000" d="M 0 0 L 0 11.955 "/>
<text xml:space="preserve" transform="matrix(1 0 -0 1 -45.79463 724.5489)" font-size="9.9626" font-family="NimbusRomNo9L"><tspan y="-613.624" x="456.927 486.7351">--</tspan></text>
<path transform="matrix(1,0,0,-1,456.98439,114.510868)" stroke-width=".398" stroke-linecap="butt" stroke-miterlimit="10" stroke-linejoin="miter" fill="none" stroke="#000000" d="M 0 0 L 0 11.955 "/>
<text xml:space="preserve" transform="matrix(1 0 -0 1 -45.79463 724.5489)" font-size="9.9626" font-family="NimbusRomNo9L"><tspan y="-613.624" x="520.961">-</tspan></text>
<text xml:space="preserve" transform="matrix(1 0 -0 1 -45.79463 724.5489)" font-size="9.9626" font-family="NimbusRomNo9L"><tspan y="-601.669" x="52.964 58.353769 62.77716 66.0947 69.97015 72.73975 77.721057 85.193 88.510547 95.1556 99.578998 103.454448 110.647449 115.07084 122.26384 125.03344 130.01474 134.99604 139.97733 143.29488 148.91379 153.79546 158.06941 163.0507 168.032 173.01329 175.7829 180.76419 183.5338 189.8999">Parsing(ResNeXt101)+keypoints[</tspan></text>
<text fill="#00ff00" xml:space="preserve" transform="matrix(1 0 -0 1 -45.79463 724.5489)" font-size="9.9626" font-family="NimbusRomNo9L"><tspan y="-601.669" x="193.2175 198.19879">54</tspan></text>
<text xml:space="preserve" transform="matrix(1 0 -0 1 -45.79463 724.5489)" font-size="9.9626" font-family="NimbusRomNo9L"><tspan y="-601.669" x="203.1801">]</tspan></text>
<path transform="matrix(1,0,0,-1,165.18537,126.46692)" stroke-width=".398" stroke-linecap="butt" stroke-miterlimit="10" stroke-linejoin="miter" fill="none" stroke="#000000" d="M 0 0 L 0 11.955 "/>
<text xml:space="preserve" transform="matrix(1 0 -0 1 -45.79463 724.5489)" font-size="9.9626" font-family="NimbusRomNo9L"><tspan y="-601.669" x="215.463 220.44429 225.42559 227.91623 243.33834 248.31963 253.30092 255.79157 273.07667 278.05796 283.03926 285.5299">61.691.672.3</tspan></text>
<path transform="matrix(1,0,0,-1,251.06737,126.46692)" stroke-width=".398" stroke-linecap="butt" stroke-miterlimit="10" stroke-linejoin="miter" fill="none" stroke="#000000" d="M 0 0 L 0 11.955 "/>
<text xml:space="preserve" transform="matrix(1 0 -0 1 -45.79463 724.5489)" font-size="9.9626" font-family="NimbusRomNo9L"><tspan y="-601.669" x="303.416 308.39729 313.37858 315.86924 332.11824 337.09953 342.0808 344.57148">54.864.8</tspan></text>
<path transform="matrix(1,0,0,-1,308.87339,126.46692)" stroke-width=".398" stroke-linecap="butt" stroke-miterlimit="10" stroke-linejoin="miter" fill="none" stroke="#000000" d="M 0 0 L 0 11.955 "/>
<text xml:space="preserve" transform="matrix(1 0 -0 1 -45.79463 724.5489)" font-size="9.9626" font-family="NimbusRomNo9L"><tspan y="-601.669" x="366.209 394.63233 425.47654">---</tspan></text>
<path transform="matrix(1,0,0,-1,396.96739,126.46692)" stroke-width=".398" stroke-linecap="butt" stroke-miterlimit="10" stroke-linejoin="miter" fill="none" stroke="#000000" d="M 0 0 L 0 11.955 "/>
<text xml:space="preserve" transform="matrix(1 0 -0 1 -45.79463 724.5489)" font-size="9.9626" font-family="NimbusRomNo9L"><tspan y="-601.669" x="456.927 486.7351">--</tspan></text>
<path transform="matrix(1,0,0,-1,456.98439,126.46692)" stroke-width=".398" stroke-linecap="butt" stroke-miterlimit="10" stroke-linejoin="miter" fill="none" stroke="#000000" d="M 0 0 L 0 11.955 "/>
<text xml:space="preserve" transform="matrix(1 0 -0 1 -45.79463 724.5489)" font-size="9.9626" font-family="NimbusRomNo9L"><tspan y="-601.669" x="520.961">-</tspan></text>
<text xml:space="preserve" transform="matrix(1 0 -0 1 -45.79463 724.5489)" font-size="9.9626" font-family="NimbusRomNo9L"><tspan y="-589.714" x="52.964 58.50321 61.27281 69.02371 74.56292 79.54422 83.41967 90.33371 93.65125 100.29631 104.7197 108.59515 113.576457 118.557758 121.8753 129.34725">SimPose(Res50)*[</tspan></text>
<text fill="#00ff00" xml:space="preserve" transform="matrix(1 0 -0 1 -45.79463 724.5489)" font-size="9.9626" font-family="NimbusRomNo9L"><tspan y="-589.714" x="132.6648 137.64609">57</tspan></text>
<text xml:space="preserve" transform="matrix(1 0 -0 1 -45.79463 724.5489)" font-size="9.9626" font-family="NimbusRomNo9L"><tspan y="-589.714" x="142.6274">]</tspan></text>
<path transform="matrix(1,0,0,-1,165.18537,138.42188)" stroke-width=".398" stroke-linecap="butt" stroke-miterlimit="10" stroke-linejoin="miter" fill="none" stroke="#000000" d="M 0 0 L 0 11.955 "/>
<text xml:space="preserve" transform="matrix(1 0 -0 1 -45.79463 724.5489)" font-size="9.9626" font-family="NimbusRomNo9L"><tspan y="-589.714" x="215.463 220.44429 225.42559 227.91623 243.33834 248.31963 253.30092 255.79157 273.07667 278.05796 283.03926 285.5299">57.388.467.3</tspan></text>
<path transform="matrix(1,0,0,-1,251.06737,138.42188)" stroke-width=".398" stroke-linecap="butt" stroke-miterlimit="10" stroke-linejoin="miter" fill="none" stroke="#000000" d="M 0 0 L 0 11.955 "/>
<text xml:space="preserve" transform="matrix(1 0 -0 1 -45.79463 724.5489)" font-size="9.9626" font-family="NimbusRomNo9L"><tspan y="-589.714" x="303.416 308.39729 313.37858 315.86924 332.11824 337.09953 342.0808 344.57148">60.159.3</tspan></text>
<path transform="matrix(1,0,0,-1,308.87339,138.42188)" stroke-width=".398" stroke-linecap="butt" stroke-miterlimit="10" stroke-linejoin="miter" fill="none" stroke="#000000" d="M 0 0 L 0 11.955 "/>
<text xml:space="preserve" transform="matrix(1 0 -0 1 -45.79463 724.5489)" font-size="9.9626" font-family="NimbusRomNo9L"><tspan y="-589.714" x="359.151 364.1323 369.1136 371.60426 387.57429 392.55558 397.53688 400.02754 418.4185 423.39979 428.38108 430.87174">66.495.177.8</tspan></text>
<path transform="matrix(1,0,0,-1,396.96739,138.42188)" stroke-width=".398" stroke-linecap="butt" stroke-miterlimit="10" stroke-linejoin="miter" fill="none" stroke="#000000" d="M 0 0 L 0 11.955 "/>
<text xml:space="preserve" transform="matrix(1 0 -0 1 -45.79463 724.5489)" font-size="9.9626" font-family="NimbusRomNo9L"><tspan y="-589.714" x="449.868 454.8493 459.8306 462.32127 479.6761 484.65739 489.63868 492.12934">62.466.7</tspan></text>
<path transform="matrix(1,0,0,-1,456.98439,138.42188)" stroke-width=".398" stroke-linecap="butt" stroke-miterlimit="10" stroke-linejoin="miter" fill="none" stroke="#000000" d="M 0 0 L 0 11.955 "/>
<text xml:space="preserve" transform="matrix(1 0 -0 1 -45.79463 724.5489)" font-size="9.9626" font-family="NimbusRomNo9L"><tspan y="-589.714" x="520.961">-</tspan></text>
<text xml:space="preserve" transform="matrix(1 0 -0 1 -45.79463 724.5489)" font-size="9.9626" font-family="NimbusRomNo9L"><tspan y="-577.759" x="52.964 60.156999 69.01375 76.20675 79.52429 86.71729 91.140689 96.40093 99.718479 106.36353 110.78693 114.66238 119.64368 124.62498 130.43317">AMA-Net(Res50)[</tspan></text>
<text fill="#00ff00" xml:space="preserve" transform="matrix(1 0 -0 1 -45.79463 724.5489)" font-size="9.9626" font-family="NimbusRomNo9L"><tspan y="-577.759" x="133.7507 138.732">13</tspan></text>
<text xml:space="preserve" transform="matrix(1 0 -0 1 -45.79463 724.5489)" font-size="9.9626" font-family="NimbusRomNo9L"><tspan y="-577.759" x="143.7133">]</tspan></text>
<path transform="matrix(1,0,0,-1,165.18537,150.37689)" stroke-width=".398" stroke-linecap="butt" stroke-miterlimit="10" stroke-linejoin="miter" fill="none" stroke="#000000" d="M 0 0 L 0 11.955 "/>
<text xml:space="preserve" transform="matrix(1 0 -0 1 -45.79463 724.5489)" font-size="9.9626" font-family="NimbusRomNo9L"><tspan y="-577.759" x="215.463 220.44429 225.42559 227.91623 243.33834 248.31963 253.30092 255.79157 273.07667 278.05796 283.03926 285.5299">64.191.472.9</tspan></text>
<path transform="matrix(1,0,0,-1,251.06737,150.37689)" stroke-width=".398" stroke-linecap="butt" stroke-miterlimit="10" stroke-linejoin="miter" fill="none" stroke="#000000" d="M 0 0 L 0 11.955 "/>
<text xml:space="preserve" transform="matrix(1 0 -0 1 -45.79463 724.5489)" font-size="9.9626" font-family="NimbusRomNo9L"><tspan y="-577.759" x="303.416 308.39729 313.37858 315.86924 332.11824 337.09953 342.0808 344.57148">59.365.3</tspan></text>
<path transform="matrix(1,0,0,-1,308.87339,150.37689)" stroke-width=".398" stroke-linecap="butt" stroke-miterlimit="10" stroke-linejoin="miter" fill="none" stroke="#000000" d="M 0 0 L 0 11.955 "/>
<text xml:space="preserve" transform="matrix(1 0 -0 1 -45.79463 724.5489)" font-size="9.9626" font-family="NimbusRomNo9L"><tspan y="-577.759" x="359.151 364.1323 369.1136 371.60426 387.57429 392.55558 397.53688 400.02754 418.4185 423.39979 428.38108 430.87174">71.694.779.8</tspan></text>
<path transform="matrix(1,0,0,-1,396.96739,150.37689)" stroke-width=".398" stroke-linecap="butt" stroke-miterlimit="10" stroke-linejoin="miter" fill="none" stroke="#000000" d="M 0 0 L 0 11.955 "/>
<text xml:space="preserve" transform="matrix(1 0 -0 1 -45.79463 724.5489)" font-size="9.9626" font-family="NimbusRomNo9L"><tspan y="-577.759" x="449.868 454.8493 459.8306 462.32127 479.6761 484.65739 489.63868 492.12934">61.372.3</tspan></text>
<path transform="matrix(1,0,0,-1,456.98439,150.37689)" stroke-width=".398" stroke-linecap="butt" stroke-miterlimit="10" stroke-linejoin="miter" fill="none" stroke="#000000" d="M 0 0 L 0 11.955 "/>
<text xml:space="preserve" transform="matrix(1 0 -0 1 -45.79463 724.5489)" font-size="9.9626" font-family="NimbusRomNo9L"><tspan y="-577.759" x="520.961">-</tspan></text>
<text xml:space="preserve" transform="matrix(1 0 -0 1 -45.79463 724.5489)" font-size="9.9626" font-family="NimbusRomNo9L"><tspan y="-565.803" x="52.964 60.156999 66.24415 75.927799 79.24534 85.890399 90.31379 94.18924 99.17054 104.15184 109.96003">KTN(Res50)[</tspan></text>
<text fill="#00ff00" xml:space="preserve" transform="matrix(1 0 -0 1 -45.79463 724.5489)" font-size="9.9626" font-family="NimbusRomNo9L"><tspan y="-565.803" x="113.2776 118.2589">48</tspan></text>
<text xml:space="preserve" transform="matrix(1 0 -0 1 -45.79463 724.5489)" font-size="9.9626" font-family="NimbusRomNo9L"><tspan y="-565.803" x="123.2402">]</tspan></text>
<path transform="matrix(1,0,0,-1,165.18537,162.33191)" stroke-width=".398" stroke-linecap="butt" stroke-miterlimit="10" stroke-linejoin="miter" fill="none" stroke="#000000" d="M 0 0 L 0 11.955 "/>
<text xml:space="preserve" transform="matrix(1 0 -0 1 -45.79463 724.5489)" font-size="9.9626" font-family="NimbusRomNo9L"><tspan y="-565.803" x="215.463 220.44429 225.42559 227.91623 243.33834 248.31963 253.30092 255.79157 273.07667 278.05796 283.03926 285.5299">66.591.575.5</tspan></text>
<path transform="matrix(1,0,0,-1,251.06737,162.33191)" stroke-width=".398" stroke-linecap="butt" stroke-miterlimit="10" stroke-linejoin="miter" fill="none" stroke="#000000" d="M 0 0 L 0 11.955 "/>
<text xml:space="preserve" transform="matrix(1 0 -0 1 -45.79463 724.5489)" font-size="9.9626" font-family="NimbusRomNo9L"><tspan y="-565.803" x="303.416 308.39729 313.37858 315.86924 332.11824 337.09953 342.0808 344.57148">61.968.0</tspan></text>
<path transform="matrix(1,0,0,-1,308.87339,162.33191)" stroke-width=".398" stroke-linecap="butt" stroke-miterlimit="10" stroke-linejoin="miter" fill="none" stroke="#000000" d="M 0 0 L 0 11.955 "/>
<text xml:space="preserve" transform="matrix(1 0 -0 1 -45.79463 724.5489)" font-size="9.9626" font-family="NimbusRomNo9L"><tspan y="-565.803" x="359.151 364.1323 369.1136 371.60426 387.57429 392.55558 397.53688 400.02754 418.4185 423.39979 428.38108 430.87174">74.295.282.3</tspan></text>
<path transform="matrix(1,0,0,-1,396.96739,162.33191)" stroke-width=".398" stroke-linecap="butt" stroke-miterlimit="10" stroke-linejoin="miter" fill="none" stroke="#000000" d="M 0 0 L 0 11.955 "/>
<text xml:space="preserve" transform="matrix(1 0 -0 1 -45.79463 724.5489)" font-size="9.9626" font-family="NimbusRomNo9L" font-weight="bold"><tspan y="-565.803" x="449.868 454.8493 459.8306 462.32127 479.6761 484.65739 489.63868 492.12934">64.274.9</tspan></text>
<path transform="matrix(1,0,0,-1,456.98439,162.33191)" stroke-width=".398" stroke-linecap="butt" stroke-miterlimit="10" stroke-linejoin="miter" fill="none" stroke="#000000" d="M 0 0 L 0 11.955 "/>
<text xml:space="preserve" transform="matrix(1 0 -0 1 -45.79463 724.5489)" font-size="9.9626" font-family="NimbusRomNo9L"><tspan y="-565.803" x="511.411 516.39236 518.883 523.8643 528.84567">0.518</tspan></text>
<text xml:space="preserve" transform="matrix(1 0 -0 1 -45.79463 724.5489)" font-size="9.9626" font-family="NimbusRomNo9L"><tspan y="-553.848" x="52.964 60.156999 68.18685 74.83191 78.14945 84.79451 91.98751 101.67116 108.86416 113.28755 117.710948 122.692249 128.77939 133.20279 140.67473 143.99228 150.63733 155.06073 158.93619 163.91748 168.89878 174.70697">DPR-CNNDeepLab(Res50)[</tspan></text>
<text fill="#00ff00" xml:space="preserve" transform="matrix(1 0 -0 1 -45.79463 724.5489)" font-size="9.9626" font-family="NimbusRomNo9L"><tspan y="-553.848" x="178.0245 183.0058">32</tspan></text>
<text xml:space="preserve" transform="matrix(1 0 -0 1 -45.79463 724.5489)" font-size="9.9626" font-family="NimbusRomNo9L"><tspan y="-553.848" x="187.9871">]</tspan></text>
<path transform="matrix(1,0,0,-1,165.18537,174.28687)" stroke-width=".398" stroke-linecap="butt" stroke-miterlimit="10" stroke-linejoin="miter" fill="none" stroke="#000000" d="M 0 0 L 0 11.955 "/>
<text xml:space="preserve" transform="matrix(1 0 -0 1 -45.79463 724.5489)" font-size="9.9626" font-family="NimbusRomNo9L"><tspan y="-553.848" x="215.463 220.44429 225.42559 227.91623 243.33834 248.31963 253.30092 255.79157">66.892.8</tspan></text>
<text xml:space="preserve" transform="matrix(1 0 -0 1 -45.79463 724.5489)" font-size="9.9626" font-family="NimbusRomNo9L" font-weight="bold"><tspan y="-553.848" x="273.075 278.0563 283.0376 285.52827">79.7</tspan></text>
<path transform="matrix(1,0,0,-1,251.06737,174.28687)" stroke-width=".398" stroke-linecap="butt" stroke-miterlimit="10" stroke-linejoin="miter" fill="none" stroke="#000000" d="M 0 0 L 0 11.955 "/>
<text xml:space="preserve" transform="matrix(1 0 -0 1 -45.79463 724.5489)" font-size="9.9626" font-family="NimbusRomNo9L"><tspan y="-553.848" x="303.416 308.39729 313.37858 315.86924 332.11824 337.09953 342.0808 344.57148">60.768.0</tspan></text>
<path transform="matrix(1,0,0,-1,308.87339,174.28687)" stroke-width=".398" stroke-linecap="butt" stroke-miterlimit="10" stroke-linejoin="miter" fill="none" stroke="#000000" d="M 0 0 L 0 11.955 "/>
<text xml:space="preserve" transform="matrix(1 0 -0 1 -45.79463 724.5489)" font-size="9.9626" font-family="NimbusRomNo9L"><tspan y="-553.848" x="359.151 364.1323 369.1136 371.60426 387.57429 392.55558 397.53688 400.02754 418.4185 423.39979 428.38108 430.87174">72.195.882.9</tspan></text>
<path transform="matrix(1,0,0,-1,396.96739,174.28687)" stroke-width=".398" stroke-linecap="butt" stroke-miterlimit="10" stroke-linejoin="miter" fill="none" stroke="#000000" d="M 0 0 L 0 11.955 "/>
<text xml:space="preserve" transform="matrix(1 0 -0 1 -45.79463 724.5489)" font-size="9.9626" font-family="NimbusRomNo9L"><tspan y="-553.848" x="449.868 454.8493 459.8306 462.32127 479.6761 484.65739 489.63868 492.12934">62.272.4</tspan></text>
<path transform="matrix(1,0,0,-1,456.98439,174.28687)" stroke-width=".398" stroke-linecap="butt" stroke-miterlimit="10" stroke-linejoin="miter" fill="none" stroke="#000000" d="M 0 0 L 0 11.955 "/>
<text xml:space="preserve" transform="matrix(1 0 -0 1 -45.79463 724.5489)" font-size="9.9626" font-family="NimbusRomNo9L"><tspan y="-553.848" x="511.411 516.39236 518.883 523.8643 528.84567">0.242</tspan></text>
<text xml:space="preserve" transform="matrix(1 0 -0 1 -45.79463 724.5489)" font-size="9.9626" font-family="NimbusRomNo9L"><tspan y="-541.893" x="52.964 60.156999 68.18685 74.83191 78.14945 84.79451 91.98751 101.67116 108.86416 113.28755 117.710948 122.692249 128.77939 133.20279 140.67473 143.99228 150.63733 155.06073 158.93619 163.91748 168.89878 173.88007 179.68827">DPR-CNNDeepLab(Res101)[</tspan></text>
<text fill="#00ff00" xml:space="preserve" transform="matrix(1 0 -0 1 -45.79463 724.5489)" font-size="9.9626" font-family="NimbusRomNo9L"><tspan y="-541.893" x="183.0058 187.98709">32</tspan></text>
<text xml:space="preserve" transform="matrix(1 0 -0 1 -45.79463 724.5489)" font-size="9.9626" font-family="NimbusRomNo9L"><tspan y="-541.893" x="192.9684">]</tspan></text>
<path transform="matrix(1,0,0,-1,165.18537,186.24188)" stroke-width=".398" stroke-linecap="butt" stroke-miterlimit="10" stroke-linejoin="miter" fill="none" stroke="#000000" d="M 0 0 L 0 11.955 "/>
<text xml:space="preserve" transform="matrix(1 0 -0 1 -45.79463 724.5489)" font-size="9.9626" font-family="NimbusRomNo9L" font-weight="bold"><tspan y="-541.893" x="215.463 220.44429 225.42559 227.91623 243.33834 248.31963 253.30092 255.79157 273.07667 278.05796 283.03926 285.5299">67.793.579.7</tspan></text>
<path transform="matrix(1,0,0,-1,251.06737,186.24188)" stroke-width=".398" stroke-linecap="butt" stroke-miterlimit="10" stroke-linejoin="miter" fill="none" stroke="#000000" d="M 0 0 L 0 11.955 "/>
<text xml:space="preserve" transform="matrix(1 0 -0 1 -45.79463 724.5489)" font-size="9.9626" font-family="NimbusRomNo9L" font-weight="bold"><tspan y="-541.893" x="303.416 308.39729 313.37858 315.86924 332.11824 337.09953 342.0808 344.57148">62.669.1</tspan></text>
<path transform="matrix(1,0,0,-1,308.87339,186.24188)" stroke-width=".398" stroke-linecap="butt" stroke-miterlimit="10" stroke-linejoin="miter" fill="none" stroke="#000000" d="M 0 0 L 0 11.955 "/>
<text xml:space="preserve" transform="matrix(1 0 -0 1 -45.79463 724.5489)" font-size="9.9626" font-family="NimbusRomNo9L" font-weight="bold"><tspan y="-541.893" x="359.151 364.1323 369.1136 371.60426 387.57429 392.55558 397.53688 400.02754 418.4185 423.39979 428.38108 430.87174">73.696.584.7</tspan></text>
<path transform="matrix(1,0,0,-1,396.96739,186.24188)" stroke-width=".398" stroke-linecap="butt" stroke-miterlimit="10" stroke-linejoin="miter" fill="none" stroke="#000000" d="M 0 0 L 0 11.955 "/>
<text xml:space="preserve" transform="matrix(1 0 -0 1 -45.79463 724.5489)" font-size="9.9626" font-family="NimbusRomNo9L" font-weight="bold"><tspan y="-541.893" x="449.868 454.8493 459.8306 462.32127">64.2</tspan></text>
<text xml:space="preserve" transform="matrix(1 0 -0 1 -45.79463 724.5489)" font-size="9.9626" font-family="NimbusRomNo9L"><tspan y="-541.893" x="479.678 484.6593 489.6406 492.13127">74.2</tspan></text>
<path transform="matrix(1,0,0,-1,456.98439,186.24188)" stroke-width=".398" stroke-linecap="butt" stroke-miterlimit="10" stroke-linejoin="miter" fill="none" stroke="#000000" d="M 0 0 L 0 11.955 "/>
<text xml:space="preserve" transform="matrix(1 0 -0 1 -45.79463 724.5489)" font-size="9.9626" font-family="NimbusRomNo9L"><tspan y="-541.893" x="511.411 516.39236 518.883 523.8643 528.84567">0.382</tspan></text>
<path transform="matrix(1,0,0,-1,7.1693727,188.3349)" stroke-width=".598" stroke-linecap="butt" stroke-miterlimit="10" stroke-linejoin="miter" fill="none" stroke="#000000" d="M 0 0 L 489.297 0 "/>
<text xml:space="preserve" transform="matrix(1 0 -0 1 -45.79463 724.5489)" font-size="9.9626" font-family="NimbusRomNo9L"><tspan y="-524.633" x="247.396 254.58899 257.35859 260.67613 265.09953 269.52293 274.78318 282.5341 286.9575 289.72709 294.70838 299.68968 304.67097">Directmethods</tspan></text>
<path transform="matrix(1,0,0,-1,7.1693727,205.59491)" stroke-width=".598" stroke-linecap="butt" stroke-miterlimit="10" stroke-linejoin="miter" fill="none" stroke="#000000" d="M 0 0 L 489.297 0 "/>
<text xml:space="preserve" transform="matrix(1 0 -0 1 -45.79463 724.5489)" font-size="9.9626" font-family="NimbusRomNo9L"><tspan y="-507.373" x="52.964 60.156999 65.1383 68.45584 74.82194 78.13948 84.78454 89.20793 93.08338 98.06468 103.04598">Ours(Res50)</tspan></text>
<path transform="matrix(1,0,0,-1,165.18537,220.76288)" stroke-width=".398" stroke-linecap="butt" stroke-miterlimit="10" stroke-linejoin="miter" fill="none" stroke="#000000" d="M 0 0 L 0 11.955 "/>
<text xml:space="preserve" transform="matrix(1 0 -0 1 -45.79463 724.5489)" font-size="9.9626" font-family="NimbusRomNo9L"><tspan y="-507.373" x="215.463 220.44429 225.42559 227.91623 243.33834 248.31963 253.30092 255.79157 273.07667 278.05796 283.03926 285.5299">64.092.476.0</tspan></text>
<path transform="matrix(1,0,0,-1,251.06737,220.76288)" stroke-width=".398" stroke-linecap="butt" stroke-miterlimit="10" stroke-linejoin="miter" fill="none" stroke="#000000" d="M 0 0 L 0 11.955 "/>
<text xml:space="preserve" transform="matrix(1 0 -0 1 -45.79463 724.5489)" font-size="9.9626" font-family="NimbusRomNo9L"><tspan y="-507.373" x="303.416 308.39729 313.37858 315.86924 332.11824 337.09953 342.0808 344.57148">57.265.7</tspan></text>
<path transform="matrix(1,0,0,-1,308.87339,220.76288)" stroke-width=".398" stroke-linecap="butt" stroke-miterlimit="10" stroke-linejoin="miter" fill="none" stroke="#000000" d="M 0 0 L 0 11.955 "/>
<text xml:space="preserve" transform="matrix(1 0 -0 1 -45.79463 724.5489)" font-size="9.9626" font-family="NimbusRomNo9L"><tspan y="-507.373" x="359.151 364.1323 369.1136 371.60426 387.57429 392.55558 397.53688 400.02754 418.4185 423.39979 428.38108 430.87174">70.996.482.4</tspan></text>
<path transform="matrix(1,0,0,-1,396.96739,220.76288)" stroke-width=".398" stroke-linecap="butt" stroke-miterlimit="10" stroke-linejoin="miter" fill="none" stroke="#000000" d="M 0 0 L 0 11.955 "/>
<text xml:space="preserve" transform="matrix(1 0 -0 1 -45.79463 724.5489)" font-size="9.9626" font-family="NimbusRomNo9L"><tspan y="-507.373" x="449.868 454.8493 459.8306 462.32127 479.6761 484.65739 489.63868 492.12934">59.971.6</tspan></text>
<path transform="matrix(1,0,0,-1,456.98439,220.76288)" stroke-width=".398" stroke-linecap="butt" stroke-miterlimit="10" stroke-linejoin="miter" fill="none" stroke="#000000" d="M 0 0 L 0 11.955 "/>
<text xml:space="preserve" transform="matrix(1 0 -0 1 -45.79463 724.5489)" font-size="9.9626" font-family="NimbusRomNo9L" font-weight="bold"><tspan y="-507.373" x="511.411 516.39236 518.883 523.8643 528.84567">0.209</tspan></text>
<path transform="matrix(1,0,0,-1,7.1693727,223.0539)" stroke-width=".996" stroke-linecap="butt" stroke-miterlimit="10" stroke-linejoin="miter" fill="none" stroke="#000000" d="M 0 0 L 489.297 0 "/>
<text xml:space="preserve" transform="matrix(1 0 -0 1 -45.79463 724.5489)" font-size="9.9626" font-family="NimbusRomNo9L"><tspan y="-482.665" x="68.19 73.48015 77.90354 82.88484 85.65444 92.56848 97.54978 103.40779 109.49494 114.47624 121.39028 126.37158 131.35288 135.77628 140.75757 143.52718 146.29679 149.06639 153.48979 156.2594 158.77994 163.61179 170.52584 173.84339 178.26679 182.14225 187.12354 189.89315 192.66275 199.02886 204.01015 211.48209 218.67508 223.09848 228.07978 231.95523 236.37863 241.91783 246.89913 250.77458 255.19799 258.51554 265.16059 272.35359 278.99864 288.68229 296.4332 299.2028 304.18409 306.70463 311.43687 315.86027 321.1205 324.99598 329.97727 332.74687 335.51646 338.28605 343.8651 351.33708 360.19383 365.1751 370.1564 374.5798 377.3494 383.7155 388.13893 391.45646 398.3705 401.1401 404.45765 408.88105 411.65065 416.63194 421.05534 428.52729 435.72029 438.48988 441.25947 448.7314 455.64549 459.52095 462.29054 470.04145 475.02275 477.79234 482.21574 484.98533 489.40873 496.88069 501.86198 506.28538 509.05497 513.47836 517.35379 521.77719 524.54678">Table1:ThequantitativeresultsonDensePose-COCOminivalsplit.*Modelsaretrainedwithasimulateddataset.</tspan></text>
<text xml:space="preserve" transform="matrix(1 0 -0 1 -45.79463 724.5489)" font-size="9.9626" font-family="NimbusRomNo9L"><tspan y="-449.191" x="50.112 55.0933 60.0746 67.12812 71.55151 74.86906 79.85036 83.72581 87.60126 90.9188 95.34219 100.323497 103.093097 106.41064 111.39194 116.27361 123.88504 126.65464 131.63594 135.5114">onecross-entropyloss</tspan></text>
<text xml:space="preserve" transform="matrix(1 0 -0 1 -45.79463 724.5489)" font-size="9.9626" font-family="CMMI10" font-style="italic"><tspan y="-449.191" x="142.016">L</tspan></text>
<text xml:space="preserve" transform="matrix(1 0 -0 1 -45.79463 724.5489)" font-size="6.9738" font-family="CMMI7" font-style="italic"><tspan y="-447.697" x="148.796">I</tspan></text>
<text xml:space="preserve" transform="matrix(1 0 -0 1 -45.79463 724.5489)" font-size="9.9626" font-family="NimbusRomNo9L"><tspan y="-449.191" x="155.997 159.31455 164.29584 170.24352 175.22481 180.2061 185.1874 192.79882 197.7801 202.2035 205.52106 208.29067 214.79625 219.21965 221.98926 226.41266 230.28812 234.16358 236.93318 242.47238 246.89579 251.31919 254.08879 256.8584 261.8397 266.82099 271.97166 276.95295 281.93424">forbodypartsclassi&#xfb01;cation,one</tspan></text>
<text xml:space="preserve" transform="matrix(1 0 -0 1 -45.79463 724.5489)" font-size="9.9626" font-family="NimbusRomNo9L"><tspan y="-437.236" x="50.112 53.98745 61.738355 66.71965 71.70095 74.47055 82.67973 88.766887 93.748188 97.06573 99.83533 104.81663 108.69208">smoothL1-loss</tspan></text>
<text xml:space="preserve" transform="matrix(1 0 -0 1 -45.79463 724.5489)" font-size="9.9626" font-family="CMMI10" font-style="italic"><tspan y="-437.236" x="115.787">L</tspan></text>
<text xml:space="preserve" transform="matrix(1 0 -0 1 -45.79463 724.5489)" font-size="6.9738" font-family="CMMI7" font-style="italic"><tspan y="-435.741" x="122.567 128.7402">UV</tspan></text>
<text xml:space="preserve" transform="matrix(1 0 -0 1 -45.79463 724.5489)" font-size="9.9626" font-family="NimbusRomNo9L"><tspan y="-437.236" x="138.884 142.20156 147.18285 153.72827 156.49788 161.47917 165.90258 170.32598 176.3135 183.5065 193.92737 198.35077 203.33206 208.31336 211.6309 216.6122 219.3818 224.3631 228.7865 231.5561 235.9795 243.07289 246.39044 250.6644 255.64569 258.96324 263.38664 267.2621 271.13755 273.90715 278.88844 283.86973">forlocalUVcoordinatesregression,</tspan></text>
<text xml:space="preserve" transform="matrix(1 0 -0 1 -45.79463 724.5489)" font-size="9.9626" font-family="NimbusRomNo9L"><tspan y="-425.281" x="50.112 54.535394 59.516695 67.14805 72.12935 77.11065 84.17413 88.04958 95.80048 100.781787 105.763088 108.532688 113.513988 116.283588 121.264888 128.89624 131.66585 136.64714 140.5226">andonesmoothingloss</tspan></text>
<text xml:space="preserve" transform="matrix(1 0 -0 1 -45.79463 724.5489)" font-size="9.9626" font-family="CMMI10" font-style="italic"><tspan y="-425.281" x="147.04">L</tspan></text>
<text xml:space="preserve" transform="matrix(1 0 -0 1 -45.79463 724.5489)" font-size="6.9738" font-family="CMMI7" font-style="italic"><tspan y="-423.786" x="153.82">s</tspan></text>
<text xml:space="preserve" transform="matrix(1 0 -0 1 -45.79463 724.5489)" font-size="9.9626" font-family="NimbusRomNo9L"><tspan y="-425.281" x="158.079 164.12628 170.21343 175.19472 182.25821 186.13367 193.88457 198.86586 203.84716 206.61676 211.59806 214.36766 219.34896 226.9803 229.74991 234.7312 238.60666">.Thesmoothingloss</tspan></text>
<text xml:space="preserve" transform="matrix(1 0 -0 1 -45.79463 724.5489)" font-size="9.9626" font-family="CMMI10" font-style="italic"><tspan y="-425.281" x="245.126">L</tspan></text>
<text xml:space="preserve" transform="matrix(1 0 -0 1 -45.79463 724.5489)" font-size="6.9738" font-family="CMMI7" font-style="italic"><tspan y="-423.786" x="251.906">s</tspan></text>
<text xml:space="preserve" transform="matrix(1 0 -0 1 -45.79463 724.5489)" font-size="9.9626" font-family="NimbusRomNo9L"><tspan y="-425.281" x="258.81 261.5796 268.1051 273.0864 276.96186 281.38526">isused</tspan></text>
<text xml:space="preserve" transform="matrix(1 0 -0 1 -45.79463 724.5489)" font-size="9.9626" font-family="NimbusRomNo9L"><tspan y="-413.325" x="50.112 52.881605 61.48929 65.91268 70.89398 75.317378 80.298679 85.279979 88.59752 93.02091 98.00221 106.051998 108.821598 113.802898 121.85268 129.60358 134.58487 139.56616 143.98957 150.3756 153.1452 161.75289 166.73418 170.05173 175.03302 180.01432 184.9956 189.419 197.4688 200.2384 204.6618 208.53726 216.03911 221.0204 226.0017 228.7713 232.64676 241.25444 244.57199 251.76499 262.58436 265.9019 270.3253 275.30659 278.6241 283.04753">toencouragethemodeltoproducelessnoisyIUVrepre-</tspan></text>
<text xml:space="preserve" transform="matrix(1 0 -0 1 -45.79463 724.5489)" font-size="9.9626" font-family="NimbusRomNo9L"><tspan y="-401.37" x="50.112 53.98745 58.410844 63.392145 66.16174 70.58514 73.35474 76.12434 81.10564 86.08694 91.29737 95.17282 97.94242 102.92372 107.347118 114.45045 117.22005 122.20135 129.29473 134.27602 138.69942 143.68071 147.55617 154.65952 159.64081 164.6221 168.49756 175.59095 180.01435 184.99564 189.97693 194.95822 197.72783 202.15123 204.92084 207.69045 212.67174 220.33298 223.10259 229.64803 236.75138 240.62683 245.05023 250.48983 255.47112 261.4686 265.34407 270.32536 274.74876 278.06629 281.94175">sentation,sincethedenseposeannotationisasetofsparse</tspan></text>
<text xml:space="preserve" transform="matrix(1 0 -0 1 -45.79463 724.5489)" font-size="9.9626" font-family="NimbusRomNo9L"><tspan y="-389.415" x="50.112 55.0933 60.0746 62.844205 67.8255 70.5951 74.47055 82.48048 85.79802 94.07694 99.05824 103.481639 106.79918 109.56878 112.33838 116.76177 121.74307 124.51267 128.93607 131.85512 137.8526 145.0456 152.76662 157.19002 162.17131 167.1526 172.1339 178.20113 182.62453 190.90345 195.32685 200.30814 205.28943 209.71283 213.03038 217.30434 224.3977 228.8211 232.13866 239.86965 243.7451 251.496 256.4773 261.4586 264.22819 269.20948 274.19078 278.61418 282.48963">points.Inparticular,weadoptanedge-awaresmoothness</tspan></text>
<text xml:space="preserve" transform="matrix(1 0 -0 1 -45.79463 724.5489)" font-size="9.9626" font-family="NimbusRomNo9L"><tspan y="-377.46" x="50.112 53.429548 57.7035 62.6848 67.6661 70.4357 74.85909 78.176639 80.946239 85.36963 89.79302 92.56262 95.33222 100.31352 107.78547">regularization[</tspan></text>
<text fill="#00ff00" xml:space="preserve" transform="matrix(1 0 -0 1 -45.79463 724.5489)" font-size="9.9626" font-family="NimbusRomNo9L"><tspan y="-377.46" x="111.103">9</tspan></text>
<text xml:space="preserve" transform="matrix(1 0 -0 1 -45.79463 724.5489)" font-size="9.9626" font-family="NimbusRomNo9L"><tspan y="-377.46" x="116.0843 121.89249 126.31588 132.68198 135.99953 140.98082 143.75043 146.52004 151.25226 158.44525 162.32071">]asfollows,</tspan></text>
<text xml:space="preserve" transform="matrix(1 0 -0 1 -45.79463 724.5489)" font-size="9.9626" font-family="CMMI10" font-style="italic"><tspan y="-348.684" x="101.919">L</tspan></text>
<text xml:space="preserve" transform="matrix(1 0 -0 1 -45.79463 724.5489)" font-size="6.9738" font-family="CMMI7" font-style="italic"><tspan y="-347.189" x="108.699">s</tspan></text>
<text xml:space="preserve" transform="matrix(1 0 -0 1 -45.79463 724.5489)" font-size="9.9626" font-family="CMR10"><tspan y="-348.684" x="115.725">=</tspan></text>
<text xml:space="preserve" transform="matrix(1 0 -0 1 -45.79463 724.5489)" font-size="9.9626" font-family="CMR10"><tspan y="-355.424" x="129.491">1</tspan></text>
<path transform="matrix(1,0,0,-1,81.64137,373.3739)" stroke-width=".398" stroke-linecap="butt" stroke-miterlimit="10" stroke-linejoin="miter" fill="none" stroke="#000000" d="M 0 0 L 9.091 0 "/>
<text xml:space="preserve" transform="matrix(1 0 -0 1 -45.79463 724.5489)" font-size="9.9626" font-family="CMMI10" font-style="italic"><tspan y="-341.85" x="127.436">N</tspan></text>
<text xml:space="preserve" transform="matrix(1 0 -0 1 -45.79463 724.5489)" font-size="6.9738" font-family="CMMI7" font-style="italic"><tspan y="-361.137" x="143.049">N</tspan></text>
<text xml:space="preserve" transform="matrix(1 0 -0 1 -45.79463 724.5489)" font-size="9.9626" font-family="CMEX10"><tspan y="-358.148" x="139.383">X</tspan></text>
<text xml:space="preserve" transform="matrix(1 0 -0 1 -45.79463 724.5489)" font-size="6.9738" font-family="CMMI7" font-style="italic"><tspan y="-336.929" x="140.125">i</tspan></text>
<text xml:space="preserve" transform="matrix(1 0 -0 1 -45.79463 724.5489)" font-size="6.9738" font-family="CMR7"><tspan y="-336.929" x="142.944 149.06003">=1</tspan></text>
<text xml:space="preserve" transform="matrix(1 0 -0 1 -45.79463 724.5489)" font-size="9.9626" font-family="CMSY10" font-style="italic"><tspan y="-348.684" x="153.773">|</tspan></text>
<text xml:space="preserve" transform="matrix(1 0 -0 1 -45.79463 724.5489)" font-size="9.9626" font-family="CMSY10" font-style="italic"><tspan y="-348.684" x="156.5406">r</tspan></text>
<text xml:space="preserve" transform="matrix(1 0 -0 1 -45.79463 724.5489)" font-size="6.9738" font-family="CMMI7" font-style="italic"><tspan y="-347.189" x="164.843">h</tspan></text>
<text xml:space="preserve" transform="matrix(1 0 -0 1 -45.79463 724.5489)" font-size="9.9626" font-family="CMMIB10" font-weight="bold" font-style="italic"><tspan y="-348.684" x="170.005">C</tspan></text>
<text xml:space="preserve" transform="matrix(1 0 -0 1 -45.79463 724.5489)" font-size="9.9626" font-family="CMSY10" font-style="italic"><tspan y="-348.684" x="178.84">|</tspan></text>
<text xml:space="preserve" transform="matrix(1 0 -0 1 -45.79463 724.5489)" font-size="9.9626" font-family="CMMI10" font-style="italic"><tspan y="-348.684" x="181.607">e</tspan></text>
<text xml:space="preserve" transform="matrix(1 0 -0 1 -45.79463 724.5489)" font-size="6.9738" font-family="CMSY7" font-style="italic"><tspan y="-352.797" x="186.246">&#xfffd;</tspan></text>
<text xml:space="preserve" transform="matrix(1 0 -0 1 -45.79463 724.5489)" font-size="6.9738" font-family="CMSY7" font-style="italic"><tspan y="-352.797" x="192.47292">|</tspan></text>
<text xml:space="preserve" transform="matrix(1 0 -0 1 -45.79463 724.5489)" font-size="6.9738" font-family="CMSY7" font-style="italic"><tspan y="-352.797" x="194.83634">r</tspan></text>
<text xml:space="preserve" transform="matrix(1 0 -0 1 -45.79463 724.5489)" font-size="4.9813" font-family="CMMI5" font-style="italic"><tspan y="-351.74" x="201.494">h</tspan></text>
<text xml:space="preserve" transform="matrix(1 0 -0 1 -45.79463 724.5489)" font-size="6.9738" font-family="CMMIB7" font-weight="bold" font-style="italic"><tspan y="-352.797" x="206.115">M</tspan></text>
<text xml:space="preserve" transform="matrix(1 0 -0 1 -45.79463 724.5489)" font-size="4.9813" font-family="CMMI5" font-style="italic"><tspan y="-355.804" x="215.717">i</tspan></text>
<text xml:space="preserve" transform="matrix(1 0 -0 1 -45.79463 724.5489)" font-size="4.9813" font-family="CMMI5" font-style="italic"><tspan y="-350.805" x="215.717 218.37502 222.76155">ins</tspan></text>
<text xml:space="preserve" transform="matrix(1 0 -0 1 -45.79463 724.5489)" font-size="6.9738" font-family="CMSY7" font-style="italic"><tspan y="-352.797" x="226.599">|</tspan></text>
<text xml:space="preserve" transform="matrix(1 0 -0 1 -45.79463 724.5489)" font-size="9.9626" font-family="CMR10"><tspan y="-321.508" x="146.025">+</tspan></text>
<text xml:space="preserve" transform="matrix(1 0 -0 1 -45.79463 724.5489)" font-size="9.9626" font-family="CMSY10" font-style="italic"><tspan y="-321.508" x="153.773">|</tspan></text>
<text xml:space="preserve" transform="matrix(1 0 -0 1 -45.79463 724.5489)" font-size="9.9626" font-family="CMSY10" font-style="italic"><tspan y="-321.508" x="156.5406">r</tspan></text>
<text xml:space="preserve" transform="matrix(1 0 -0 1 -45.79463 724.5489)" font-size="6.9738" font-family="CMMI7" font-style="italic"><tspan y="-320.014" x="164.843">w</tspan></text>
<text xml:space="preserve" transform="matrix(1 0 -0 1 -45.79463 724.5489)" font-size="9.9626" font-family="CMMIB10" font-weight="bold" font-style="italic"><tspan y="-321.508" x="171.292">C</tspan></text>
<text xml:space="preserve" transform="matrix(1 0 -0 1 -45.79463 724.5489)" font-size="9.9626" font-family="CMSY10" font-style="italic"><tspan y="-321.508" x="180.126">|</tspan></text>
<text xml:space="preserve" transform="matrix(1 0 -0 1 -45.79463 724.5489)" font-size="9.9626" font-family="CMMI10" font-style="italic"><tspan y="-321.508" x="182.894">e</tspan></text>
<text xml:space="preserve" transform="matrix(1 0 -0 1 -45.79463 724.5489)" font-size="6.9738" font-family="CMSY7" font-style="italic"><tspan y="-325.622" x="187.533">&#xfffd;</tspan></text>
<text xml:space="preserve" transform="matrix(1 0 -0 1 -45.79463 724.5489)" font-size="6.9738" font-family="CMSY7" font-style="italic"><tspan y="-325.622" x="193.75992">|</tspan></text>
<text xml:space="preserve" transform="matrix(1 0 -0 1 -45.79463 724.5489)" font-size="6.9738" font-family="CMSY7" font-style="italic"><tspan y="-325.622" x="196.12334">r</tspan></text>
<text xml:space="preserve" transform="matrix(1 0 -0 1 -45.79463 724.5489)" font-size="4.9813" font-family="CMMI5" font-style="italic"><tspan y="-324.625" x="202.781">w</tspan></text>
<text xml:space="preserve" transform="matrix(1 0 -0 1 -45.79463 724.5489)" font-size="6.9738" font-family="CMMIB7" font-weight="bold" font-style="italic"><tspan y="-325.622" x="208.439">M</tspan></text>
<text xml:space="preserve" transform="matrix(1 0 -0 1 -45.79463 724.5489)" font-size="4.9813" font-family="CMMI5" font-style="italic"><tspan y="-328.628" x="218.042">i</tspan></text>
<text xml:space="preserve" transform="matrix(1 0 -0 1 -45.79463 724.5489)" font-size="4.9813" font-family="CMMI5" font-style="italic"><tspan y="-323.629" x="218.042 220.70003 225.08657">ins</tspan></text>
<text xml:space="preserve" transform="matrix(1 0 -0 1 -45.79463 724.5489)" font-size="6.9738" font-family="CMSY7" font-style="italic"><tspan y="-325.622" x="228.923">|</tspan></text>
<text xml:space="preserve" transform="matrix(1 0 -0 1 -45.79463 724.5489)" font-size="9.9626" font-family="CMMI10" font-style="italic"><tspan y="-321.508" x="231.788">,</tspan></text>
<text xml:space="preserve" transform="matrix(1 0 -0 1 -45.79463 724.5489)" font-size="9.9626" font-family="NimbusRomNo9L"><tspan y="-321.508" x="269.764 273.08155 278.06285 283.04414">(12)</tspan></text>
<text xml:space="preserve" transform="matrix(1 0 -0 1 -45.79463 724.5489)" font-size="9.9626" font-family="NimbusRomNo9L"><tspan y="-302.145" x="50.112 57.304998 62.286298 66.709697 70.02724">where</tspan></text>
<text xml:space="preserve" transform="matrix(1 0 -0 1 -45.79463 724.5489)" font-size="9.9626" font-family="CMMIB10" font-weight="bold" font-style="italic"><tspan y="-302.145" x="76.941">C</tspan></text>
<text xml:space="preserve" transform="matrix(1 0 -0 1 -45.79463 724.5489)" font-size="9.9626" font-family="NimbusRomNo9L"><tspan y="-302.145" x="88.266 91.0356 97.401699 100.171298 105.152599 112.066638 117.047939 120.36548 124.78887 129.77017 132.53978 136.96318 139.73279 144.15619 151.62813 156.60942 159.37903 164.36032 169.34162 173.76502 179.02527 182.34282 189.53582 199.21945 202.537 206.9604 211.9417 215.25925 219.68265 223.5581 227.9815 232.9628 235.7324 240.1558 242.92542 245.69503 250.67632 255.65761">isthepredictedglobalIUVrepresentation.</tspan></text>
<text xml:space="preserve" transform="matrix(1 0 -0 1 -45.79463 724.5489)" font-size="11.9552" font-family="NimbusRomNo9L" font-weight="bold"><tspan y="-279.257" x="50.112 56.0896 62.0672 70.04132 76.01892 82.666019 87.97412 93.28223 96.605777 106.56445 111.87256 118.51965 122.50073">6.Experiments</tspan></text>
<text xml:space="preserve" transform="matrix(1 0 -0 1 -45.79463 724.5489)" font-size="9.9626" font-family="NimbusRomNo9L"><tspan y="-260.328" x="62.067 67.45677 72.43807 79.700809 83.87514 88.607379 93.03077 95.80037 100.78167 105.20506 107.97466 110.74426 115.72556 120.70686 127.50135 134.69435 143.06295 148.04424 151.36179 155.78519 159.66065 164.08405 169.06534 175.78014 180.76143 185.74272 190.16613 192.93573 195.70534 198.47495 202.89835 205.66796 208.18849 213.02034 221.38893 225.81233 230.79363 239.72011 244.7014 249.6827 254.1061 259.0874 261.857 264.6266 267.39619 271.81959 274.58918 277.1097 281.94157">Forevaluation,wepresentqualitativeandquantitative</tspan></text>
<text xml:space="preserve" transform="matrix(1 0 -0 1 -45.79463 724.5489)" font-size="9.9626" font-family="NimbusRomNo9L"><tspan y="-248.372" x="50.112 53.429548 57.85294 61.72839 66.70969 69.47929 72.248889 76.12434 81.10563 88.01967 91.33721 96.31851 101.29981 104.06941 106.83901 114.58991 121.50395 125.927349 130.90865 135.33205 138.10166 143.08295 146.9584 149.72801 153.60347 158.58477 163.00817 167.98946 175.4614 180.44269 184.31815 188.74155 194.54975 198.4252 201.19481 206.1761 211.1574 218.62934 221.94689 226.37029 230.24575 235.22704 237.99665 240.76625 244.64171">results,aruntimeanalysis,anduserstudyresults.</tspan></text>
<text xml:space="preserve" transform="matrix(1 0 -0 1 -45.79463 724.5489)" font-size="9.9626" font-family="NimbusRomNo9L" font-weight="bold"><tspan y="-236.417" x="50.112 53.98745 62.286298 67.8255 70.5951 75.01849 83.31734 87.74073 93.27994 96.59748 101.57878 104.896327 107.665927 112.647228 122.002109 127.54131 131.9647 135.28226 140.26355 143.03316 145.80277 149.67823">Implementationdetails.</tspan></text>
<text xml:space="preserve" transform="matrix(1 0 -0 1 -45.79463 724.5489)" font-size="9.9626" font-family="NimbusRomNo9L"><tspan y="-236.417" x="159.218 166.411 171.39229 174.1619 178.5853 182.46076 190.15189 194.02735 199.00864 203.43204 207.85544 210.62505 216.16425 220.58765 229.37465 234.35594 237.12555 242.10684 246.53025 249.8478 257.0408 259.8104 263.68586 268.10926 274.74436 281.93736">Unlessspeci&#xfb01;edotherwise,we</tspan></text>
<text xml:space="preserve" transform="matrix(1 0 -0 1 -45.79463 724.5489)" font-size="9.9626" font-family="NimbusRomNo9L"><tspan y="-224.462" x="50.112 55.0933 58.96875 65.52414 68.29374 73.27504 79.820468 83.13801 88.11931 90.88891 93.65851 98.39075 105.58375 108.35335 113.33465 120.447948 123.217548 130.96845 135.94974 138.71935 143.14275 150.89365 155.31705 160.29834 163.06795 167.49135 170.26096 173.03057 178.01186 185.12516 190.10645 194.52985 197.29946 201.72286 204.49246 207.26207 211.13753 216.59703 225.20471 231.75016 236.73145 240.6069 247.16231 253.71772 260.36277 264.78617 268.66163 275.8546 280.278 283.0476">usethefollowingimplementationdetails.WeuseaResNet-</tspan></text>
<text xml:space="preserve" transform="matrix(1 0 -0 1 -45.79463 724.5489)" font-size="9.9626" font-family="NimbusRomNo9L"><tspan y="-212.507" x="50.112 55.0933 62.814317">50[</tspan></text>
<text fill="#00ff00" xml:space="preserve" transform="matrix(1 0 -0 1 -45.79463 724.5489)" font-size="9.9626" font-family="NimbusRomNo9L"><tspan y="-212.507" x="66.13186 71.11316">15</tspan></text>
<text xml:space="preserve" transform="matrix(1 0 -0 1 -45.79463 724.5489)" font-size="9.9626" font-family="NimbusRomNo9L"><tspan y="-212.507" x="76.09446 82.15172 86.57511 89.892658 94.31605 99.29735 102.06695 104.83655 109.25994 113.683338 116.452938 121.434238 124.75178 131.90493 136.32833 142.9435 145.7131 150.6944 157.85752 162.8388 167.2622 171.68561 176.6669 181.6482 186.62949 191.61078 196.03418 201.32431 204.64186 209.62316 212.39276 215.16237 219.89459 227.08759 231.51099 239.232 244.21329 251.9343 259.0974 264.0787 267.39625 270.16584 274.34019 279.17204 283.59544">]architectureasthebackbone,followedbya4-level</tspan></text>
<text xml:space="preserve" transform="matrix(1 0 -0 1 -45.79463 724.5489)" font-size="9.9626" font-family="NimbusRomNo9L"><tspan y="-200.552" x="50.112 55.651208 61.190416 71.44193">FPN(</tspan></text>
<text xml:space="preserve" transform="matrix(1 0 -0 1 -45.79463 724.5489)" font-size="9.9626" font-family="NimbusRomNo9L" font-style="italic"><tspan y="-200.552" x="74.756 77.5256 80.01624">i.e</tspan></text>
<text xml:space="preserve" transform="matrix(1 0 -0 1 -45.79463 724.5489)" font-size="9.9626" font-family="NimbusRomNo9L"><tspan y="-200.552" x="84.44 89.98917 94.97047 97.74007 102.72137 108.41001 113.39131 116.16091 121.14221 126.83086 131.81215 134.58176 139.56305 144.54434 150.23299 155.21428 157.98389 162.96518 170.99503 173.76464 177.93897 182.77082 187.19422 189.96382 193.83928 197.15683 204.43949 210.52663 215.50792 222.97988 229.62493 234.04833 237.92378 245.11678 249.54018 255.3683 262.5613 266.9847 269.7543 274.7356 279.7169 282.48649">.1/4,1/8,1/16,1/32levels).TheResNetweights</tspan></text>
<text xml:space="preserve" transform="matrix(1 0 -0 1 -45.79463 724.5489)" font-size="9.9626" font-family="NimbusRomNo9L"><tspan y="-188.596" x="50.112 54.535394 57.85294 64.75702 67.52662 72.50792 75.27752 78.04712 80.81672 85.24011 88.00971 90.77931 95.202709 99.6261 107.08809 112.06939 119.521419 122.291019 127.272319 134.17639 139.15769 142.47524 146.89864 150.21619 152.9858 156.30335 160.72675 163.49636 168.47765 172.90105 180.36302 185.24469 189.51865 194.49994 199.48123 204.46253 207.23213 212.21343 214.98303 221.33917 225.76258 229.63803 232.40764 235.17725 242.92815 247.35155 250.12116 252.89076 257.87208 265.33406 273.08497 278.06626 283.04756">areinitializedbythepre-trainedkeypointsestimationmod-</tspan></text>
<text xml:space="preserve" transform="matrix(1 0 -0 1 -45.79463 724.5489)" font-size="9.9626" font-family="NimbusRomNo9L"><tspan y="-176.641" x="50.112 54.535394 57.304998 63.810575 67.12812 70.44566 75.42696 85.817958 92.46301 99.65601 106.30107 116.1242">elsfromCOCO[</tspan></text>
<text fill="#00ff00" xml:space="preserve" transform="matrix(1 0 -0 1 -45.79463 724.5489)" font-size="9.9626" font-family="NimbusRomNo9L"><tspan y="-176.641" x="119.4417 124.423007">27</tspan></text>
<text xml:space="preserve" transform="matrix(1 0 -0 1 -45.79463 724.5489)" font-size="9.9626" font-family="NimbusRomNo9L"><tspan y="-176.641" x="129.4043 132.72185 138.7293 145.92229 150.90358 156.85126 164.60216 169.58345 174.56475 178.98815 181.75775 188.2733 192.6967 196.01425 203.06778 205.83739 209.15494 213.57834 216.34795 221.32924 225.75264 233.36406 240.55706 243.32666 246.09627 253.71765 257.5931 260.3627 265.344 269.7674 274.7487 279.1721 283.04756">].Ourmodelsaretrainedwithstochas-</tspan></text>
<text xml:space="preserve" transform="matrix(1 0 -0 1 -45.79463 724.5489)" font-size="9.9626" font-family="NimbusRomNo9L"><tspan y="-164.686" x="50.112 52.881605 55.651208 62.894018 67.87531 71.192859 75.61625 80.59755 83.36715 87.79054 92.77184 98.37082 103.35212 107.77551 111.65096 116.074359 120.49775 125.47905 131.06807 134.38562 139.92482 147.11782 154.3108 160.45774 163.77529 168.75658 174.89354 179.87483 184.85613 189.83742 199.84983 202.61943 205.38904 209.81244 213.12999 217.55339 220.323 223.0926 228.0739 233.05519 239.76003 246.95302 249.72263 252.49224 260.29298 264.71638 272.52705 275.29664 280.27793 283.04753">ticgradientdescent(SGD)for130Kiterationswithanini-</tspan></text>
<text xml:space="preserve" transform="matrix(1 0 -0 1 -45.79463 724.5489)" font-size="9.9626" font-family="NimbusRomNo9L"><tspan y="-152.731" x="50.112 52.881605 55.651208 60.0746 65.39463 68.16423 72.58762 77.01102 80.32856 85.30986 88.07946 93.06076 100.58253 103.90007 108.32346 111.09306 118.06688 123.04818 128.91616 133.89745 136.38809 141.36939 148.90111 153.32451 158.3058 165.82756 172.80139 180.55229 183.3219 188.30319 191.0728 194.39035 199.37165 203.79505 206.56465 210.98805 218.51978 223.50107 229.36905 236.89081 239.66042 247.41132 251.83472 256.816 261.2394 265.11488 270.87327 276.96043 281.9417">tiallearningrateof0.01andamini-batchof8images.The</tspan></text>
<text xml:space="preserve" transform="matrix(1 0 -0 1 -45.79463 724.5489)" font-size="9.9626" font-family="NimbusRomNo9L"><tspan y="-140.776" x="50.112 52.881605 57.304998 61.72839 65.04594 70.02724 72.79684 77.77814 85.68844 89.00598 93.429378 96.198978 103.54141 106.31101 113.11546 116.43301 120.8564 125.8377 130.819 135.2424 139.6658 147.56613 152.54743 160.45772 167.81012 171.02805 175.45145 179.87485 182.64446 187.62575 193.86234 198.84363 205.09018 210.07147 217.9718 222.3952 228.09381 230.86342 233.63303 238.05643 241.37398 245.79738 248.56699 251.3366 256.3179 264.2282 269.2095 274.1908 279.1721">learningrateisreducedbyafactorof10atiteration100K</tspan></text>
<text xml:space="preserve" transform="matrix(1 0 -0 1 -45.79463 724.5489)" font-size="9.9626" font-family="NimbusRomNo9L"><tspan y="-128.821" x="50.112 54.535394 59.516695 67.64617 72.62747 77.60877 82.59007 89.78307 95.4219 98.73944 103.162837 107.038288 112.019588 116.44298 120.86637 123.63597 126.15651 130.98836 135.41176 138.18137 142.51509 150.06674 158.67443 163.09783 165.86743 170.84873 175.83002 181.7478 186.7291 191.1525 195.5759 199.9993 208.12877 212.55217 217.53347 225.66294 233.41384 238.39513 246.14603 250.56943 255.55072 258.3203 263.3016 274.2007 278.6241 281.94166">and120K,respectively.Weightdecayandmomentumare</tspan></text>
<text xml:space="preserve" transform="matrix(1 0 -0 1 -45.79463 724.5489)" font-size="9.9626" font-family="NimbusRomNo9L"><tspan y="-116.865" x="50.112 53.98745 58.410844 63.0833 67.5067 73.285 78.266307 80.75695 85.73825 90.71955 95.70085 102.59497 107.018367 111.999668 118.88382 123.86512 126.35577 131.33707 135.85013 139.16768 143.59108 147.46654 152.44783 156.87123 161.29463 164.06424 166.58478 171.41663 175.84003 178.60964 182.94336 188.32317 193.71292 198.69422 201.46382 204.23343 208.96566 216.15865 218.92826 223.90955 230.7937">setas0.0001and0.9,respectively.Following[</tspan></text>
<text fill="#00ff00" xml:space="preserve" transform="matrix(1 0 -0 1 -45.79463 724.5489)" font-size="9.9626" font-family="NimbusRomNo9L"><tspan y="-116.865" x="234.1113">1</tspan></text>
<text xml:space="preserve" transform="matrix(1 0 -0 1 -45.79463 724.5489)" font-size="9.9626" font-family="NimbusRomNo9L"><tspan y="-116.865" x="239.0926 242.41016 246.92322 249.69283 256.7862 263.6803 268.6616 273.64289 278.06629 283.04759">],twoquan-</tspan></text>
<text xml:space="preserve" transform="matrix(1 0 -0 1 -45.79463 724.5489)" font-size="9.9626" font-family="NimbusRomNo9L"><tspan y="-104.91" x="50.112 52.881605 55.651208 58.42081 62.844205 65.61381 68.134349 72.96621 80.527828 88.278728 92.70212 95.47172 98.78926 101.55886 105.982257 112.995929 117.41932 120.73686 128.29848 133.27977 137.15523 141.57863 149.7081 153.02565 158.00695 164.4627 168.63704 173.36927 177.79267 180.56227 185.54357 189.96697 192.73657 195.50618 200.48748 205.46877">titativemetricsareusedforevaluation,</tspan></text>
<text xml:space="preserve" transform="matrix(1 0 -0 1 -45.79463 724.5489)" font-size="9.9626" font-family="NimbusRomNo9L" font-style="italic"><tspan y="-104.91" x="211.26 214.0296 216.52025">i.e</tspan></text>
<text xml:space="preserve" transform="matrix(1 0 -0 1 -45.79463 724.5489)" font-size="9.9626" font-family="NimbusRomNo9L"><tspan y="-104.91" x="220.944 226.57286 233.02863 237.86048 242.28388 245.60143 250.02483 255.00612 262.56773 268.10694 271.42448 275.84788 280.27128 283.04087">.AveragePreci-</tspan></text>
<text xml:space="preserve" transform="matrix(1 0 -0 1 -45.79463 724.5489)" font-size="9.9626" font-family="NimbusRomNo9L"><tspan y="-92.955" x="50.112 53.98745 56.757055 61.738355 68.871578 72.18912 79.38212 84.921329 90.40076 94.82415 99.80545 106.938678 113.39444 118.2263 122.6497 125.96724 130.39064 135.37194 141.95722 148.60227 153.02567 157.44907 161.87247 164.64208 169.5636 172.88115 180.07415 186.7192 190.03675 194.6793 201.32436 206.30565 209.07526 216.21843 223.96933 228.39273 231.16234 234.47989 237.2495 241.6729 247.70027 252.12368 255.44123 262.02653 266.44993 270.87333 273.6429 278.0663 283.0476">sion(AP)andAverageRecall(AR).Bothmetricsarecalcu-</tspan></text>
<text xml:space="preserve" transform="matrix(1 0 -0 1 -45.79463 724.5489)" font-size="9.9626" font-family="NimbusRomNo9L"><tspan y="-81" x="50.112 52.881605 57.304998 60.0746 64.49799 71.441928 75.86532 80.59755 86.983577 91.964878 96.946178 104.697078 109.678379 114.10177 119.37198 124.35328 129.63346 134.61475 139.03815 144.01944 149.00074 153.42414 157.29959 160.0692 166.45523 171.43653 176.41782 179.18743 184.16872 188.90096 192.77642 195.54602 203.29692 206.06653 208.83614 213.25954 216.57709 219.3467 222.1163 229.06023 232.37778 239.57077 245.10997 250.64917 255.92935 259.2469 263.6703 268.65159 273.63288 276.40248 281.38377">latedatanumberofgeodesicpointsimilarity(GPS)ranging</tspan></text>
<text xml:space="preserve" transform="matrix(1 0 -0 1 -45.79463 724.5489)" font-size="9.9626" font-family="NimbusRomNo9L"><tspan y="-449.191" x="308.862 312.17955 315.49708 320.47837 331.13838 336.11967 338.61033 346.5007 349.2703 357.16069 362.14198 364.63264 369.61393 374.5952 381.42958 384.7471 392.63749 397.06089 402.04219 407.02348 409.79307 412.56266 415.33226 420.31355 425.29484 430.80418 435.78547 438.55506 443.53636 447.95976 454.18638 458.36073 463.09297 467.51637 470.28596 475.26725 479.69065 482.46025 485.22984 490.21113 498.1015 505.85243 510.27583 513.0454 516.363 519.13259 523.55599 527.4314">from0.5to0.95.Inaddition,otherevaluationmetrics,</tspan></text>
<text xml:space="preserve" transform="matrix(1 0 -0 1 -45.79463 724.5489)" font-size="9.9626" font-family="NimbusRomNo9L" font-style="italic"><tspan y="-449.191" x="532.938 535.7076 538.19827">i.e</tspan></text>
<text xml:space="preserve" transform="matrix(1 0 -0 1 -45.79463 724.5489)" font-size="9.9626" font-family="NimbusRomNo9L"><tspan y="-449.191" x="542.621">.</tspan></text>
<text xml:space="preserve" transform="matrix(1 0 -0 1 -45.79463 724.5489)" font-size="9.9626" font-family="NimbusRomNo9L"><tspan y="-437.236" x="308.862 316.055">AP</tspan></text>
<text xml:space="preserve" transform="matrix(1 0 -0 1 -45.79463 724.5489)" font-size="6.9738" font-family="CMMI7" font-style="italic"><tspan y="-435.741" x="321.594">M</tspan></text>
<text xml:space="preserve" transform="matrix(1 0 -0 1 -45.79463 724.5489)" font-size="9.9626" font-family="NimbusRomNo9L"><tspan y="-437.236" x="333.226 337.6494 342.6307 350.40153 357.5945">andAR</tspan></text>
<text xml:space="preserve" transform="matrix(1 0 -0 1 -45.79463 724.5489)" font-size="6.9738" font-family="CMMI7" font-style="italic"><tspan y="-435.741" x="364.239">M</tspan></text>
<text xml:space="preserve" transform="matrix(1 0 -0 1 -45.79463 724.5489)" font-size="9.9626" font-family="NimbusRomNo9L"><tspan y="-437.236" x="375.871 379.18855 384.16984 390.2769 398.0278 402.4512 407.4325 410.2021 415.18339 425.72383 430.7051 435.1285 440.1098 445.0911 447.8607 455.0736 459.497 464.4783 472.2491 479.4421">formediumpeopleandAP</tspan></text>
<text xml:space="preserve" transform="matrix(1 0 -0 1 -45.79463 724.5489)" font-size="6.9738" font-family="CMMI7" font-style="italic"><tspan y="-435.741" x="484.978">L</tspan></text>
<text xml:space="preserve" transform="matrix(1 0 -0 1 -45.79463 724.5489)" font-size="9.9626" font-family="NimbusRomNo9L"><tspan y="-437.236" x="493.73 498.1534 503.1347 510.90553 518.0985">andAR</tspan></text>
<text xml:space="preserve" transform="matrix(1 0 -0 1 -45.79463 724.5489)" font-size="6.9738" font-family="CMMI7" font-style="italic"><tspan y="-435.741" x="524.743">L</tspan></text>
<text xml:space="preserve" transform="matrix(1 0 -0 1 -45.79463 724.5489)" font-size="9.9626" font-family="NimbusRomNo9L"><tspan y="-437.236" x="533.496 536.81356 541.79489">for</tspan></text>
<text xml:space="preserve" transform="matrix(1 0 -0 1 -45.79463 724.5489)" font-size="9.9626" font-family="NimbusRomNo9L"><tspan y="-425.28" x="308.862 311.6316 316.055 319.1932 324.1745 330.94908 335.93037 340.35377 345.33506 350.31636 353.08595 357.50935 362.3711 366.7945 370.11204 376.8866 381.31 384.0796 387.95506 395.2875 398.60505 403.02845 408.00975 412.99104 416.30857 419.07817 423.50157 428.48286 434.01213 441.2051 446.1864 451.8551 459.60603 464.02943 466.799 471.7803 476.7616 484.09407 486.86366 493.09028 495.85987 503.61079 508.59208 511.36167 515.78506 523.53598 527.95938 532.9407 535.71029 540.13369">largepeople,arealsoreported.Ourmethodisimplemented</tspan></text>
<text xml:space="preserve" transform="matrix(1 0 -0 1 -45.79463 724.5489)" font-size="9.9626" font-family="NimbusRomNo9L"><tspan y="-413.325" x="308.862 313.8433 318.2667 322.14216 326.56556 334.09727 339.07856 346.6003 349.3699 354.3512 361.325 368.518 372.9414 375.711 380.1344 384.5578 387.3274 390.64494 395.62623 400.6075 408.13923 411.45677 414.7743 419.1977 426.9486 431.12297 438.2163 443.1976 446.51515 454.0369">basedontheDetectron2framework[</tspan></text>
<text fill="#00ff00" xml:space="preserve" transform="matrix(1 0 -0 1 -45.79463 724.5489)" font-size="9.9626" font-family="NimbusRomNo9L"><tspan y="-413.325" x="457.3546 462.3359">51</tspan></text>
<text xml:space="preserve" transform="matrix(1 0 -0 1 -45.79463 724.5489)" font-size="9.9626" font-family="NimbusRomNo9L"><tspan y="-413.325" x="467.3172 470.63475 476.38319 483.57618 491.10789 496.08918 500.51258 503.28218 510.25599 514.6794 519.6607 524.642 532.39297 536.81637 541.79769">].Nodataaugmen-</tspan></text>
<text xml:space="preserve" transform="matrix(1 0 -0 1 -45.79463 724.5489)" font-size="9.9626" font-family="NimbusRomNo9L"><tspan y="-401.37" x="308.862 311.6316 316.055 318.8246 321.59419 326.57548 334.03746 336.80705 343.16319 348.14448 352.01994 356.44334 363.9053 368.8866 373.8679 377.18544 379.95503 384.9363 392.3983 395.16789 398.4854 402.9088 405.6784 410.6597 413.4293 418.41059 425.8626 430.8439 436.64213 439.4117 443.8351 447.71058 450.48017 453.24977 458.23106 463.21235 468.7914 472.10896 477.09025 480.40779 484.83119 488.1487 492.5721 497.5534 501.9768 508.8809 511.65049 514.4201 522.171 526.5944 532.95059 537.37399 540.6915">tationisusedduringtrainingortesting.Inferencetimesare</tspan></text>
<text xml:space="preserve" transform="matrix(1 0 -0 1 -45.79463 724.5489)" font-size="9.9626" font-family="NimbusRomNo9L"><tspan y="-389.415" x="308.862 316.6129 321.03633 325.45973 329.33518 334.31648 337.634 345.10597 350.08726 357.5592 364.47328 368.34873 371.11833 376.0996 381.0809 383.8505 390.76457 397.95756 402.93885 407.92015 415.3921 422.58509 428.1243 437.80796 445.00096 447.77055 450.54014 458.0121 462.99339 467.97468 474.88874 477.65834 485.40925 489.83265 494.81394 501.728 506.7093 511.1327 516.9409 521.92227 526.34567 529.11526 533.53866 538.51998">measurdonasingleV100GPUwithoneimageperbatch.</tspan></text>
<text xml:space="preserve" transform="matrix(1 0 -0 1 -45.79463 724.5489)" font-size="9.9626" font-family="NimbusRomNo9L" font-weight="bold"><tspan y="-373.56" x="308.862 316.055 321.0363 324.35383 329.3351 333.21058 337.63398 340.9515">Dataset.</tspan></text>
<text xml:space="preserve" transform="matrix(1 0 -0 1 -45.79463 724.5489)" font-size="9.9626" font-family="NimbusRomNo9L"><tspan y="-373.56" x="350.938 358.13099 363.11228 370.38496 378.13587 382.55928 385.32887 390.31016 395.29145 404.23786 407.00746 414.83805 419.0124 423.74464 428.16804 430.93763 435.9189 440.34233 443.1119 447.5353 456.48173 461.463 470.39945 477.59245 482.01585 486.99714 490.8726 495.296 500.8352 505.8165 509.69197 514.11538 517.4329 524.078 531.271 537.9161">OurmethodisevaluatedonDensePose-COCO</tspan></text>
<text xml:space="preserve" transform="matrix(1 0 -0 1 -45.79463 724.5489)" font-size="9.9626" font-family="NimbusRomNo9L"><tspan y="-361.605" x="308.862 313.8433 318.2667 321.0363 325.4597 329.33515 333.75856 338.96897">dataset[</tspan></text>
<text fill="#00ff00" xml:space="preserve" transform="matrix(1 0 -0 1 -45.79463 724.5489)" font-size="9.9626" font-family="NimbusRomNo9L"><tspan y="-361.605" x="342.2865">1</tspan></text>
<text xml:space="preserve" transform="matrix(1 0 -0 1 -45.79463 724.5489)" font-size="9.9626" font-family="NimbusRomNo9L"><tspan y="-361.605" x="347.2678 350.58534 355.5268 362.7198 367.70109 370.47068 374.89408 382.30625 387.28755 391.71095 398.02723 405.77815 410.20155 415.18284 420.16413 424.58753 427.35713 430.1267 437.54884 441.97224 446.95353 451.9348 456.9161 459.6857 464.1091 466.8787 471.3021 478.7242 483.1476 488.1289 491.44645 494.76399 499.18739 503.06285 508.04414 513.02548 518.0068 522.9881 527.4115 532.3928 536.8162 541.2396">],whichhasmanuallyannotatedcorrespondences</tspan></text>
<text xml:space="preserve" transform="matrix(1 0 -0 1 -45.79463 724.5489)" font-size="9.9626" font-family="NimbusRomNo9L"><tspan y="-349.65" x="308.862 313.8433 321.25547 328.10975 331.9852 336.9665 341.94779 345.82325 350.24665 355.4471 360.4284 366.17683 368.93647 373.91777 380.77204 387.41709 394.61009 401.25514 410.879 415.8603 420.2837 423.05329 427.47669 431.35215 435.77555 440.976">onasubsetoftheCOCOdataset[</tspan></text>
<text fill="#00ff00" xml:space="preserve" transform="matrix(1 0 -0 1 -45.79463 724.5489)" font-size="9.9626" font-family="NimbusRomNo9L"><tspan y="-349.65" x="444.2936 449.2749">27</tspan></text>
<text xml:space="preserve" transform="matrix(1 0 -0 1 -45.79463 724.5489)" font-size="9.9626" font-family="NimbusRomNo9L"><tspan y="-349.65" x="454.2562 457.57374 463.13288 469.22004 474.20133 478.62474 481.94227 488.79655 493.21995 496.53749 503.39176 507.81517 512.79647 517.7778 522.7591 527.95956 532.94088 537.9222">].Thereareabout50K</tspan></text>
<text xml:space="preserve" transform="matrix(1 0 -0 1 -45.79463 724.5489)" font-size="9.9626" font-family="NimbusRomNo9L"><tspan y="-337.695" x="308.862 311.6316 316.055 321.0363 325.4597 328.22929 332.65269 341.36 346.34129 351.32258 359.0735 363.4969 372.21415 374.98374 379.96504 383.84049 386.61009 391.03349 396.01478 400.43818 404.86158 412.46305 416.88645 421.30986 425.73326 434.4505 439.4318 446.47535 453.66835 458.64964 461.41923 465.84263 474.55989 477.32948 484.93095 489.35435 494.33564 499.31694 504.29823 507.0678 511.4912 514.2608 518.6842 527.4015 534.5945 537.3641 540.13369">labeledhumaninstanceseachofwhichisannotatedwith</tspan></text>
<text xml:space="preserve" transform="matrix(1 0 -0 1 -45.79463 724.5489)" font-size="9.9626" font-family="NimbusRomNo9L"><tspan y="-325.739" x="308.862 313.8433 318.8246 327.2629 332.2442 337.2255 339.9951 344.97639 347.74598 355.0884 360.0697 368.50804 372.73219 377.56404 381.98744 385.30497 389.72837 394.70967 399.13307 407.62123 410.93876 419.37709 422.14668 427.12797 429.89756 434.32096 437.09056 443.2873 446.0569 451.03819 455.46159 458.7791 466.65956 471.08296 474.40049 482.2809 486.7043 491.6856 496.6669 501.6482 507.87483 516.3231 524.07406 526.8436 529.6132 532.3828 535.1524 540.1337">100pointsonaverage.Intotal,thereareabout5million</tspan></text>
<text xml:space="preserve" transform="matrix(1 0 -0 1 -45.79463 724.5489)" font-size="9.9626" font-family="NimbusRomNo9L"><tspan y="-313.784" x="308.862 316.6129 321.03633 326.0176 330.9989 335.4223 338.1919 340.9615 349.5592 353.9826 358.9639 363.9452 368.92649 371.69609 376.11949 378.88908 383.31248 391.92015 396.34355 401.32484 404.64237 407.9599 412.3833 416.25877 421.24006 426.22135 431.20265 436.18394 440.60734 445.58863 450.01203 454.43544 458.31089 467.27723 473.36439 478.34568 486.39546 491.37675 495.80015 498.56974 502.99314 506.8686 511.292 517.678 520.4476 527.9494 531.8248 536.80618 539.57577 542.34536">manuallyannotatedcorrespondences.Thedatasetissplit</tspan></text>
<text xml:space="preserve" transform="matrix(1 0 -0 1 -45.79463 724.5489)" font-size="9.9626" font-family="NimbusRomNo9L"><tspan y="-301.829" x="308.862 311.6316 316.61289 319.38249 326.84446 333.74855 336.51814 339.83567 344.25907 347.02867 352.00996 354.77955 359.76084 367.2228 371.09828 375.52168 380.78193 385.20533 390.1866 397.6486 404.55268 409.2849 413.7083 416.4779 419.2475 424.2288 428.6522 431.42179 434.19139 439.17268 446.63465 450.5101 454.9335 460.18379 467.37678 470.14637 472.91596 480.37794 485.35923 490.3405 500.02418 502.79377 510.54469 514.9681 519.9494 524.3728 530.72897 535.15237 540.13369">intoatrainingsetandavalidationsetwith32Kimagesand</tspan></text>
<text xml:space="preserve" transform="matrix(1 0 -0 1 -45.79463 724.5489)" font-size="9.9626" font-family="NimbusRomNo9L"><tspan y="-289.874" x="308.862 313.8433 316.33396 321.31526 328.7872 331.5568 339.3077 343.7311 348.7124 353.1358 357.01127 361.99259 365.31013 369.73353 373.60899 378.59028 383.01368 387.43708 390.20668 392.7272 397.55906 401.98246 404.75205 409.08576">1.5kimages,respectively.</tspan></text>
<text xml:space="preserve" transform="matrix(1 0 -0 1 -45.79463 724.5489)" font-size="10.9589" font-family="NimbusRomNo9L" font-weight="bold"><tspan y="-258.249" x="308.862 314.34147 317.08119 322.56065 328.04008 335.9524 341.43186 350.5606 356.65376 362.1332 366.99897 370.04554 374.30854 379.788 385.88114">6.1.Comparisons</tspan></text>
<text xml:space="preserve" transform="matrix(1 0 -0 1 -45.79463 724.5489)" font-size="9.9626" font-family="NimbusRomNo9L"><tspan y="-236.417" x="320.817 329.42469 337.75343 341.92778 346.66 351.0834 353.853 358.8343 363.2577 366.02729 374.35603 377.1256 382.1069 390.43565 395.41694 398.73448 403.71577 408.69706 413.67835 417.5538 421.9772 430.86384 435.28724 440.26853 445.24983 448.56736 451.33695 456.31825 459.63578 464.05918 469.04048 477.9271 485.1201 492.31309 501.75764 505.07518 508.3927 512.8161 520.567 524.74136 531.8347 536.81607 540.1336">Weevaluatetheproposedend-to-endDDPframework</tspan></text>
<text xml:space="preserve" transform="matrix(1 0 -0 1 -45.79463 724.5489)" font-size="9.9626" font-family="NimbusRomNo9L"><tspan y="-224.462" x="308.862 313.8433 321.36506 328.55805 332.98146 337.96275 341.8382 346.2616 351.8008 356.7821 360.65757 365.08097 368.3985 375.04356 382.23655 388.8816 398.625 406.37593 409.1455 414.1268 416.64735 421.37959 425.80299 431.11305 434.9885 439.9698 442.73939 445.50898 450.81904 455.24244 460.22373 467.75544 472.17884 477.16014 484.91105 489.89234 494.31575 497.63328 504.59715 507.36674 512.67678 519.86978 522.63937 525.40896 532.9407 535.71029 540.6916">onDensePose-COCOminivalsplitandcompareitwiththe</tspan></text>
<text xml:space="preserve" transform="matrix(1 0 -0 1 -45.79463 724.5489)" font-size="9.9626" font-family="NimbusRomNo9L"><tspan y="-212.507" x="308.862 314.4012 321.1957 326.35636 336.33888 339.10847 344.08976 349.07106 352.38859 357.36988 362.1021 369.2951 377.05598 384.8069 389.2303 391.99989 396.98118 401.96247 406.94377 413.60874 416.37834 424.1392 429.42936 433.85276 438.83406 441.60365">SOTAtop-downmethodsinTable</tspan></text>
<text fill="#ff0000" xml:space="preserve" transform="matrix(1 0 -0 1 -45.79463 724.5489)" font-size="9.9626" font-family="NimbusRomNo9L"><tspan y="-212.507" x="448.8166">1</tspan></text>
<text xml:space="preserve" transform="matrix(1 0 -0 1 -45.79463 724.5489)" font-size="9.9626" font-family="NimbusRomNo9L"><tspan y="-212.507" x="453.7979 460.26365 467.45664 472.43794 478.53504 486.28596 490.70936 493.47895 498.46025 503.44154 511.21235 515.63577 520.05917 525.04049 527.81008 531.9844 536.8163 541.2397">.Ourmethodachieves</tspan></text>
<text xml:space="preserve" transform="matrix(1 0 -0 1 -45.79463 724.5489)" font-size="9.9626" font-family="NimbusRomNo9L"><tspan y="-200.552" x="308.862 313.8433 318.8246 321.31526 326.29655 338.83949 346.03248 355.81578 360.23918 365.22047 374.44584 379.42713 384.40843 386.89909 391.88038 404.4233 411.6163 422.50544 429.69844 432.46803 435.2376 444.46299 451.10804 455.53144 459.4069 466.59989 471.0233 473.79289 477.1104 482.0917 487.073 497.92228 504.00944 508.99073 517.6582 522.6395 527.0629 530.3805 533.69808 538.6794 541.79769">64.0%APand70.9%ARwithResNet-50.Theperfor-</tspan></text>
<text xml:space="preserve" transform="matrix(1 0 -0 1 -45.79463 724.5489)" font-size="9.9626" font-family="NimbusRomNo9L"><tspan y="-188.596" x="308.862 316.6129 321.03633 326.0176 330.441 339.7162 344.69749 352.8668 357.84809 362.82939 370.9987 378.7496 383.7309 388.7122 393.1356 400.75697 403.52656 412.25379 417.23509 421.65849 424.42808 427.19767 431.62107 439.79039 442.55998 447.54127 451.96467 461.8077 464.5773 469.5586 478.83378 482.70924 485.47883 488.79637 493.77766 498.75895 508.592 513.5733 517.9967 521.87216 526.29556 529.0651 531.8347 536.81607 541.23947">manceofourmodelisbetterthanthestrongbaselines</tspan></text>
<text xml:space="preserve" transform="matrix(1 0 -0 1 -45.79463 724.5489)" font-size="9.9626" font-family="NimbusRomNo9L"><tspan y="-176.641" x="308.862 316.055 321.5942 324.91175 329.33515 333.75856 337.634 342.0574 346.4808 351.4621 359.79084">DP-cascade[</tspan></text>
<text fill="#00ff00" xml:space="preserve" transform="matrix(1 0 -0 1 -45.79463 724.5489)" font-size="9.9626" font-family="NimbusRomNo9L"><tspan y="-176.641" x="363.1084">1</tspan></text>
<text xml:space="preserve" transform="matrix(1 0 -0 1 -45.79463 724.5489)" font-size="9.9626" font-family="NimbusRomNo9L"><tspan y="-176.641" x="368.0897 375.32255 378.64009 383.62138 388.60267 391.09333 396.07463 408.2788 413.2601 417.13557 426.96867 431.94996 436.93125 439.4219 444.4032 456.61738 463.81037 469.34959 476.57246 480.99586 485.97715 494.86378 500.25355 504.67695 507.99449 511.86994 514.6395 519.62088 528.51748">](64.0%vs.55.8%AP)andParsing[</tspan></text>
<text fill="#00ff00" xml:space="preserve" transform="matrix(1 0 -0 1 -45.79463 724.5489)" font-size="9.9626" font-family="NimbusRomNo9L"><tspan y="-176.641" x="531.835 536.81637">54</tspan></text>
<text xml:space="preserve" transform="matrix(1 0 -0 1 -45.79463 724.5489)" font-size="9.9626" font-family="NimbusRomNo9L"><tspan y="-176.641" x="541.7976">]</tspan></text>
<text xml:space="preserve" transform="matrix(1 0 -0 1 -45.79463 724.5489)" font-size="9.9626" font-family="NimbusRomNo9L"><tspan y="-164.686" x="308.862 312.17955 317.16084 322.14213 324.63279 329.61408 339.89549 344.87678 348.75224 354.16194 359.14323 364.1245 366.61518 371.59648 381.87788 389.07087 394.61009 397.9276 402.40083 406.82423 411.8055 418.76936 421.53895 427.39695 431.82035 436.80165 444.55256 449.53385 453.95726 457.27479 461.69819 466.67948 469.44908 475.855 478.6246 485.58845 492.78144 501.63819 508.83119 512.14877 519.34176 523.76516 528.5173">(64.0%vs.61.6%AP),andiscomparabletoAMA-Net[</tspan></text>
<text fill="#00ff00" xml:space="preserve" transform="matrix(1 0 -0 1 -45.79463 724.5489)" font-size="9.9626" font-family="NimbusRomNo9L"><tspan y="-164.686" x="531.835 536.81637">13</tspan></text>
<text xml:space="preserve" transform="matrix(1 0 -0 1 -45.79463 724.5489)" font-size="9.9626" font-family="NimbusRomNo9L"><tspan y="-164.686" x="541.7976">]</tspan></text>
<text xml:space="preserve" transform="matrix(1 0 -0 1 -45.79463 724.5489)" font-size="9.9626" font-family="NimbusRomNo9L"><tspan y="-152.731" x="308.862 312.17955 317.16084 322.14213 324.63279 329.61408 341.13087 346.11216 349.9876 357.74848 362.72978 367.71107 370.20173 375.183 386.6998 393.8928 399.432 402.74955 408.45814 415.65113 420.63243 427.16789 434.9188 439.9001 444.88139 449.30479 455.2923 458.0619 465.16523 469.04069 471.81028 474.57987 477.34947 483.33699 488.31828 492.74168 497.72297 500.49256 505.47386 513.67306 516.4426 521.42398 529.06527 531.83486 536.81619 541.7975">(64.0%vs.64.1%AP).Ourmodelisstillbehindthetop-</tspan></text>
<text xml:space="preserve" transform="matrix(1 0 -0 1 -45.79463 724.5489)" font-size="9.9626" font-family="NimbusRomNo9L"><tspan y="-140.776" x="308.862 313.8433 318.2667 321.58424 324.90177 329.88307 333.2006 340.9515 343.7211 348.7024 357.19053 359.9601 364.9414 369.9227 373.24024 378.22154 382.95378 390.14677 398.6349 406.3858 410.8092 413.5788 418.5601 423.54139 428.52268 435.90498 443.09797 449.18513 459.88496">performingtop-downmethodsKTN[</tspan></text>
<text fill="#00ff00" xml:space="preserve" transform="matrix(1 0 -0 1 -45.79463 724.5489)" font-size="9.9626" font-family="NimbusRomNo9L"><tspan y="-140.776" x="463.2026 468.1839">48</tspan></text>
<text xml:space="preserve" transform="matrix(1 0 -0 1 -45.79463 724.5489)" font-size="9.9626" font-family="NimbusRomNo9L"><tspan y="-140.776" x="473.1652 479.98957 484.41297 489.39427 497.8824 505.07539 514.1214 520.7665 524.08407 530.7291 537.9221">]andDPR-CNN</tspan></text>
<text xml:space="preserve" transform="matrix(1 0 -0 1 -45.79463 724.5489)" font-size="9.9626" font-family="NimbusRomNo9L"><tspan y="-128.82" x="308.862 316.055 320.4784 324.9018 329.8831 335.97026 340.39366 349.68876">DeepLab[</tspan></text>
<text fill="#00ff00" xml:space="preserve" transform="matrix(1 0 -0 1 -45.79463 724.5489)" font-size="9.9626" font-family="NimbusRomNo9L"><tspan y="-128.82" x="353.0063 357.98759">32</tspan></text>
<text xml:space="preserve" transform="matrix(1 0 -0 1 -45.79463 724.5489)" font-size="9.9626" font-family="NimbusRomNo9L"><tspan y="-128.82" x="362.9689 366.28645 377.325 384.518 388.69236 393.5242 397.9476 401.26515 404.03474 409.01603 413.43943 416.209 420.63243 424.50788 428.38334 435.6461 438.41569 445.4891 448.2587 456.44798 463.54133 468.5226 471.84016 474.60975 483.90486 488.88615 493.86744 496.63703 499.40663 504.3879 513.683 516.4526 521.4339 525.8573 532.9407 535.71029 540.6916">].Nevertheless,itisworthnotingthatthe</tspan></text>
<text xml:space="preserve" transform="matrix(1 0 -0 1 -45.79463 724.5489)" font-size="9.9626" font-family="NimbusRomNo9L"><tspan y="-116.865" x="308.862 311.6316 316.61289 321.59419 324.9117 329.893 334.62525 341.81825 349.06105 352.9365 355.7061 359.02363 363.44703 366.2166 370.49058 375.47187 382.71467 386.59013 391.5714 394.6399 397.95744 402.38084 405.69837 411.82539 415.1429 418.46046 423.44175 433.45417 436.22377 441.20506 447.88996 452.31336 456.73677 460.0543 462.82389 470.06669 474.49009 479.47138 487.2223 494.9732 497.7428 500.5124 508.2633 512.6867 517.668 522.69918 525.46878 529.3442 533.2196 538.2009 542.6243">top-downstrategysuffersfromtheearlycommitmentissue,</tspan></text>
<text xml:space="preserve" transform="matrix(1 0 -0 1 -45.79463 724.5489)" font-size="9.9626" font-family="NimbusRomNo9L"><tspan y="-104.91" x="308.862 313.69386 318.5257 322.9491 326.26664 329.03623 333.45964 341.24043 345.66383 353.41474 358.39604 361.16563 366.1469 371.1282 373.8978 376.6674 379.43699 383.86039 390.53535 394.95875 401.6337 405.50917 410.49046 415.2227 422.41569 430.19648 432.96607 440.74687 446.28608 449.05567 454.03697">overlapambiguitiesasshowninFig.</tspan></text>
<text fill="#ff0000" xml:space="preserve" transform="matrix(1 0 -0 1 -45.79463 724.5489)" font-size="9.9626" font-family="NimbusRomNo9L"><tspan y="-104.91" x="459.3271">1</tspan></text>
<text xml:space="preserve" transform="matrix(1 0 -0 1 -45.79463 724.5489)" font-size="9.9626" font-family="NimbusRomNo9L"><tspan y="-104.91" x="464.3084 470.814 477.45906 481.88246 485.7579 488.5275 493.5088 497.9322 501.80766 507.1775 509.94709 514.9284 519.9097 523.2273 528.2086 532.94088 540.13388">.Besides,top-down</tspan></text>
<text xml:space="preserve" transform="matrix(1 0 -0 1 -45.79463 724.5489)" font-size="9.9626" font-family="NimbusRomNo9L"><tspan y="-92.955" x="308.862 316.6129 321.03633 323.8059 328.7872 333.7685 338.7498 345.1657 348.48326 353.46455 360.9863 364.86177 367.63136 372.3636 379.55659 383.97999 389.83799 392.60758 400.11936 402.88896 407.31236 410.45057 415.43186 419.85527 425.71327 433.46418 438.44548 441.21507 443.98466 446.75425 450.07179 455.05308 459.47648 462.794 466.66947 471.65077 479.17253 483.04798 487.47138 491.89479 496.87608 501.29948 507.7154 512.1388 517.1201 524.6419 529.0653 534.04666 541.79757">methodsrunslowerinlargermulti-personscenesandcom-</tspan></text>
<text xml:space="preserve" transform="matrix(1 0 -0 1 -45.79463 724.5489)" font-size="9.9626" font-family="NimbusRomNo9L"><tspan y="-81" x="308.862 313.8433 317.16084 321.58424 325.4597 331.8258 334.5954 342.3463 346.7697 351.751 358.66508 361.9826 366.406 370.28147 375.26277 378.03236 383.01365 385.78324 388.55284 393.53413 401.00608 405.98738 410.41078 414.63493 419.6162 422.3858 425.1554 429.4891">pressimageresolutionheavily.</tspan></text>
</g>
<clipPath id="cp1">
<path transform="matrix(0,0,0,0,-44.79463,-63.45111)" d="M 0 0 L 0 0 Z "/>
</clipPath>
<g clip-path="url(#cp1)">
</g>
</g>
</svg>
