<?xml version="1.0" encoding="UTF-8" standalone="no"?>
<svg
   xmlns:dc="http://purl.org/dc/elements/1.1/"
   xmlns:cc="http://creativecommons.org/ns#"
   xmlns:rdf="http://www.w3.org/1999/02/22-rdf-syntax-ns#"
   xmlns:svg="http://www.w3.org/2000/svg"
   xmlns="http://www.w3.org/2000/svg"
   viewBox="0 0 816 403.65067"
   height="403.65067"
   width="816"
   xml:space="preserve"
   id="svg2"
   version="1.1"><metadata
     id="metadata8"><rdf:RDF><cc:Work
         rdf:about=""><dc:format>image/svg+xml</dc:format><dc:type
           rdf:resource="http://purl.org/dc/dcmitype/StillImage" /></cc:Work></rdf:RDF></metadata><defs
     id="defs6"><clipPath
       id="clipPath14"
       clipPathUnits="userSpaceOnUse"><path
         id="path12"
         d="M 0,0 H 612 V 792 H 0 Z" /></clipPath><clipPath
       id="clipPath24"
       clipPathUnits="userSpaceOnUse"><path
         id="path22"
         d="M 0,245.0701 H 612 V 546.9298 H 0 Z" /></clipPath><clipPath
       id="clipPath194"
       clipPathUnits="userSpaceOnUse"><path
         id="path192"
         d="m 58.96485,270.8648 h 552.0723 V 545.1201 H 58.96485 Z" /></clipPath><clipPath
       id="clipPath206"
       clipPathUnits="userSpaceOnUse"><path
         id="path204"
         d="m 58.96485,270.8648 h 552.0723 V 545.1201 H 58.96485 Z" /></clipPath><clipPath
       id="clipPath218"
       clipPathUnits="userSpaceOnUse"><path
         id="path216"
         d="m 58.96485,270.8648 h 552.0723 V 545.1201 H 58.96485 Z" /></clipPath><clipPath
       id="clipPath230"
       clipPathUnits="userSpaceOnUse"><path
         id="path228"
         d="m 58.96485,270.8648 h 552.0723 V 545.1201 H 58.96485 Z" /></clipPath><clipPath
       id="clipPath242"
       clipPathUnits="userSpaceOnUse"><path
         id="path240"
         d="M 0,245.0701 H 612 V 546.9298 H 0 Z" /></clipPath></defs><g
     clip-path="url(#clipPath14)"
     transform="matrix(1.3333333,0,0,-1.3333333,0,729.9116)"
     id="g10"><g
       id="g16" /><g
       id="g18"><g
         clip-path="url(#clipPath24)"
         id="g20"><path
           id="path26"
           style="fill:#ffffff;fill-opacity:1;fill-rule:nonzero;stroke:none"
           d="m -30.07907,231.6855 h 712.3514 v 356.1757 h -712.3514 z" /><path
           id="path28"
           style="fill:#ffffff;fill-opacity:1;fill-rule:nonzero;stroke:none"
           d="m 58.96485,270.8648 h 552.0723 V 545.1201 H 58.96485 Z" /><g
           transform="matrix(1.648962,0,0,1.648962,-30.07907,231.6855)"
           id="g30"><path
             id="path32"
             style="fill:#000000;fill-opacity:1;fill-rule:nonzero;stroke:#000000;stroke-width:0.80000001;stroke-linecap:butt;stroke-linejoin:round;stroke-miterlimit:10;stroke-dasharray:none;stroke-opacity:1"
             d="m 69.21818,23.76 v -3.5" /></g><path
           id="path34"
           style="fill:#000000;fill-opacity:1;fill-rule:nonzero;stroke:none"
           d="m 76.18835,257.7494 c -0.84097,0 -1.46758,-0.4122 -1.89631,-1.2367 -0.42873,-0.8245 -0.6266,-2.0612 -0.6266,-3.7102 0,-1.6489 0.19787,-2.8857 0.6266,-3.7101 0.42873,-0.8245 1.05534,-1.2368 1.89631,-1.2368 0.84097,0 1.46758,0.4123 1.89631,1.2368 0.41224,0.8244 0.6266,2.0612 0.6266,3.7101 0,1.649 -0.21436,2.8857 -0.6266,3.7102 -0.42873,0.8245 -1.05534,1.2367 -1.89631,1.2367 m 0,1.2862 c 1.33566,0 2.35801,-0.5442 3.08356,-1.5995 0.70905,-1.0718 1.07182,-2.6218 1.07182,-4.6336 0,-2.0282 -0.36277,-3.5782 -1.07182,-4.6336 -0.72555,-1.0553 -1.7479,-1.583 -3.08356,-1.583 -1.35215,0 -2.39099,0.5277 -3.10005,1.583 -0.70905,1.0554 -1.05533,2.6054 -1.05533,4.6336 0,2.0118 0.34628,3.5618 1.05533,4.6336 0.70906,1.0553 1.7479,1.5995 3.10005,1.5995" /><path
           id="path36"
           style="fill:#000000;fill-opacity:1;fill-rule:nonzero;stroke:none"
           d="m 83.19644,248.845 h 1.69843 v -2.0447 h -1.69843 v 2.0447" /><path
           id="path38"
           style="fill:#000000;fill-opacity:1;fill-rule:nonzero;stroke:none"
           d="m 91.91944,257.7494 c -0.84097,0 -1.46757,-0.4122 -1.8963,-1.2367 -0.42873,-0.8245 -0.62661,-2.0612 -0.62661,-3.7102 0,-1.6489 0.19788,-2.8857 0.62661,-3.7101 0.42873,-0.8245 1.05533,-1.2368 1.8963,-1.2368 0.84097,0 1.46758,0.4123 1.89631,1.2368 0.41224,0.8244 0.6266,2.0612 0.6266,3.7101 0,1.649 -0.21436,2.8857 -0.6266,3.7102 -0.42873,0.8245 -1.05534,1.2367 -1.89631,1.2367 m 0,1.2862 c 1.33566,0 2.35802,-0.5442 3.08356,-1.5995 0.70905,-1.0718 1.07183,-2.6218 1.07183,-4.6336 0,-2.0282 -0.36278,-3.5782 -1.07183,-4.6336 -0.72554,-1.0553 -1.7479,-1.583 -3.08356,-1.583 -1.35215,0 -2.39099,0.5277 -3.10005,1.583 -0.70905,1.0554 -1.05533,2.6054 -1.05533,4.6336 0,2.0118 0.34628,3.5618 1.05533,4.6336 0.70906,1.0553 1.7479,1.5995 3.10005,1.5995" /><g
           transform="matrix(1.648962,0,0,1.648962,-30.07907,231.6855)"
           id="g40"><path
             id="path42"
             style="fill:#000000;fill-opacity:1;fill-rule:nonzero;stroke:#000000;stroke-width:0.80000001;stroke-linecap:butt;stroke-linejoin:round;stroke-miterlimit:10;stroke-dasharray:none;stroke-opacity:1"
             d="m 130.0909,23.76 v -3.5" /></g><path
           id="path44"
           style="fill:#000000;fill-opacity:1;fill-rule:nonzero;stroke:none"
           d="m 176.5651,257.7494 c -0.8409,0 -1.4675,-0.4122 -1.8963,-1.2367 -0.4287,-0.8245 -0.6266,-2.0612 -0.6266,-3.7102 0,-1.6489 0.1979,-2.8857 0.6266,-3.7101 0.4288,-0.8245 1.0554,-1.2368 1.8963,-1.2368 0.841,0 1.4676,0.4123 1.8963,1.2368 0.4123,0.8244 0.6266,2.0612 0.6266,3.7101 0,1.649 -0.2143,2.8857 -0.6266,3.7102 -0.4287,0.8245 -1.0553,1.2367 -1.8963,1.2367 m 0,1.2862 c 1.3357,0 2.358,-0.5442 3.0836,-1.5995 0.709,-1.0718 1.0718,-2.6218 1.0718,-4.6336 0,-2.0282 -0.3628,-3.5782 -1.0718,-4.6336 -0.7256,-1.0553 -1.7479,-1.583 -3.0836,-1.583 -1.3521,0 -2.391,0.5277 -3.1,1.583 -0.7091,1.0554 -1.0553,2.6054 -1.0553,4.6336 0,2.0118 0.3462,3.5618 1.0553,4.6336 0.709,1.0553 1.7479,1.5995 3.1,1.5995" /><path
           id="path46"
           style="fill:#000000;fill-opacity:1;fill-rule:nonzero;stroke:none"
           d="m 183.5732,248.845 h 1.6985 v -2.0447 h -1.6985 v 2.0447" /><path
           id="path48"
           style="fill:#000000;fill-opacity:1;fill-rule:nonzero;stroke:none"
           d="m 189.0972,248.1689 h 2.6549 v 9.1683 l -2.8857,-0.5772 v 1.4841 l 2.8692,0.5771 h 1.6325 v -10.6523 h 2.6548 v -1.3686 h -6.9257 v 1.3686" /><g
           transform="matrix(1.648962,0,0,1.648962,-30.07907,231.6855)"
           id="g50"><path
             id="path52"
             style="fill:#000000;fill-opacity:1;fill-rule:nonzero;stroke:#000000;stroke-width:0.80000001;stroke-linecap:butt;stroke-linejoin:round;stroke-miterlimit:10;stroke-dasharray:none;stroke-opacity:1"
             d="m 190.9636,23.76 v -3.5" /></g><path
           id="path54"
           style="fill:#000000;fill-opacity:1;fill-rule:nonzero;stroke:none"
           d="m 276.9419,257.7494 c -0.841,0 -1.4676,-0.4122 -1.8963,-1.2367 -0.4287,-0.8245 -0.6266,-2.0612 -0.6266,-3.7102 0,-1.6489 0.1979,-2.8857 0.6266,-3.7101 0.4287,-0.8245 1.0553,-1.2368 1.8963,-1.2368 0.841,0 1.4676,0.4123 1.8963,1.2368 0.4123,0.8244 0.6266,2.0612 0.6266,3.7101 0,1.649 -0.2143,2.8857 -0.6266,3.7102 -0.4287,0.8245 -1.0553,1.2367 -1.8963,1.2367 m 0,1.2862 c 1.3357,0 2.358,-0.5442 3.0836,-1.5995 0.709,-1.0718 1.0718,-2.6218 1.0718,-4.6336 0,-2.0282 -0.3628,-3.5782 -1.0718,-4.6336 -0.7256,-1.0553 -1.7479,-1.583 -3.0836,-1.583 -1.3521,0 -2.391,0.5277 -3.1,1.583 -0.7091,1.0554 -1.0554,2.6054 -1.0554,4.6336 0,2.0118 0.3463,3.5618 1.0554,4.6336 0.709,1.0553 1.7479,1.5995 3.1,1.5995" /><path
           id="path56"
           style="fill:#000000;fill-opacity:1;fill-rule:nonzero;stroke:none"
           d="m 283.95,248.845 h 1.6984 v -2.0447 H 283.95 v 2.0447" /><path
           id="path58"
           style="fill:#000000;fill-opacity:1;fill-rule:nonzero;stroke:none"
           d="m 290.5953,248.1689 h 5.6724 v -1.3686 h -7.6346 v 1.3686 c 0.6101,0.6267 1.451,1.4841 2.5229,2.5724 1.0553,1.0719 1.7314,1.7644 2.0117,2.0777 0.5277,0.5772 0.8904,1.0718 1.0883,1.4841 0.1979,0.3957 0.3133,0.808 0.3133,1.2037 0,0.6266 -0.2308,1.1543 -0.6761,1.5501 -0.4452,0.3957 -1.0223,0.6101 -1.7479,0.6101 -0.5111,0 -1.0553,-0.099 -1.6159,-0.2639 -0.5607,-0.1814 -1.1708,-0.4452 -1.8139,-0.808 v 1.649 c 0.6596,0.2638 1.2697,0.4617 1.8304,0.5936 0.5606,0.1319 1.0883,0.1979 1.5665,0.1979 1.2367,0 2.2261,-0.3133 2.9681,-0.9399 0.742,-0.6266 1.1213,-1.4511 1.1213,-2.4899 0,-0.4947 -0.0989,-0.9729 -0.2803,-1.4017 -0.1814,-0.4452 -0.5112,-0.9728 -1.0059,-1.5665 -0.1319,-0.1649 -0.5606,-0.6101 -1.2862,-1.3521 -0.7255,-0.742 -1.7314,-1.7809 -3.0341,-3.1166" /><g
           transform="matrix(1.648962,0,0,1.648962,-30.07907,231.6855)"
           id="g60"><path
             id="path62"
             style="fill:#000000;fill-opacity:1;fill-rule:nonzero;stroke:#000000;stroke-width:0.80000001;stroke-linecap:butt;stroke-linejoin:round;stroke-miterlimit:10;stroke-dasharray:none;stroke-opacity:1"
             d="m 251.8364,23.76 v -3.5" /></g><path
           id="path64"
           style="fill:#000000;fill-opacity:1;fill-rule:nonzero;stroke:none"
           d="m 377.3187,257.7494 c -0.841,0 -1.4676,-0.4122 -1.8963,-1.2367 -0.4287,-0.8245 -0.6266,-2.0612 -0.6266,-3.7102 0,-1.6489 0.1979,-2.8857 0.6266,-3.7101 0.4287,-0.8245 1.0553,-1.2368 1.8963,-1.2368 0.841,0 1.4676,0.4123 1.8963,1.2368 0.4123,0.8244 0.6266,2.0612 0.6266,3.7101 0,1.649 -0.2143,2.8857 -0.6266,3.7102 -0.4287,0.8245 -1.0553,1.2367 -1.8963,1.2367 m 0,1.2862 c 1.3357,0 2.358,-0.5442 3.0836,-1.5995 0.709,-1.0718 1.0718,-2.6218 1.0718,-4.6336 0,-2.0282 -0.3628,-3.5782 -1.0718,-4.6336 -0.7256,-1.0553 -1.7479,-1.583 -3.0836,-1.583 -1.3521,0 -2.391,0.5277 -3.1,1.583 -0.7091,1.0554 -1.0554,2.6054 -1.0554,4.6336 0,2.0118 0.3463,3.5618 1.0554,4.6336 0.709,1.0553 1.7479,1.5995 3.1,1.5995" /><path
           id="path66"
           style="fill:#000000;fill-opacity:1;fill-rule:nonzero;stroke:none"
           d="m 384.3268,248.845 h 1.6984 v -2.0447 h -1.6984 v 2.0447" /><path
           id="path68"
           style="fill:#000000;fill-opacity:1;fill-rule:nonzero;stroke:none"
           d="m 394.5009,253.2807 c 0.775,-0.1649 1.3851,-0.5111 1.8138,-1.0388 0.4288,-0.5277 0.6596,-1.1873 0.6596,-1.9458 0,-1.1872 -0.4122,-2.1107 -1.2202,-2.7538 -0.8245,-0.6431 -1.9788,-0.9564 -3.4793,-0.9564 -0.5112,0 -1.0389,0.0495 -1.5665,0.1485 -0.5277,0.0824 -1.0883,0.2308 -1.649,0.4287 v 1.5665 c 0.4452,-0.2638 0.9399,-0.4617 1.4841,-0.5936 0.5276,-0.1319 1.0883,-0.1979 1.6819,-0.1979 1.0224,0 1.7974,0.1979 2.3251,0.5936 0.5276,0.3958 0.8079,0.9894 0.8079,1.7644 0,0.6926 -0.2473,1.2532 -0.742,1.649 -0.4947,0.3957 -1.1872,0.6101 -2.0777,0.6101 h -1.4016 v 1.3356 h 1.4676 c 0.7915,0 1.4016,0.1485 1.8303,0.4782 0.4288,0.3133 0.6431,0.7751 0.6431,1.3852 0,0.6101 -0.2308,1.0883 -0.6596,1.4181 -0.4452,0.3298 -1.0718,0.4947 -1.8798,0.4947 -0.4452,0 -0.9234,-0.0495 -1.4346,-0.1484 -0.5112,-0.099 -1.0718,-0.2474 -1.6819,-0.4453 v 1.4511 c 0.6101,0.1649 1.1872,0.2968 1.7314,0.3793 0.5277,0.0824 1.0388,0.1319 1.5335,0.1319 1.2203,0 2.1931,-0.2803 2.9187,-0.841 0.7255,-0.5606 1.0883,-1.3191 1.0883,-2.2755 0,-0.6596 -0.1979,-1.2203 -0.5771,-1.682 -0.3793,-0.4617 -0.9235,-0.7915 -1.616,-0.9564" /><g
           transform="matrix(1.648962,0,0,1.648962,-30.07907,231.6855)"
           id="g70"><path
             id="path72"
             style="fill:#000000;fill-opacity:1;fill-rule:nonzero;stroke:#000000;stroke-width:0.80000001;stroke-linecap:butt;stroke-linejoin:round;stroke-miterlimit:10;stroke-dasharray:none;stroke-opacity:1"
             d="m 312.7091,23.76 v -3.5" /></g><path
           id="path74"
           style="fill:#000000;fill-opacity:1;fill-rule:nonzero;stroke:none"
           d="m 477.6955,257.7494 c -0.841,0 -1.4676,-0.4122 -1.8963,-1.2367 -0.4287,-0.8245 -0.6266,-2.0612 -0.6266,-3.7102 0,-1.6489 0.1979,-2.8857 0.6266,-3.7101 0.4287,-0.8245 1.0553,-1.2368 1.8963,-1.2368 0.841,0 1.4676,0.4123 1.8963,1.2368 0.4122,0.8244 0.6266,2.0612 0.6266,3.7101 0,1.649 -0.2144,2.8857 -0.6266,3.7102 -0.4287,0.8245 -1.0553,1.2367 -1.8963,1.2367 m 0,1.2862 c 1.3356,0 2.358,-0.5442 3.0835,-1.5995 0.7091,-1.0718 1.0719,-2.6218 1.0719,-4.6336 0,-2.0282 -0.3628,-3.5782 -1.0719,-4.6336 -0.7255,-1.0553 -1.7479,-1.583 -3.0835,-1.583 -1.3522,0 -2.391,0.5277 -3.1001,1.583 -0.709,1.0554 -1.0553,2.6054 -1.0553,4.6336 0,2.0118 0.3463,3.5618 1.0553,4.6336 0.7091,1.0553 1.7479,1.5995 3.1001,1.5995" /><path
           id="path76"
           style="fill:#000000;fill-opacity:1;fill-rule:nonzero;stroke:none"
           d="m 484.7036,248.845 h 1.6984 v -2.0447 h -1.6984 v 2.0447" /><path
           id="path78"
           style="fill:#000000;fill-opacity:1;fill-rule:nonzero;stroke:none"
           d="m 494.416,257.4031 -4.106,-6.4144 h 4.106 v 6.4144 m -0.4288,1.4181 h 2.0447 v -7.8325 h 1.715 v -1.3522 h -1.715 v -2.8362 h -1.6159 v 2.8362 h -5.4251 v 1.5665 l 4.9963,7.6182" /><g
           transform="matrix(1.648962,0,0,1.648962,-30.07907,231.6855)"
           id="g80"><path
             id="path82"
             style="fill:#000000;fill-opacity:1;fill-rule:nonzero;stroke:#000000;stroke-width:0.80000001;stroke-linecap:butt;stroke-linejoin:round;stroke-miterlimit:10;stroke-dasharray:none;stroke-opacity:1"
             d="m 373.5818,23.76 v -3.5" /></g><path
           id="path84"
           style="fill:#000000;fill-opacity:1;fill-rule:nonzero;stroke:none"
           d="m 578.0723,257.7494 c -0.841,0 -1.4676,-0.4122 -1.8963,-1.2367 -0.4288,-0.8245 -0.6266,-2.0612 -0.6266,-3.7102 0,-1.6489 0.1978,-2.8857 0.6266,-3.7101 0.4287,-0.8245 1.0553,-1.2368 1.8963,-1.2368 0.8409,0 1.4676,0.4123 1.8963,1.2368 0.4122,0.8244 0.6266,2.0612 0.6266,3.7101 0,1.649 -0.2144,2.8857 -0.6266,3.7102 -0.4287,0.8245 -1.0554,1.2367 -1.8963,1.2367 m 0,1.2862 c 1.3356,0 2.358,-0.5442 3.0835,-1.5995 0.7091,-1.0718 1.0719,-2.6218 1.0719,-4.6336 0,-2.0282 -0.3628,-3.5782 -1.0719,-4.6336 -0.7255,-1.0553 -1.7479,-1.583 -3.0835,-1.583 -1.3522,0 -2.391,0.5277 -3.1001,1.583 -0.709,1.0554 -1.0553,2.6054 -1.0553,4.6336 0,2.0118 0.3463,3.5618 1.0553,4.6336 0.7091,1.0553 1.7479,1.5995 3.1001,1.5995" /><path
           id="path86"
           style="fill:#000000;fill-opacity:1;fill-rule:nonzero;stroke:none"
           d="m 585.0804,248.845 h 1.6984 v -2.0447 h -1.6984 v 2.0447" /><path
           id="path88"
           style="fill:#000000;fill-opacity:1;fill-rule:nonzero;stroke:none"
           d="m 590.3405,258.8212 h 6.3815 v -1.3686 h -4.8974 v -2.9516 c 0.2309,0.0824 0.4782,0.1484 0.7091,0.1813 0.2308,0.033 0.4782,0.066 0.709,0.066 1.3357,0 2.391,-0.3793 3.1825,-1.1048 0.7915,-0.742 1.1873,-1.7314 1.1873,-2.9846 0,-1.3027 -0.4123,-2.3086 -1.2203,-3.0176 -0.808,-0.7091 -1.9457,-1.0554 -3.3968,-1.0554 -0.5112,0 -1.0224,0.0495 -1.55,0.1155 -0.5277,0.0824 -1.0554,0.1978 -1.616,0.3792 v 1.6325 c 0.4782,-0.2638 0.9729,-0.4617 1.5005,-0.5936 0.5112,-0.1319 1.0554,-0.1814 1.6325,-0.1814 0.9234,0 1.6654,0.2308 2.2096,0.7255 0.5277,0.4947 0.808,1.1543 0.808,1.9953 0,0.8245 -0.2803,1.484 -0.808,1.9787 -0.5442,0.4947 -1.2862,0.7421 -2.2096,0.7421 -0.4287,0 -0.874,-0.0495 -1.3027,-0.1484 -0.4287,-0.099 -0.8739,-0.2474 -1.3192,-0.4453 v 6.0352" /><g
           transform="matrix(1.648962,0,0,1.648962,-30.07907,231.6855)"
           id="g90"><path
             id="path92"
             style="fill:#000000;fill-opacity:1;fill-rule:nonzero;stroke:#000000;stroke-width:0.80000001;stroke-linecap:butt;stroke-linejoin:round;stroke-miterlimit:10;stroke-dasharray:none;stroke-opacity:1"
             d="M 54,30.70997 H 50.5" /></g><path
           id="path94"
           style="fill:#000000;fill-opacity:1;fill-rule:nonzero;stroke:none"
           d="m 5.464296,287.0133 c -0.840971,0 -1.467576,-0.4123 -1.896306,-1.2367 -0.42873,-0.8245 -0.626605,-2.0612 -0.626605,-3.7102 0,-1.649 0.197875,-2.8857 0.626605,-3.7102 0.42873,-0.8245 1.055335,-1.2367 1.896306,-1.2367 0.84097,0 1.467575,0.4122 1.896305,1.2367 0.412241,0.8245 0.626606,2.0612 0.626606,3.7102 0,1.649 -0.214365,2.8857 -0.626606,3.7102 -0.42873,0.8244 -1.055335,1.2367 -1.896305,1.2367 m 0,1.2862 c 1.335659,0 2.358015,-0.5442 3.083558,-1.5995 0.709053,-1.0719 1.071825,-2.6219 1.071825,-4.6336 0,-2.0282 -0.362772,-3.5783 -1.071825,-4.6336 -0.725543,-1.0553 -1.747899,-1.583 -3.083558,-1.583 -1.352149,0 -2.390994,0.5277 -3.100048,1.583 -0.709053,1.0553 -1.055335,2.6054 -1.055335,4.6336 0,2.0117 0.346282,3.5617 1.055335,4.6336 0.709054,1.0553 1.747899,1.5995 3.100048,1.5995" /><path
           id="path96"
           style="fill:#000000;fill-opacity:1;fill-rule:nonzero;stroke:none"
           d="m 12.47238,278.1089 h 1.69843 v -2.0447 h -1.69843 v 2.0447" /><path
           id="path98"
           style="fill:#000000;fill-opacity:1;fill-rule:nonzero;stroke:none"
           d="m 21.19539,287.0133 c -0.84097,0 -1.46758,-0.4123 -1.89631,-1.2367 -0.42873,-0.8245 -0.6266,-2.0612 -0.6266,-3.7102 0,-1.649 0.19787,-2.8857 0.6266,-3.7102 0.42873,-0.8245 1.05534,-1.2367 1.89631,-1.2367 0.84097,0 1.46757,0.4122 1.8963,1.2367 0.41224,0.8245 0.62661,2.0612 0.62661,3.7102 0,1.649 -0.21437,2.8857 -0.62661,3.7102 -0.42873,0.8244 -1.05533,1.2367 -1.8963,1.2367 m 0,1.2862 c 1.33566,0 2.35801,-0.5442 3.08356,-1.5995 0.70905,-1.0719 1.07182,-2.6219 1.07182,-4.6336 0,-2.0282 -0.36277,-3.5783 -1.07182,-4.6336 -0.72555,-1.0553 -1.7479,-1.583 -3.08356,-1.583 -1.35215,0 -2.391,0.5277 -3.10005,1.583 -0.70905,1.0553 -1.05533,2.6054 -1.05533,4.6336 0,2.0117 0.34628,3.5617 1.05533,4.6336 0.70905,1.0553 1.7479,1.5995 3.10005,1.5995" /><path
           id="path100"
           style="fill:#000000;fill-opacity:1;fill-rule:nonzero;stroke:none"
           d="m 31.68278,287.0133 c -0.84097,0 -1.46757,-0.4123 -1.8963,-1.2367 -0.42873,-0.8245 -0.62661,-2.0612 -0.62661,-3.7102 0,-1.649 0.19788,-2.8857 0.62661,-3.7102 0.42873,-0.8245 1.05533,-1.2367 1.8963,-1.2367 0.84097,0 1.46758,0.4122 1.89631,1.2367 0.41224,0.8245 0.62661,2.0612 0.62661,3.7102 0,1.649 -0.21437,2.8857 -0.62661,3.7102 -0.42873,0.8244 -1.05534,1.2367 -1.89631,1.2367 m 0,1.2862 c 1.33566,0 2.35802,-0.5442 3.08356,-1.5995 0.70906,-1.0719 1.07183,-2.6219 1.07183,-4.6336 0,-2.0282 -0.36277,-3.5783 -1.07183,-4.6336 -0.72554,-1.0553 -1.7479,-1.583 -3.08356,-1.583 -1.35214,0 -2.39099,0.5277 -3.10004,1.583 -0.70906,1.0553 -1.05534,2.6054 -1.05534,4.6336 0,2.0117 0.34628,3.5617 1.05534,4.6336 0.70905,1.0553 1.7479,1.5995 3.10004,1.5995" /><path
           id="path102"
           style="fill:#000000;fill-opacity:1;fill-rule:nonzero;stroke:none"
           d="m 42.17018,287.0133 c -0.84097,0 -1.46758,-0.4123 -1.89631,-1.2367 -0.42873,-0.8245 -0.6266,-2.0612 -0.6266,-3.7102 0,-1.649 0.19787,-2.8857 0.6266,-3.7102 0.42873,-0.8245 1.05534,-1.2367 1.89631,-1.2367 0.84097,0 1.46758,0.4122 1.89631,1.2367 0.41224,0.8245 0.6266,2.0612 0.6266,3.7102 0,1.649 -0.21436,2.8857 -0.6266,3.7102 -0.42873,0.8244 -1.05534,1.2367 -1.89631,1.2367 m 0,1.2862 c 1.33566,0 2.35801,-0.5442 3.08356,-1.5995 0.70905,-1.0719 1.07182,-2.6219 1.07182,-4.6336 0,-2.0282 -0.36277,-3.5783 -1.07182,-4.6336 -0.72555,-1.0553 -1.7479,-1.583 -3.08356,-1.583 -1.35215,0 -2.39099,0.5277 -3.10005,1.583 -0.70905,1.0553 -1.05533,2.6054 -1.05533,4.6336 0,2.0117 0.34628,3.5617 1.05533,4.6336 0.70906,1.0553 1.7479,1.5995 3.10005,1.5995" /><g
           transform="matrix(1.648962,0,0,1.648962,-30.07907,231.6855)"
           id="g104"><path
             id="path106"
             style="fill:#000000;fill-opacity:1;fill-rule:nonzero;stroke:#000000;stroke-width:0.80000001;stroke-linecap:butt;stroke-linejoin:round;stroke-miterlimit:10;stroke-dasharray:none;stroke-opacity:1"
             d="M 54,54.93085 H 50.5" /></g><path
           id="path108"
           style="fill:#000000;fill-opacity:1;fill-rule:nonzero;stroke:none"
           d="m 5.464296,326.9526 c -0.840971,0 -1.467576,-0.4123 -1.896306,-1.2367 -0.42873,-0.8245 -0.626605,-2.0612 -0.626605,-3.7102 0,-1.649 0.197875,-2.8857 0.626605,-3.7102 0.42873,-0.8244 1.055335,-1.2367 1.896306,-1.2367 0.84097,0 1.467575,0.4123 1.896305,1.2367 0.412241,0.8245 0.626606,2.0612 0.626606,3.7102 0,1.649 -0.214365,2.8857 -0.626606,3.7102 -0.42873,0.8244 -1.055335,1.2367 -1.896305,1.2367 m 0,1.2862 c 1.335659,0 2.358015,-0.5442 3.083558,-1.5995 0.709053,-1.0718 1.071825,-2.6219 1.071825,-4.6336 0,-2.0282 -0.362772,-3.5782 -1.071825,-4.6336 -0.725543,-1.0553 -1.747899,-1.583 -3.083558,-1.583 -1.352149,0 -2.390994,0.5277 -3.100048,1.583 -0.709053,1.0554 -1.055335,2.6054 -1.055335,4.6336 0,2.0117 0.346282,3.5618 1.055335,4.6336 0.709054,1.0553 1.747899,1.5995 3.100048,1.5995" /><path
           id="path110"
           style="fill:#000000;fill-opacity:1;fill-rule:nonzero;stroke:none"
           d="m 12.47238,318.0482 h 1.69843 v -2.0447 h -1.69843 v 2.0447" /><path
           id="path112"
           style="fill:#000000;fill-opacity:1;fill-rule:nonzero;stroke:none"
           d="m 21.19539,326.9526 c -0.84097,0 -1.46758,-0.4123 -1.89631,-1.2367 -0.42873,-0.8245 -0.6266,-2.0612 -0.6266,-3.7102 0,-1.649 0.19787,-2.8857 0.6266,-3.7102 0.42873,-0.8244 1.05534,-1.2367 1.89631,-1.2367 0.84097,0 1.46757,0.4123 1.8963,1.2367 0.41224,0.8245 0.62661,2.0612 0.62661,3.7102 0,1.649 -0.21437,2.8857 -0.62661,3.7102 -0.42873,0.8244 -1.05533,1.2367 -1.8963,1.2367 m 0,1.2862 c 1.33566,0 2.35801,-0.5442 3.08356,-1.5995 0.70905,-1.0718 1.07182,-2.6219 1.07182,-4.6336 0,-2.0282 -0.36277,-3.5782 -1.07182,-4.6336 -0.72555,-1.0553 -1.7479,-1.583 -3.08356,-1.583 -1.35215,0 -2.391,0.5277 -3.10005,1.583 -0.70905,1.0554 -1.05533,2.6054 -1.05533,4.6336 0,2.0117 0.34628,3.5618 1.05533,4.6336 0.70905,1.0553 1.7479,1.5995 3.10005,1.5995" /><path
           id="path114"
           style="fill:#000000;fill-opacity:1;fill-rule:nonzero;stroke:none"
           d="m 31.68278,326.9526 c -0.84097,0 -1.46757,-0.4123 -1.8963,-1.2367 -0.42873,-0.8245 -0.62661,-2.0612 -0.62661,-3.7102 0,-1.649 0.19788,-2.8857 0.62661,-3.7102 0.42873,-0.8244 1.05533,-1.2367 1.8963,-1.2367 0.84097,0 1.46758,0.4123 1.89631,1.2367 0.41224,0.8245 0.62661,2.0612 0.62661,3.7102 0,1.649 -0.21437,2.8857 -0.62661,3.7102 -0.42873,0.8244 -1.05534,1.2367 -1.89631,1.2367 m 0,1.2862 c 1.33566,0 2.35802,-0.5442 3.08356,-1.5995 0.70906,-1.0718 1.07183,-2.6219 1.07183,-4.6336 0,-2.0282 -0.36277,-3.5782 -1.07183,-4.6336 -0.72554,-1.0553 -1.7479,-1.583 -3.08356,-1.583 -1.35214,0 -2.39099,0.5277 -3.10004,1.583 -0.70906,1.0554 -1.05534,2.6054 -1.05534,4.6336 0,2.0117 0.34628,3.5618 1.05534,4.6336 0.70905,1.0553 1.7479,1.5995 3.10004,1.5995" /><path
           id="path116"
           style="fill:#000000;fill-opacity:1;fill-rule:nonzero;stroke:none"
           d="m 38.70736,328.0244 h 6.38148 v -1.3686 h -4.89741 v -2.9517 c 0.23085,0.0825 0.47819,0.1484 0.70905,0.1814 0.23085,0.033 0.4782,0.066 0.70905,0.066 1.33566,0 2.391,-0.3793 3.1825,-1.1048 0.7915,-0.7421 1.18725,-1.7314 1.18725,-2.9847 0,-1.3026 -0.41224,-2.3085 -1.22023,-3.0176 -0.80799,-0.709 -1.94578,-1.0553 -3.39686,-1.0553 -0.51118,0 -1.02236,0.0495 -1.55003,0.1154 -0.52766,0.0825 -1.05533,0.1979 -1.61598,0.3793 v 1.6325 c 0.4782,-0.2639 0.97289,-0.4617 1.50056,-0.5937 0.51118,-0.1319 1.05533,-0.1813 1.63247,-0.1813 0.92342,0 1.66545,0.2308 2.20961,0.7255 0.52767,0.4947 0.80799,1.1543 0.80799,1.9952 0,0.8245 -0.28032,1.4841 -0.80799,1.9788 -0.54416,0.4947 -1.28619,0.742 -2.20961,0.742 -0.42873,0 -0.87395,-0.0494 -1.30268,-0.1484 -0.42873,-0.0989 -0.87395,-0.2473 -1.31917,-0.4452 v 6.0352" /><g
           transform="matrix(1.648962,0,0,1.648962,-30.07907,231.6855)"
           id="g118"><path
             id="path120"
             style="fill:#000000;fill-opacity:1;fill-rule:nonzero;stroke:#000000;stroke-width:0.80000001;stroke-linecap:butt;stroke-linejoin:round;stroke-miterlimit:10;stroke-dasharray:none;stroke-opacity:1"
             d="M 54,79.15174 H 50.5" /></g><path
           id="path122"
           style="fill:#000000;fill-opacity:1;fill-rule:nonzero;stroke:none"
           d="m 5.464296,366.8919 c -0.840971,0 -1.467576,-0.4123 -1.896306,-1.2367 -0.42873,-0.8245 -0.626605,-2.0612 -0.626605,-3.7102 0,-1.649 0.197875,-2.8857 0.626605,-3.7102 0.42873,-0.8244 1.055335,-1.2367 1.896306,-1.2367 0.84097,0 1.467575,0.4123 1.896305,1.2367 0.412241,0.8245 0.626606,2.0612 0.626606,3.7102 0,1.649 -0.214365,2.8857 -0.626606,3.7102 -0.42873,0.8244 -1.055335,1.2367 -1.896305,1.2367 m 0,1.2862 c 1.335659,0 2.358015,-0.5442 3.083558,-1.5995 0.709053,-1.0718 1.071825,-2.6219 1.071825,-4.6336 0,-2.0282 -0.362772,-3.5782 -1.071825,-4.6336 -0.725543,-1.0553 -1.747899,-1.583 -3.083558,-1.583 -1.352149,0 -2.390994,0.5277 -3.100048,1.583 -0.709053,1.0554 -1.055335,2.6054 -1.055335,4.6336 0,2.0117 0.346282,3.5618 1.055335,4.6336 0.709054,1.0553 1.747899,1.5995 3.100048,1.5995" /><path
           id="path124"
           style="fill:#000000;fill-opacity:1;fill-rule:nonzero;stroke:none"
           d="m 12.47238,357.9875 h 1.69843 v -2.0447 h -1.69843 v 2.0447" /><path
           id="path126"
           style="fill:#000000;fill-opacity:1;fill-rule:nonzero;stroke:none"
           d="m 21.19539,366.8919 c -0.84097,0 -1.46758,-0.4123 -1.89631,-1.2367 -0.42873,-0.8245 -0.6266,-2.0612 -0.6266,-3.7102 0,-1.649 0.19787,-2.8857 0.6266,-3.7102 0.42873,-0.8244 1.05534,-1.2367 1.89631,-1.2367 0.84097,0 1.46757,0.4123 1.8963,1.2367 0.41224,0.8245 0.62661,2.0612 0.62661,3.7102 0,1.649 -0.21437,2.8857 -0.62661,3.7102 -0.42873,0.8244 -1.05533,1.2367 -1.8963,1.2367 m 0,1.2862 c 1.33566,0 2.35801,-0.5442 3.08356,-1.5995 0.70905,-1.0718 1.07182,-2.6219 1.07182,-4.6336 0,-2.0282 -0.36277,-3.5782 -1.07182,-4.6336 -0.72555,-1.0553 -1.7479,-1.583 -3.08356,-1.583 -1.35215,0 -2.391,0.5277 -3.10005,1.583 -0.70905,1.0554 -1.05533,2.6054 -1.05533,4.6336 0,2.0117 0.34628,3.5618 1.05533,4.6336 0.70905,1.0553 1.7479,1.5995 3.10005,1.5995" /><path
           id="path128"
           style="fill:#000000;fill-opacity:1;fill-rule:nonzero;stroke:none"
           d="m 28.4838,357.3114 h 2.65483 v 9.1682 l -2.88569,-0.5771 v 1.4841 l 2.8692,0.5771 h 1.63247 v -10.6523 h 2.65483 v -1.3686 H 28.4838 v 1.3686" /><path
           id="path130"
           style="fill:#000000;fill-opacity:1;fill-rule:nonzero;stroke:none"
           d="m 42.17018,366.8919 c -0.84097,0 -1.46758,-0.4123 -1.89631,-1.2367 -0.42873,-0.8245 -0.6266,-2.0612 -0.6266,-3.7102 0,-1.649 0.19787,-2.8857 0.6266,-3.7102 0.42873,-0.8244 1.05534,-1.2367 1.89631,-1.2367 0.84097,0 1.46758,0.4123 1.89631,1.2367 0.41224,0.8245 0.6266,2.0612 0.6266,3.7102 0,1.649 -0.21436,2.8857 -0.6266,3.7102 -0.42873,0.8244 -1.05534,1.2367 -1.89631,1.2367 m 0,1.2862 c 1.33566,0 2.35801,-0.5442 3.08356,-1.5995 0.70905,-1.0718 1.07182,-2.6219 1.07182,-4.6336 0,-2.0282 -0.36277,-3.5782 -1.07182,-4.6336 -0.72555,-1.0553 -1.7479,-1.583 -3.08356,-1.583 -1.35215,0 -2.39099,0.5277 -3.10005,1.583 -0.70905,1.0554 -1.05533,2.6054 -1.05533,4.6336 0,2.0117 0.34628,3.5618 1.05533,4.6336 0.70906,1.0553 1.7479,1.5995 3.10005,1.5995" /><g
           transform="matrix(1.648962,0,0,1.648962,-30.07907,231.6855)"
           id="g132"><path
             id="path134"
             style="fill:#000000;fill-opacity:1;fill-rule:nonzero;stroke:#000000;stroke-width:0.80000001;stroke-linecap:butt;stroke-linejoin:round;stroke-miterlimit:10;stroke-dasharray:none;stroke-opacity:1"
             d="M 54,103.3726 H 50.5" /></g><path
           id="path136"
           style="fill:#000000;fill-opacity:1;fill-rule:nonzero;stroke:none"
           d="m 5.464296,406.8312 c -0.840971,0 -1.467576,-0.4122 -1.896306,-1.2367 -0.42873,-0.8245 -0.626605,-2.0612 -0.626605,-3.7102 0,-1.6489 0.197875,-2.8857 0.626605,-3.7102 0.42873,-0.8244 1.055335,-1.2367 1.896306,-1.2367 0.84097,0 1.467575,0.4123 1.896305,1.2367 0.412241,0.8245 0.626606,2.0613 0.626606,3.7102 0,1.649 -0.214365,2.8857 -0.626606,3.7102 -0.42873,0.8245 -1.055335,1.2367 -1.896305,1.2367 m 0,1.2862 c 1.335659,0 2.358015,-0.5442 3.083558,-1.5995 0.709053,-1.0718 1.071825,-2.6219 1.071825,-4.6336 0,-2.0282 -0.362772,-3.5782 -1.071825,-4.6336 -0.725543,-1.0553 -1.747899,-1.583 -3.083558,-1.583 -1.352149,0 -2.390994,0.5277 -3.100048,1.583 -0.709053,1.0554 -1.055335,2.6054 -1.055335,4.6336 0,2.0117 0.346282,3.5618 1.055335,4.6336 0.709054,1.0553 1.747899,1.5995 3.100048,1.5995" /><path
           id="path138"
           style="fill:#000000;fill-opacity:1;fill-rule:nonzero;stroke:none"
           d="m 12.47238,397.9268 h 1.69843 v -2.0447 h -1.69843 v 2.0447" /><path
           id="path140"
           style="fill:#000000;fill-opacity:1;fill-rule:nonzero;stroke:none"
           d="m 21.19539,406.8312 c -0.84097,0 -1.46758,-0.4122 -1.89631,-1.2367 -0.42873,-0.8245 -0.6266,-2.0612 -0.6266,-3.7102 0,-1.6489 0.19787,-2.8857 0.6266,-3.7102 0.42873,-0.8244 1.05534,-1.2367 1.89631,-1.2367 0.84097,0 1.46757,0.4123 1.8963,1.2367 0.41224,0.8245 0.62661,2.0613 0.62661,3.7102 0,1.649 -0.21437,2.8857 -0.62661,3.7102 -0.42873,0.8245 -1.05533,1.2367 -1.8963,1.2367 m 0,1.2862 c 1.33566,0 2.35801,-0.5442 3.08356,-1.5995 0.70905,-1.0718 1.07182,-2.6219 1.07182,-4.6336 0,-2.0282 -0.36277,-3.5782 -1.07182,-4.6336 -0.72555,-1.0553 -1.7479,-1.583 -3.08356,-1.583 -1.35215,0 -2.391,0.5277 -3.10005,1.583 -0.70905,1.0554 -1.05533,2.6054 -1.05533,4.6336 0,2.0117 0.34628,3.5618 1.05533,4.6336 0.70905,1.0553 1.7479,1.5995 3.10005,1.5995" /><path
           id="path142"
           style="fill:#000000;fill-opacity:1;fill-rule:nonzero;stroke:none"
           d="m 28.4838,397.2507 h 2.65483 v 9.1683 l -2.88569,-0.5772 v 1.4841 l 2.8692,0.5771 h 1.63247 v -10.6523 h 2.65483 v -1.3686 H 28.4838 v 1.3686" /><path
           id="path144"
           style="fill:#000000;fill-opacity:1;fill-rule:nonzero;stroke:none"
           d="m 38.70736,407.903 h 6.38148 v -1.3686 h -4.89741 v -2.9517 c 0.23085,0.0825 0.47819,0.1485 0.70905,0.1814 0.23085,0.033 0.4782,0.066 0.70905,0.066 1.33566,0 2.391,-0.3793 3.1825,-1.1048 0.7915,-0.742 1.18725,-1.7314 1.18725,-2.9846 0,-1.3027 -0.41224,-2.3086 -1.22023,-3.0176 -0.80799,-0.7091 -1.94578,-1.0554 -3.39686,-1.0554 -0.51118,0 -1.02236,0.0495 -1.55003,0.1155 -0.52766,0.0824 -1.05533,0.1978 -1.61598,0.3792 v 1.6325 c 0.4782,-0.2638 0.97289,-0.4617 1.50056,-0.5936 0.51118,-0.132 1.05533,-0.1814 1.63247,-0.1814 0.92342,0 1.66545,0.2308 2.20961,0.7255 0.52767,0.4947 0.80799,1.1543 0.80799,1.9953 0,0.8244 -0.28032,1.484 -0.80799,1.9787 -0.54416,0.4947 -1.28619,0.742 -2.20961,0.742 -0.42873,0 -0.87395,-0.0494 -1.30268,-0.1484 -0.42873,-0.0989 -0.87395,-0.2473 -1.31917,-0.4452 v 6.0352" /><g
           transform="matrix(1.648962,0,0,1.648962,-30.07907,231.6855)"
           id="g146"><path
             id="path148"
             style="fill:#000000;fill-opacity:1;fill-rule:nonzero;stroke:#000000;stroke-width:0.80000001;stroke-linecap:butt;stroke-linejoin:round;stroke-miterlimit:10;stroke-dasharray:none;stroke-opacity:1"
             d="M 54,127.5935 H 50.5" /></g><path
           id="path150"
           style="fill:#000000;fill-opacity:1;fill-rule:nonzero;stroke:none"
           d="m 5.464296,446.7705 c -0.840971,0 -1.467576,-0.4122 -1.896306,-1.2367 -0.42873,-0.8245 -0.626605,-2.0612 -0.626605,-3.7102 0,-1.6489 0.197875,-2.8857 0.626605,-3.7101 0.42873,-0.8245 1.055335,-1.2368 1.896306,-1.2368 0.84097,0 1.467575,0.4123 1.896305,1.2368 0.412241,0.8244 0.626606,2.0612 0.626606,3.7101 0,1.649 -0.214365,2.8857 -0.626606,3.7102 -0.42873,0.8245 -1.055335,1.2367 -1.896305,1.2367 m 0,1.2862 c 1.335659,0 2.358015,-0.5442 3.083558,-1.5995 0.709053,-1.0718 1.071825,-2.6218 1.071825,-4.6336 0,-2.0282 -0.362772,-3.5782 -1.071825,-4.6336 -0.725543,-1.0553 -1.747899,-1.583 -3.083558,-1.583 -1.352149,0 -2.390994,0.5277 -3.100048,1.583 -0.709053,1.0554 -1.055335,2.6054 -1.055335,4.6336 0,2.0118 0.346282,3.5618 1.055335,4.6336 0.709054,1.0553 1.747899,1.5995 3.100048,1.5995" /><path
           id="path152"
           style="fill:#000000;fill-opacity:1;fill-rule:nonzero;stroke:none"
           d="m 12.47238,437.8661 h 1.69843 v -2.0447 h -1.69843 v 2.0447" /><path
           id="path154"
           style="fill:#000000;fill-opacity:1;fill-rule:nonzero;stroke:none"
           d="m 21.19539,446.7705 c -0.84097,0 -1.46758,-0.4122 -1.89631,-1.2367 -0.42873,-0.8245 -0.6266,-2.0612 -0.6266,-3.7102 0,-1.6489 0.19787,-2.8857 0.6266,-3.7101 0.42873,-0.8245 1.05534,-1.2368 1.89631,-1.2368 0.84097,0 1.46757,0.4123 1.8963,1.2368 0.41224,0.8244 0.62661,2.0612 0.62661,3.7101 0,1.649 -0.21437,2.8857 -0.62661,3.7102 -0.42873,0.8245 -1.05533,1.2367 -1.8963,1.2367 m 0,1.2862 c 1.33566,0 2.35801,-0.5442 3.08356,-1.5995 0.70905,-1.0718 1.07182,-2.6218 1.07182,-4.6336 0,-2.0282 -0.36277,-3.5782 -1.07182,-4.6336 -0.72555,-1.0553 -1.7479,-1.583 -3.08356,-1.583 -1.35215,0 -2.391,0.5277 -3.10005,1.583 -0.70905,1.0554 -1.05533,2.6054 -1.05533,4.6336 0,2.0118 0.34628,3.5618 1.05533,4.6336 0.70905,1.0553 1.7479,1.5995 3.10005,1.5995" /><path
           id="path156"
           style="fill:#000000;fill-opacity:1;fill-rule:nonzero;stroke:none"
           d="m 29.60509,437.19 h 5.67243 v -1.3686 h -7.63469 v 1.3686 c 0.61011,0.6266 1.45108,1.4841 2.52291,2.5724 1.05533,1.0718 1.73141,1.7644 2.01173,2.0777 0.52767,0.5771 0.89044,1.0718 1.08832,1.4841 0.19787,0.3957 0.3133,0.808 0.3133,1.2037 0,0.6266 -0.23085,1.1543 -0.67607,1.55 -0.44522,0.3958 -1.02236,0.6102 -1.7479,0.6102 -0.51118,0 -1.05534,-0.099 -1.61599,-0.2639 -0.56064,-0.1814 -1.17076,-0.4452 -1.81385,-0.808 v 1.649 c 0.65958,0.2638 1.2697,0.4617 1.83034,0.5936 0.56065,0.1319 1.08832,0.1979 1.56652,0.1979 1.23672,0 2.2261,-0.3133 2.96813,-0.9399 0.74203,-0.6266 1.12129,-1.4511 1.12129,-2.4899 0,-0.4947 -0.09894,-0.9729 -0.28032,-1.4017 -0.18139,-0.4452 -0.51118,-0.9728 -1.00587,-1.5665 -0.13192,-0.1649 -0.56065,-0.6101 -1.28619,-1.3521 -0.72554,-0.7421 -1.73141,-1.7809 -3.03409,-3.1166" /><path
           id="path158"
           style="fill:#000000;fill-opacity:1;fill-rule:nonzero;stroke:none"
           d="m 42.17018,446.7705 c -0.84097,0 -1.46758,-0.4122 -1.89631,-1.2367 -0.42873,-0.8245 -0.6266,-2.0612 -0.6266,-3.7102 0,-1.6489 0.19787,-2.8857 0.6266,-3.7101 0.42873,-0.8245 1.05534,-1.2368 1.89631,-1.2368 0.84097,0 1.46758,0.4123 1.89631,1.2368 0.41224,0.8244 0.6266,2.0612 0.6266,3.7101 0,1.649 -0.21436,2.8857 -0.6266,3.7102 -0.42873,0.8245 -1.05534,1.2367 -1.89631,1.2367 m 0,1.2862 c 1.33566,0 2.35801,-0.5442 3.08356,-1.5995 0.70905,-1.0718 1.07182,-2.6218 1.07182,-4.6336 0,-2.0282 -0.36277,-3.5782 -1.07182,-4.6336 -0.72555,-1.0553 -1.7479,-1.583 -3.08356,-1.583 -1.35215,0 -2.39099,0.5277 -3.10005,1.583 -0.70905,1.0554 -1.05533,2.6054 -1.05533,4.6336 0,2.0118 0.34628,3.5618 1.05533,4.6336 0.70906,1.0553 1.7479,1.5995 3.10005,1.5995" /><g
           transform="matrix(1.648962,0,0,1.648962,-30.07907,231.6855)"
           id="g160"><path
             id="path162"
             style="fill:#000000;fill-opacity:1;fill-rule:nonzero;stroke:#000000;stroke-width:0.80000001;stroke-linecap:butt;stroke-linejoin:round;stroke-miterlimit:10;stroke-dasharray:none;stroke-opacity:1"
             d="M 54,151.8144 H 50.5" /></g><path
           id="path164"
           style="fill:#000000;fill-opacity:1;fill-rule:nonzero;stroke:none"
           d="m 5.464296,486.7098 c -0.840971,0 -1.467576,-0.4122 -1.896306,-1.2367 -0.42873,-0.8245 -0.626605,-2.0612 -0.626605,-3.7102 0,-1.6489 0.197875,-2.8857 0.626605,-3.7101 0.42873,-0.8245 1.055335,-1.2368 1.896306,-1.2368 0.84097,0 1.467575,0.4123 1.896305,1.2368 0.412241,0.8244 0.626606,2.0612 0.626606,3.7101 0,1.649 -0.214365,2.8857 -0.626606,3.7102 -0.42873,0.8245 -1.055335,1.2367 -1.896305,1.2367 m 0,1.2862 c 1.335659,0 2.358015,-0.5442 3.083558,-1.5995 0.709053,-1.0718 1.071825,-2.6218 1.071825,-4.6336 0,-2.0282 -0.362772,-3.5782 -1.071825,-4.6336 -0.725543,-1.0553 -1.747899,-1.583 -3.083558,-1.583 -1.352149,0 -2.390994,0.5277 -3.100048,1.583 -0.709053,1.0554 -1.055335,2.6054 -1.055335,4.6336 0,2.0118 0.346282,3.5618 1.055335,4.6336 0.709054,1.0553 1.747899,1.5995 3.100048,1.5995" /><path
           id="path166"
           style="fill:#000000;fill-opacity:1;fill-rule:nonzero;stroke:none"
           d="m 12.47238,477.8054 h 1.69843 v -2.0447 h -1.69843 v 2.0447" /><path
           id="path168"
           style="fill:#000000;fill-opacity:1;fill-rule:nonzero;stroke:none"
           d="m 21.19539,486.7098 c -0.84097,0 -1.46758,-0.4122 -1.89631,-1.2367 -0.42873,-0.8245 -0.6266,-2.0612 -0.6266,-3.7102 0,-1.6489 0.19787,-2.8857 0.6266,-3.7101 0.42873,-0.8245 1.05534,-1.2368 1.89631,-1.2368 0.84097,0 1.46757,0.4123 1.8963,1.2368 0.41224,0.8244 0.62661,2.0612 0.62661,3.7101 0,1.649 -0.21437,2.8857 -0.62661,3.7102 -0.42873,0.8245 -1.05533,1.2367 -1.8963,1.2367 m 0,1.2862 c 1.33566,0 2.35801,-0.5442 3.08356,-1.5995 0.70905,-1.0718 1.07182,-2.6218 1.07182,-4.6336 0,-2.0282 -0.36277,-3.5782 -1.07182,-4.6336 -0.72555,-1.0553 -1.7479,-1.583 -3.08356,-1.583 -1.35215,0 -2.391,0.5277 -3.10005,1.583 -0.70905,1.0554 -1.05533,2.6054 -1.05533,4.6336 0,2.0118 0.34628,3.5618 1.05533,4.6336 0.70905,1.0553 1.7479,1.5995 3.10005,1.5995" /><path
           id="path170"
           style="fill:#000000;fill-opacity:1;fill-rule:nonzero;stroke:none"
           d="m 29.60509,477.1293 h 5.67243 v -1.3686 h -7.63469 v 1.3686 c 0.61011,0.6267 1.45108,1.4841 2.52291,2.5724 1.05533,1.0719 1.73141,1.7644 2.01173,2.0777 0.52767,0.5772 0.89044,1.0718 1.08832,1.4841 0.19787,0.3957 0.3133,0.808 0.3133,1.2037 0,0.6266 -0.23085,1.1543 -0.67607,1.5501 -0.44522,0.3957 -1.02236,0.6101 -1.7479,0.6101 -0.51118,0 -1.05534,-0.099 -1.61599,-0.2639 -0.56064,-0.1814 -1.17076,-0.4452 -1.81385,-0.808 v 1.649 c 0.65958,0.2638 1.2697,0.4617 1.83034,0.5936 0.56065,0.1319 1.08832,0.1979 1.56652,0.1979 1.23672,0 2.2261,-0.3133 2.96813,-0.9399 0.74203,-0.6266 1.12129,-1.4511 1.12129,-2.4899 0,-0.4947 -0.09894,-0.9729 -0.28032,-1.4017 -0.18139,-0.4452 -0.51118,-0.9728 -1.00587,-1.5665 -0.13192,-0.1649 -0.56065,-0.6101 -1.28619,-1.3521 -0.72554,-0.742 -1.73141,-1.7809 -3.03409,-3.1166" /><path
           id="path172"
           style="fill:#000000;fill-opacity:1;fill-rule:nonzero;stroke:none"
           d="m 38.70736,487.7816 h 6.38148 v -1.3686 h -4.89741 v -2.9516 c 0.23085,0.0824 0.47819,0.1484 0.70905,0.1813 0.23085,0.033 0.4782,0.066 0.70905,0.066 1.33566,0 2.391,-0.3793 3.1825,-1.1048 0.7915,-0.742 1.18725,-1.7314 1.18725,-2.9846 0,-1.3027 -0.41224,-2.3086 -1.22023,-3.0176 -0.80799,-0.7091 -1.94578,-1.0554 -3.39686,-1.0554 -0.51118,0 -1.02236,0.0495 -1.55003,0.1155 -0.52766,0.0824 -1.05533,0.1978 -1.61598,0.3792 v 1.6325 c 0.4782,-0.2638 0.97289,-0.4617 1.50056,-0.5936 0.51118,-0.1319 1.05533,-0.1814 1.63247,-0.1814 0.92342,0 1.66545,0.2308 2.20961,0.7255 0.52767,0.4947 0.80799,1.1543 0.80799,1.9953 0,0.8245 -0.28032,1.484 -0.80799,1.9787 -0.54416,0.4947 -1.28619,0.7421 -2.20961,0.7421 -0.42873,0 -0.87395,-0.0495 -1.30268,-0.1484 -0.42873,-0.099 -0.87395,-0.2474 -1.31917,-0.4453 v 6.0352" /><g
           transform="matrix(1.648962,0,0,1.648962,-30.07907,231.6855)"
           id="g174"><path
             id="path176"
             style="fill:#000000;fill-opacity:1;fill-rule:nonzero;stroke:#000000;stroke-width:0.80000001;stroke-linecap:butt;stroke-linejoin:round;stroke-miterlimit:10;stroke-dasharray:none;stroke-opacity:1"
             d="M 54,176.0353 H 50.5" /></g><path
           id="path178"
           style="fill:#000000;fill-opacity:1;fill-rule:nonzero;stroke:none"
           d="m 5.464296,526.6491 c -0.840971,0 -1.467576,-0.4122 -1.896306,-1.2367 -0.42873,-0.8245 -0.626605,-2.0612 -0.626605,-3.7102 0,-1.6489 0.197875,-2.8856 0.626605,-3.7101 0.42873,-0.8245 1.055335,-1.2367 1.896306,-1.2367 0.84097,0 1.467575,0.4122 1.896305,1.2367 0.412241,0.8245 0.626606,2.0612 0.626606,3.7101 0,1.649 -0.214365,2.8857 -0.626606,3.7102 -0.42873,0.8245 -1.055335,1.2367 -1.896305,1.2367 m 0,1.2862 c 1.335659,0 2.358015,-0.5441 3.083558,-1.5995 0.709053,-1.0718 1.071825,-2.6218 1.071825,-4.6336 0,-2.0282 -0.362772,-3.5782 -1.071825,-4.6335 -0.725543,-1.0554 -1.747899,-1.583 -3.083558,-1.583 -1.352149,0 -2.390994,0.5276 -3.100048,1.583 -0.709053,1.0553 -1.055335,2.6053 -1.055335,4.6335 0,2.0118 0.346282,3.5618 1.055335,4.6336 0.709054,1.0554 1.747899,1.5995 3.100048,1.5995" /><path
           id="path180"
           style="fill:#000000;fill-opacity:1;fill-rule:nonzero;stroke:none"
           d="m 12.47238,517.7447 h 1.69843 V 515.7 h -1.69843 v 2.0447" /><path
           id="path182"
           style="fill:#000000;fill-opacity:1;fill-rule:nonzero;stroke:none"
           d="m 21.19539,526.6491 c -0.84097,0 -1.46758,-0.4122 -1.89631,-1.2367 -0.42873,-0.8245 -0.6266,-2.0612 -0.6266,-3.7102 0,-1.6489 0.19787,-2.8856 0.6266,-3.7101 0.42873,-0.8245 1.05534,-1.2367 1.89631,-1.2367 0.84097,0 1.46757,0.4122 1.8963,1.2367 0.41224,0.8245 0.62661,2.0612 0.62661,3.7101 0,1.649 -0.21437,2.8857 -0.62661,3.7102 -0.42873,0.8245 -1.05533,1.2367 -1.8963,1.2367 m 0,1.2862 c 1.33566,0 2.35801,-0.5441 3.08356,-1.5995 0.70905,-1.0718 1.07182,-2.6218 1.07182,-4.6336 0,-2.0282 -0.36277,-3.5782 -1.07182,-4.6335 -0.72555,-1.0554 -1.7479,-1.583 -3.08356,-1.583 -1.35215,0 -2.391,0.5276 -3.10005,1.583 -0.70905,1.0553 -1.05533,2.6053 -1.05533,4.6335 0,2.0118 0.34628,3.5618 1.05533,4.6336 0.70905,1.0554 1.7479,1.5995 3.10005,1.5995" /><path
           id="path184"
           style="fill:#000000;fill-opacity:1;fill-rule:nonzero;stroke:none"
           d="m 33.13387,522.1804 c 0.77501,-0.1649 1.38513,-0.5111 1.81386,-1.0388 0.42873,-0.5277 0.65958,-1.1873 0.65958,-1.9458 0,-1.1872 -0.41224,-2.1107 -1.22023,-2.7537 -0.82448,-0.6431 -1.97875,-0.9564 -3.47931,-0.9564 -0.51118,0 -1.03884,0.0494 -1.56651,0.1484 -0.52767,0.0824 -1.08832,0.2308 -1.64896,0.4287 v 1.5665 c 0.44522,-0.2638 0.93991,-0.4617 1.48406,-0.5936 0.52767,-0.1319 1.08832,-0.1979 1.68194,-0.1979 1.02236,0 1.79737,0.1979 2.32504,0.5936 0.52767,0.3958 0.80799,0.9894 0.80799,1.7644 0,0.6926 -0.24734,1.2532 -0.74203,1.649 -0.49469,0.3957 -1.18725,0.6101 -2.07769,0.6101 h -1.40162 v 1.3357 h 1.46757 c 0.79151,0 1.40162,0.1484 1.83035,0.4782 0.42873,0.3133 0.6431,0.775 0.6431,1.3851 0,0.6101 -0.23086,1.0883 -0.65959,1.4181 -0.44522,0.3298 -1.07182,0.4947 -1.87981,0.4947 -0.44522,0 -0.92342,-0.0495 -1.4346,-0.1484 -0.51118,-0.099 -1.07183,-0.2474 -1.68194,-0.4453 v 1.4511 c 0.61011,0.1649 1.18725,0.2968 1.73141,0.3793 0.52767,0.0824 1.03884,0.1319 1.53353,0.1319 1.22023,0 2.19312,-0.2803 2.91866,-0.841 0.72555,-0.5606 1.08832,-1.3191 1.08832,-2.2755 0,-0.6596 -0.19788,-1.2203 -0.57714,-1.682 -0.37926,-0.4617 -0.92342,-0.7915 -1.61598,-0.9564" /><path
           id="path186"
           style="fill:#000000;fill-opacity:1;fill-rule:nonzero;stroke:none"
           d="m 42.17018,526.6491 c -0.84097,0 -1.46758,-0.4122 -1.89631,-1.2367 -0.42873,-0.8245 -0.6266,-2.0612 -0.6266,-3.7102 0,-1.6489 0.19787,-2.8856 0.6266,-3.7101 0.42873,-0.8245 1.05534,-1.2367 1.89631,-1.2367 0.84097,0 1.46758,0.4122 1.89631,1.2367 0.41224,0.8245 0.6266,2.0612 0.6266,3.7101 0,1.649 -0.21436,2.8857 -0.6266,3.7102 -0.42873,0.8245 -1.05534,1.2367 -1.89631,1.2367 m 0,1.2862 c 1.33566,0 2.35801,-0.5441 3.08356,-1.5995 0.70905,-1.0718 1.07182,-2.6218 1.07182,-4.6336 0,-2.0282 -0.36277,-3.5782 -1.07182,-4.6335 -0.72555,-1.0554 -1.7479,-1.583 -3.08356,-1.583 -1.35215,0 -2.39099,0.5276 -3.10005,1.583 -0.70905,1.0553 -1.05533,2.6053 -1.05533,4.6335 0,2.0118 0.34628,3.5618 1.05533,4.6336 0.70906,1.0554 1.7479,1.5995 3.10005,1.5995" /></g></g><g
       id="g188"><g
         clip-path="url(#clipPath194)"
         id="g190"><g
           transform="matrix(1.648962,0,0,1.648962,-30.07907,231.6855)"
           id="g196"><path
             id="path198"
             style="fill:none;stroke:#1f77b4;stroke-width:1.5;stroke-linecap:square;stroke-linejoin:round;stroke-miterlimit:10;stroke-dasharray:none;stroke-opacity:1"
             d="m 69.21818,182.52 30.43637,-7.9166 30.43635,-8.8159 30.4364,-9.841 30.4363,-11.0493 30.4364,-12.5514 30.4364,-14.3495 30.4363,-16.5622 30.4364,-19.31865 30.4364,-22.82357 30.4363,-27.38302" /></g></g></g><g
       id="g200"><g
         clip-path="url(#clipPath206)"
         id="g202"><g
           transform="matrix(1.648962,0,0,1.648962,-30.07907,231.6855)"
           id="g208"><path
             id="path210"
             style="fill:none;stroke:#ff7f0e;stroke-width:1.5;stroke-linecap:square;stroke-linejoin:round;stroke-miterlimit:10;stroke-dasharray:none;stroke-opacity:1"
             d="M 69.21818,182.52 99.65455,160.2978 130.0909,144.1056 160.5273,129.2457 190.9636,114.8689 221.4,100.9274 251.8364,87.14899 282.2727,73.41733 312.7091,59.47112 343.1455,45.66994 373.5818,31.90886" /></g></g></g><g
       id="g212"><g
         clip-path="url(#clipPath218)"
         id="g214"><g
           transform="matrix(1.648962,0,0,1.648962,-30.07907,231.6855)"
           id="g220"><path
             id="path222"
             style="fill:none;stroke:#2ca02c;stroke-width:1.5;stroke-linecap:square;stroke-linejoin:round;stroke-miterlimit:10;stroke-dasharray:none;stroke-opacity:1"
             d="M 69.21818,182.52 99.65455,139.0209 130.0909,113.3185 160.5273,93.03292 190.9636,76.63068 221.4,63.66186 l 30.4364,-10.12383 30.4363,-8.16762 30.4364,-6.19822 30.4364,-4.28985 30.4363,-2.67539" /></g></g></g><g
       id="g224"><g
         clip-path="url(#clipPath230)"
         id="g226"><g
           transform="matrix(1.648962,0,0,1.648962,-30.07907,231.6855)"
           id="g232"><path
             id="path234"
             style="fill:none;stroke:#d62728;stroke-width:1.5;stroke-linecap:square;stroke-linejoin:round;stroke-miterlimit:10;stroke-dasharray:none;stroke-opacity:1"
             d="M 69.21818,182.52 99.65455,82.39705 130.0909,52.80766 160.5273,41.71448 190.9636,36.70796 221.4,34.18961 l 30.4364,-1.34184 30.4363,-0.7378 30.4364,-0.41039 30.4364,-0.23436 30.4363,-0.14522" /></g></g></g><g
       id="g236"><g
         clip-path="url(#clipPath242)"
         id="g238"><g
           transform="matrix(1.648962,0,0,1.648962,-30.07907,231.6855)"
           id="g244"><path
             id="path246"
             style="fill:none;stroke:#000000;stroke-width:0.80000001;stroke-linecap:square;stroke-linejoin:miter;stroke-miterlimit:10;stroke-dasharray:none;stroke-opacity:1"
             d="M 54,23.76 V 190.08" /></g><g
           transform="matrix(1.648962,0,0,1.648962,-30.07907,231.6855)"
           id="g248"><path
             id="path250"
             style="fill:none;stroke:#000000;stroke-width:0.80000001;stroke-linecap:square;stroke-linejoin:miter;stroke-miterlimit:10;stroke-dasharray:none;stroke-opacity:1"
             d="M 388.8,23.76 V 190.08" /></g><g
           transform="matrix(1.648962,0,0,1.648962,-30.07907,231.6855)"
           id="g252"><path
             id="path254"
             style="fill:none;stroke:#000000;stroke-width:0.80000001;stroke-linecap:square;stroke-linejoin:miter;stroke-miterlimit:10;stroke-dasharray:none;stroke-opacity:1"
             d="M 54,23.76 H 388.8" /></g><g
           transform="matrix(1.648962,0,0,1.648962,-30.07907,231.6855)"
           id="g256"><path
             id="path258"
             style="fill:none;stroke:#000000;stroke-width:0.80000001;stroke-linecap:square;stroke-linejoin:miter;stroke-miterlimit:10;stroke-dasharray:none;stroke-opacity:1"
             d="M 54,190.08 H 388.8" /></g><g
           transform="matrix(1.648962,0,0,1.648962,-30.07907,231.6855)"
           id="g260"><path
             id="path262"
             style="fill:#ffffff;fill-opacity:0.8;fill-rule:nonzero;stroke:#cccccc;stroke-width:1;stroke-linecap:butt;stroke-linejoin:miter;stroke-miterlimit:10;stroke-dasharray:none;stroke-opacity:0.8"
             d="M 271.875,109.98 H 380.4 c 1.6,0 2.4,0.8 2.4,2.4 v 69.3 c 0,1.6 -0.8,2.4 -2.4,2.4 H 271.875 c -1.6,0 -2.4,-0.8 -2.4,-2.4 v -69.3 c 0,-1.6 0.8,-2.4 2.4,-2.4 z" /></g><g
           transform="matrix(1.648962,0,0,1.648962,-30.07907,231.6855)"
           id="g264"><path
             id="path266"
             style="fill:none;stroke:#1f77b4;stroke-width:1.5;stroke-linecap:square;stroke-linejoin:round;stroke-miterlimit:10;stroke-dasharray:none;stroke-opacity:1"
             d="m 274.275,174.355 h 24" /></g><path
           id="path268"
           style="fill:#000000;fill-opacity:1;fill-rule:nonzero;stroke:none"
           d="m 486.3806,519.0319 c 0.4156,-0.1583 0.8311,-0.4551 1.2269,-0.9102 0.3957,-0.4749 0.7915,-1.1081 1.1872,-1.9194 l 1.9788,-3.9377 h -2.0975 l -1.8403,3.7002 c -0.4749,0.9498 -0.9498,1.6028 -1.3851,1.9194 -0.4551,0.3166 -1.0685,0.4749 -1.8402,0.4749 h -2.1173 v -6.0945 h -1.959 v 14.4251 h 4.4127 c 1.6423,0 2.8692,-0.3562 3.6804,-1.029 0.8113,-0.6925 1.2269,-1.7413 1.2269,-3.1264 0,-0.9102 -0.2177,-1.6819 -0.6332,-2.2756 -0.4354,-0.5936 -1.0488,-1.0091 -1.8403,-1.2268 m -4.8875,6.055 v -5.125 h 2.4537 c 0.93,0 1.6423,0.2177 2.1172,0.653 0.4749,0.4353 0.7322,1.0685 0.7322,1.9194 0,0.8311 -0.2573,1.4643 -0.7322,1.8996 -0.4749,0.4353 -1.1872,0.653 -2.1172,0.653 h -2.4537" /><path
           id="path270"
           style="fill:#000000;fill-opacity:1;fill-rule:nonzero;stroke:none"
           d="m 498.1344,517.7061 c -1.4445,0 -2.4338,-0.178 -2.9879,-0.4946 -0.554,-0.3364 -0.8311,-0.8905 -0.8311,-1.682 0,-0.6332 0.1979,-1.1477 0.6134,-1.5038 0.4156,-0.376 0.9894,-0.5541 1.7018,-0.5541 0.9893,0 1.7809,0.3364 2.3745,1.0487 0.5936,0.6926 0.8904,1.6226 0.8904,2.7901 v 0.3957 h -1.7611 m 3.542,0.7322 v -6.1737 h -1.7809 v 1.6423 c -0.4155,-0.6727 -0.93,-1.1476 -1.5236,-1.4445 -0.5937,-0.2968 -1.3456,-0.4551 -2.2162,-0.4551 -1.1081,0 -1.9986,0.2968 -2.6516,0.9103 -0.6529,0.6134 -0.9695,1.4444 -0.9695,2.4932 0,1.207 0.3957,2.1173 1.2268,2.7505 0.8113,0.6134 2.0183,0.93 3.6409,0.93 h 2.4932 v 0.1781 c 0,0.8112 -0.277,1.4444 -0.8113,1.8996 -0.5342,0.4353 -1.2862,0.6727 -2.2558,0.6727 -0.6332,0 -1.2268,-0.0791 -1.8204,-0.2374 -0.5936,-0.1583 -1.1477,-0.376 -1.6819,-0.653 v 1.6424 c 0.6332,0.2374 1.2664,0.4353 1.8798,0.554 0.6134,0.1187 1.207,0.1979 1.8006,0.1979 1.5633,0 2.7307,-0.4156 3.5024,-1.2268 0.7717,-0.8113 1.1675,-2.0382 1.1675,-3.6805" /><path
           id="path272"
           style="fill:#000000;fill-opacity:1;fill-rule:nonzero;stroke:none"
           d="m 514.3404,518.7945 v -6.5299 h -1.7809 v 6.4705 c 0,1.0289 -0.2176,1.7809 -0.6134,2.2953 -0.3957,0.5145 -0.9894,0.7718 -1.7809,0.7718 -0.9695,0 -1.7215,-0.3166 -2.2755,-0.9301 -0.5541,-0.6134 -0.8311,-1.4444 -0.8311,-2.4932 v -6.1143 h -1.7809 v 10.8237 h 1.7809 v -1.6819 c 0.4155,0.6332 0.9102,1.1279 1.5039,1.4445 0.5738,0.3166 1.2466,0.4947 1.9985,0.4947 1.2268,0 2.1766,-0.3958 2.8098,-1.1675 0.6332,-0.7717 0.9696,-1.8996 0.9696,-3.3836" /><path
           id="path274"
           style="fill:#000000;fill-opacity:1;fill-rule:nonzero;stroke:none"
           d="m 525.0059,521.446 v 5.8571 h 1.7809 v -15.0385 h -1.7809 v 1.6225 c -0.376,-0.6529 -0.8509,-1.1278 -1.4247,-1.4247 -0.5738,-0.2968 -1.2466,-0.4551 -2.0381,-0.4551 -1.306,0 -2.3745,0.5145 -3.2056,1.5435 -0.8311,1.0289 -1.2268,2.414 -1.2268,4.1158 0,1.7017 0.3957,3.067 1.2268,4.1158 0.8311,1.0289 1.8996,1.5632 3.2056,1.5632 0.7915,0 1.4643,-0.1583 2.0381,-0.4749 0.5738,-0.3166 1.0487,-0.7915 1.4247,-1.4247 m -6.055,-3.7794 c 0,-1.306 0.2573,-2.335 0.7915,-3.0869 0.5343,-0.7519 1.2862,-1.1081 2.236,-1.1081 0.93,0 1.6622,0.3562 2.2162,1.1081 0.5343,0.7519 0.8113,1.7809 0.8113,3.0869 0,1.3059 -0.277,2.3151 -0.8113,3.067 -0.554,0.752 -1.2862,1.1279 -2.2162,1.1279 -0.9498,0 -1.7017,-0.3759 -2.236,-1.1279 -0.5342,-0.7519 -0.7915,-1.7611 -0.7915,-3.067" /><path
           id="path276"
           style="fill:#000000;fill-opacity:1;fill-rule:nonzero;stroke:none"
           d="m 534.6424,521.8417 c -0.9498,0 -1.7017,-0.3759 -2.2557,-1.1279 -0.5541,-0.7519 -0.8311,-1.761 -0.8311,-3.0472 0,-1.306 0.2572,-2.3152 0.8113,-3.0671 0.554,-0.7519 1.3059,-1.1081 2.2755,-1.1081 0.9498,0 1.7018,0.3562 2.2558,1.1081 0.5541,0.7519 0.8311,1.7611 0.8311,3.0671 0,1.2664 -0.277,2.2953 -0.8311,3.0472 -0.554,0.752 -1.306,1.1279 -2.2558,1.1279 m 0,1.5039 c 1.5435,0 2.7505,-0.5145 3.6409,-1.5039 0.8707,-1.0091 1.3258,-2.3943 1.3258,-4.1751 0,-1.7809 -0.4551,-3.166 -1.3258,-4.1554 -0.8904,-1.0092 -2.0974,-1.5039 -3.6409,-1.5039 -1.5632,0 -2.79,0.4947 -3.6607,1.5039 -0.8706,0.9894 -1.3059,2.3745 -1.3059,4.1554 0,1.7808 0.4353,3.166 1.3059,4.1751 0.8707,0.9894 2.0975,1.5039 3.6607,1.5039" /><path
           id="path278"
           style="fill:#000000;fill-opacity:1;fill-rule:nonzero;stroke:none"
           d="m 550.9869,521.0107 c 0.4354,0.7915 0.9696,1.3653 1.583,1.761 0.6135,0.376 1.3456,0.5739 2.1965,0.5739 1.1081,0 1.9787,-0.3958 2.5921,-1.1873 0.6134,-0.7915 0.93,-1.9194 0.93,-3.3638 v -6.5299 h -1.7808 v 6.4705 c 0,1.0289 -0.1979,1.8007 -0.5541,2.3151 -0.376,0.4947 -0.93,0.752 -1.6819,0.752 -0.93,0 -1.6622,-0.3166 -2.1964,-0.9301 -0.5343,-0.6134 -0.7915,-1.4444 -0.7915,-2.4932 v -6.1143 h -1.7809 v 6.4705 c 0,1.0289 -0.1979,1.8007 -0.5541,2.3151 -0.3759,0.4947 -0.9498,0.752 -1.7017,0.752 -0.9102,0 -1.6424,-0.3166 -2.1766,-0.9301 -0.5343,-0.6134 -0.7915,-1.4444 -0.7915,-2.4932 v -6.1143 h -1.7809 v 10.8237 h 1.7809 v -1.6819 c 0.3957,0.653 0.8904,1.1477 1.4642,1.4643 0.5541,0.3166 1.2269,0.4749 2.0184,0.4749 0.7915,0 1.4445,-0.1979 1.9985,-0.5936 0.5541,-0.3958 0.9498,-0.9894 1.2268,-1.7413" /><g
           transform="matrix(1.648962,0,0,1.648962,-30.07907,231.6855)"
           id="g280"><path
             id="path282"
             style="fill:none;stroke:#ff7f0e;stroke-width:1.5;stroke-linecap:square;stroke-linejoin:round;stroke-miterlimit:10;stroke-dasharray:none;stroke-opacity:1"
             d="m 274.275,156.73 h 24" /></g><path
           id="path284"
           style="fill:#000000;fill-opacity:1;fill-rule:nonzero;stroke:none"
           d="m 479.5341,497.6267 h 9.1221 v -1.6423 h -7.1631 v -4.2741 h 6.8663 v -1.6424 h -6.8663 v -5.2239 h 7.3412 v -1.6424 h -9.3002 v 14.4251" /><path
           id="path286"
           style="fill:#000000;fill-opacity:1;fill-rule:nonzero;stroke:none"
           d="m 499.0842,492.383 v 5.8571 h 1.7809 v -15.0385 h -1.7809 v 1.6226 c -0.3759,-0.653 -0.8508,-1.1279 -1.4247,-1.4247 -0.5738,-0.2968 -1.2466,-0.4551 -2.0381,-0.4551 -1.306,0 -2.3745,0.5145 -3.2056,1.5434 -0.8311,1.029 -1.2268,2.4141 -1.2268,4.1158 0,1.7017 0.3957,3.0671 1.2268,4.1158 0.8311,1.029 1.8996,1.5632 3.2056,1.5632 0.7915,0 1.4643,-0.1583 2.0381,-0.4749 0.5739,-0.3166 1.0488,-0.7915 1.4247,-1.4247 m -6.055,-3.7794 c 0,-1.306 0.2573,-2.3349 0.7915,-3.0868 0.5343,-0.752 1.2862,-1.1081 2.236,-1.1081 0.93,0 1.6622,0.3561 2.2162,1.1081 0.5343,0.7519 0.8113,1.7808 0.8113,3.0868 0,1.306 -0.277,2.3152 -0.8113,3.0671 -0.554,0.7519 -1.2862,1.1279 -2.2162,1.1279 -0.9498,0 -1.7017,-0.376 -2.236,-1.1279 -0.5342,-0.7519 -0.7915,-1.7611 -0.7915,-3.0671" /><path
           id="path288"
           style="fill:#000000;fill-opacity:1;fill-rule:nonzero;stroke:none"
           d="m 511.6493,488.7421 c 0,1.2664 -0.277,2.2756 -0.7915,2.9879 -0.5343,0.7124 -1.2862,1.0686 -2.236,1.0686 -0.9498,0 -1.7017,-0.3562 -2.236,-1.0686 -0.5342,-0.7123 -0.7915,-1.7215 -0.7915,-2.9879 0,-1.2862 0.2573,-2.2755 0.7915,-2.9879 0.5343,-0.7123 1.2862,-1.0685 2.236,-1.0685 0.9498,0 1.7017,0.3562 2.236,1.0685 0.5145,0.7124 0.7915,1.7017 0.7915,2.9879 m 1.7809,-4.1949 c 0,-1.8205 -0.4155,-3.1858 -1.2268,-4.096 -0.8311,-0.8905 -2.0777,-1.3456 -3.7597,-1.3456 -0.6332,0 -1.207,0.0594 -1.7611,0.1385 -0.554,0.0989 -1.1081,0.2375 -1.6225,0.4353 v 1.7216 c 0.5144,-0.2771 1.0289,-0.4749 1.5434,-0.6135 0.5145,-0.1385 1.0289,-0.2176 1.5632,-0.2176 1.1477,0 2.0183,0.3166 2.612,0.9102 0.5738,0.6134 0.8706,1.5236 0.8706,2.7505 v 0.8706 c -0.3759,-0.6332 -0.8509,-1.1081 -1.4247,-1.4247 -0.5738,-0.3166 -1.2466,-0.4749 -2.0381,-0.4749 -1.3456,0 -2.4141,0.4947 -3.2254,1.5039 -0.8113,1.0091 -1.207,2.3547 -1.207,4.0366 0,1.6622 0.3957,3.0077 1.207,4.0169 0.8113,1.0092 1.8798,1.5236 3.2254,1.5236 0.7915,0 1.4643,-0.1583 2.0381,-0.4749 0.5738,-0.3166 1.0488,-0.7915 1.4247,-1.4247 v 1.6424 h 1.7809 v -9.4782" /><path
           id="path290"
           style="fill:#000000;fill-opacity:1;fill-rule:nonzero;stroke:none"
           d="m 526.3515,489.0587 v -0.8706 h -8.1723 c 0.0792,-1.2268 0.4353,-2.1767 1.1081,-2.8099 0.653,-0.6332 1.5632,-0.9498 2.7505,-0.9498 0.6727,0 1.3455,0.0792 1.9787,0.2375 0.6332,0.1583 1.2862,0.4155 1.9194,0.7717 v -1.6819 c -0.6332,-0.2771 -1.2862,-0.4947 -1.959,-0.6134 -0.6727,-0.1188 -1.3653,-0.1979 -2.0381,-0.1979 -1.7413,0 -3.1066,0.4947 -4.1158,1.484 -1.0091,0.9894 -1.5038,2.3548 -1.5038,4.0763 0,1.7611 0.4749,3.166 1.4247,4.2147 0.9498,1.029 2.2558,1.5632 3.8783,1.5632 1.4643,0 2.612,-0.4749 3.4629,-1.4049 0.831,-0.9498 1.2664,-2.2162 1.2664,-3.819 m -1.7809,0.5145 c -0.0198,0.9696 -0.2968,1.7413 -0.8113,2.3349 -0.5343,0.5739 -1.2466,0.8707 -2.1173,0.8707 -0.9894,0 -1.7809,-0.2968 -2.3745,-0.8509 -0.5936,-0.554 -0.9498,-1.3455 -1.0289,-2.3547 h 6.332" /><g
           transform="matrix(1.648962,0,0,1.648962,-30.07907,231.6855)"
           id="g292"><path
             id="path294"
             style="fill:none;stroke:#2ca02c;stroke-width:1.5;stroke-linecap:square;stroke-linejoin:round;stroke-miterlimit:10;stroke-dasharray:none;stroke-opacity:1"
             d="m 274.275,139.105 h 24" /></g><path
           id="path296"
           style="fill:#000000;fill-opacity:1;fill-rule:nonzero;stroke:none"
           d="m 479.3165,468.5638 h 1.9589 v -8.7659 c 0,-1.5434 0.2771,-2.6713 0.8311,-3.3441 0.5541,-0.6728 1.4643,-1.0092 2.7307,-1.0092 1.2466,0 2.1568,0.3364 2.7109,1.0092 0.554,0.6728 0.8509,1.8007 0.8509,3.3441 v 8.7659 h 1.9589 v -9.0033 c 0,-1.8996 -0.4749,-3.3046 -1.4049,-4.2544 -0.93,-0.9498 -2.2953,-1.4247 -4.1158,-1.4247 -1.8205,0 -3.2056,0.4749 -4.1356,1.4247 -0.93,0.9498 -1.3851,2.3548 -1.3851,4.2544 v 9.0033" /><path
           id="path298"
           style="fill:#000000;fill-opacity:1;fill-rule:nonzero;stroke:none"
           d="m 502.9428,460.6686 v -6.5299 h -1.7809 v 6.4705 c 0,1.0289 -0.2176,1.7809 -0.6134,2.2954 -0.3957,0.5144 -0.9894,0.7717 -1.7809,0.7717 -0.9696,0 -1.7215,-0.3166 -2.2755,-0.93 -0.5541,-0.6135 -0.8311,-1.4445 -0.8311,-2.4933 v -6.1143 h -1.7809 v 10.8238 h 1.7809 v -1.682 c 0.4155,0.6332 0.9102,1.1279 1.5038,1.4445 0.5739,0.3166 1.2467,0.4947 1.9986,0.4947 1.2268,0 2.1766,-0.3958 2.8098,-1.1675 0.6332,-0.7717 0.9696,-1.8996 0.9696,-3.3836" /><path
           id="path300"
           style="fill:#000000;fill-opacity:1;fill-rule:nonzero;stroke:none"
           d="m 514.2811,464.5469 v -1.6621 c -0.5145,0.277 -1.0092,0.4749 -1.5237,0.6134 -0.5145,0.1385 -1.0091,0.2176 -1.5236,0.2176 -1.1477,0 -2.0579,-0.3759 -2.6911,-1.1081 -0.6332,-0.7321 -0.9498,-1.7611 -0.9498,-3.067 0,-1.3258 0.3166,-2.3547 0.9498,-3.0869 0.6332,-0.7321 1.5434,-1.0883 2.6911,-1.0883 0.5145,0 1.0091,0.0594 1.5236,0.1979 0.5145,0.1385 1.0092,0.3562 1.5237,0.6332 v -1.6424 c -0.5145,-0.2374 -1.029,-0.4155 -1.5435,-0.5145 -0.5342,-0.0989 -1.1081,-0.1583 -1.7017,-0.1583 -1.6226,0 -2.9286,0.4947 -3.8784,1.5237 -0.9695,1.0091 -1.4444,2.3943 -1.4444,4.1356 0,1.7611 0.4749,3.1462 1.4444,4.1554 0.9696,1.0091 2.2954,1.5236 3.9971,1.5236 0.5541,0 1.0883,-0.0594 1.6028,-0.1781 0.5145,-0.1187 1.029,-0.277 1.5237,-0.4947" /><path
           id="path302"
           style="fill:#000000;fill-opacity:1;fill-rule:nonzero;stroke:none"
           d="m 526.6285,459.9958 v -0.8707 h -8.1723 c 0.0792,-1.2268 0.4354,-2.1766 1.1081,-2.8098 0.653,-0.6332 1.5632,-0.9498 2.7505,-0.9498 0.6728,0 1.3455,0.0791 1.9788,0.2375 0.6332,0.1583 1.2861,0.4155 1.9193,0.7717 v -1.682 c -0.6332,-0.277 -1.2861,-0.4947 -1.9589,-0.6134 -0.6728,-0.1187 -1.3654,-0.1979 -2.0381,-0.1979 -1.7413,0 -3.1067,0.4947 -4.1158,1.4841 -1.0092,0.9894 -1.5039,2.3547 -1.5039,4.0762 0,1.7611 0.4749,3.166 1.4247,4.2148 0.9498,1.0289 2.2558,1.5632 3.8784,1.5632 1.4642,0 2.6119,-0.4749 3.4628,-1.4049 0.8311,-0.9498 1.2664,-2.2162 1.2664,-3.819 m -1.7809,0.5145 c -0.0198,0.9695 -0.2968,1.7413 -0.8113,2.3349 -0.5343,0.5738 -1.2466,0.8706 -2.1173,0.8706 -0.9893,0 -1.7808,-0.2968 -2.3745,-0.8508 -0.5936,-0.5541 -0.9498,-1.3456 -1.0289,-2.3547 h 6.332" /><path
           id="path304"
           style="fill:#000000;fill-opacity:1;fill-rule:nonzero;stroke:none"
           d="m 535.8099,463.3003 c -0.1979,0.1187 -0.4155,0.1979 -0.653,0.2572 -0.2374,0.0396 -0.4947,0.0792 -0.7717,0.0792 -1.0092,0 -1.7809,-0.3364 -2.3151,-0.9894 -0.5541,-0.653 -0.8113,-1.583 -0.8113,-2.8098 v -5.6988 h -1.7809 v 10.8238 h 1.7809 v -1.682 c 0.3561,0.653 0.8508,1.1477 1.4445,1.4643 0.5936,0.3166 1.3257,0.4749 2.1964,0.4749 0.1187,0 0.2572,-0.0198 0.4155,-0.0198 0.1385,-0.0198 0.2968,-0.0396 0.4947,-0.0791 v -1.8205" /><path
           id="path306"
           style="fill:#000000;fill-opacity:1;fill-rule:nonzero;stroke:none"
           d="m 539.431,468.0295 v -3.067 h 3.6607 v -1.3852 h -3.6607 v -5.8769 c 0,-0.8904 0.1187,-1.4642 0.3562,-1.7017 0.2374,-0.2572 0.7321,-0.376 1.4841,-0.376 h 1.8204 v -1.484 h -1.8204 c -1.3852,0 -2.335,0.2572 -2.8494,0.7717 -0.5145,0.5145 -0.7718,1.4445 -0.7718,2.79 v 5.8769 h -1.3059 v 1.3852 h 1.3059 v 3.067 h 1.7809" /><path
           id="path308"
           style="fill:#000000;fill-opacity:1;fill-rule:nonzero;stroke:none"
           d="m 550.3537,459.5802 c -1.4445,0 -2.4338,-0.178 -2.9879,-0.4946 -0.554,-0.3364 -0.8311,-0.8905 -0.8311,-1.682 0,-0.6332 0.1979,-1.1477 0.6135,-1.5038 0.4155,-0.376 0.9893,-0.5541 1.7017,-0.5541 0.9894,0 1.7809,0.3364 2.3745,1.0488 0.5936,0.6925 0.8904,1.6225 0.8904,2.79 v 0.3957 h -1.7611 m 3.542,0.7322 v -6.1737 h -1.7809 v 1.6423 c -0.4155,-0.6727 -0.93,-1.1476 -1.5236,-1.4445 -0.5936,-0.2968 -1.3456,-0.4551 -2.2162,-0.4551 -1.1081,0 -1.9986,0.2968 -2.6515,0.9103 -0.653,0.6134 -0.9696,1.4445 -0.9696,2.4932 0,1.207 0.3957,2.1173 1.2268,2.7505 0.8113,0.6134 2.0183,0.93 3.6409,0.93 h 2.4932 v 0.1781 c 0,0.8113 -0.277,1.4445 -0.8113,1.8996 -0.5342,0.4353 -1.2861,0.6727 -2.2557,0.6727 -0.6332,0 -1.2269,-0.0791 -1.8205,-0.2374 -0.5936,-0.1583 -1.1477,-0.376 -1.6819,-0.653 v 1.6424 c 0.6332,0.2374 1.2664,0.4353 1.8798,0.554 0.6134,0.1187 1.207,0.1979 1.8006,0.1979 1.5633,0 2.7307,-0.4155 3.5024,-1.2268 0.7718,-0.8113 1.1675,-2.0381 1.1675,-3.6805" /><path
           id="path310"
           style="fill:#000000;fill-opacity:1;fill-rule:nonzero;stroke:none"
           d="m 557.5564,464.9625 h 1.7809 v -10.8238 h -1.7809 v 10.8238 m 0,4.2147 h 1.7809 v -2.2558 h -1.7809 v 2.2558" /><path
           id="path312"
           style="fill:#000000;fill-opacity:1;fill-rule:nonzero;stroke:none"
           d="m 572.0607,460.6686 v -6.5299 h -1.7809 v 6.4705 c 0,1.0289 -0.2177,1.7809 -0.6134,2.2954 -0.3958,0.5144 -0.9894,0.7717 -1.7809,0.7717 -0.9696,0 -1.7215,-0.3166 -2.2756,-0.93 -0.554,-0.6135 -0.831,-1.4445 -0.831,-2.4933 v -6.1143 h -1.7809 v 10.8238 h 1.7809 v -1.682 c 0.4155,0.6332 0.9102,1.1279 1.5038,1.4445 0.5738,0.3166 1.2466,0.4947 1.9985,0.4947 1.2269,0 2.1767,-0.3958 2.8099,-1.1675 0.6332,-0.7717 0.9696,-1.8996 0.9696,-3.3836" /><path
           id="path314"
           style="fill:#000000;fill-opacity:1;fill-rule:nonzero;stroke:none"
           d="m 577.3637,468.0295 v -3.067 h 3.6607 v -1.3852 h -3.6607 v -5.8769 c 0,-0.8904 0.1188,-1.4642 0.3562,-1.7017 0.2375,-0.2572 0.7321,-0.376 1.4841,-0.376 h 1.8204 v -1.484 h -1.8204 c -1.3852,0 -2.335,0.2572 -2.8494,0.7717 -0.5145,0.5145 -0.7718,1.4445 -0.7718,2.79 v 5.8769 h -1.3059 v 1.3852 h 1.3059 v 3.067 h 1.7809" /><path
           id="path316"
           style="fill:#000000;fill-opacity:1;fill-rule:nonzero;stroke:none"
           d="m 587.8709,453.1493 c -0.5145,-1.2664 -1.0092,-2.1173 -1.4841,-2.513 -0.4749,-0.3958 -1.1081,-0.5936 -1.8996,-0.5936 h -1.4247 v 1.484 h 1.0488 c 0.4749,0 0.8508,0.1187 1.1279,0.3562 0.277,0.2374 0.5738,0.7717 0.9102,1.6424 l 0.3166,0.7915 -4.3731,10.6457 h 1.8799 l 3.3836,-8.4691 3.3837,8.4691 h 1.8798 l -4.749,-11.8132" /><g
           transform="matrix(1.648962,0,0,1.648962,-30.07907,231.6855)"
           id="g318"><path
             id="path320"
             style="fill:none;stroke:#d62728;stroke-width:1.5;stroke-linecap:square;stroke-linejoin:round;stroke-miterlimit:10;stroke-dasharray:none;stroke-opacity:1"
             d="m 274.275,121.48 h 24" /></g><path
           id="path322"
           style="fill:#000000;fill-opacity:1;fill-rule:nonzero;stroke:none"
           d="m 485.3912,438.1751 c -1.4247,0 -2.5525,-0.5343 -3.3836,-1.583 -0.8311,-1.0686 -1.2466,-2.4933 -1.2466,-4.3137 0,-1.8205 0.4155,-3.265 1.2466,-4.3137 0.8311,-1.0685 1.9589,-1.583 3.3836,-1.583 1.405,0 2.5329,0.5145 3.3639,1.583 0.8311,1.0487 1.2466,2.4932 1.2466,4.3137 0,1.8204 -0.4155,3.2451 -1.2466,4.3137 -0.831,1.0487 -1.9589,1.583 -3.3639,1.583 m 0,1.583 c 2.0184,0 3.6212,-0.6926 4.848,-2.0381 1.207,-1.3456 1.8205,-3.166 1.8205,-5.4416 0,-2.2954 -0.6135,-4.096 -1.8205,-5.4416 -1.2268,-1.3455 -2.8296,-2.0183 -4.848,-2.0183 -2.0381,0 -3.6606,0.6728 -4.8677,2.0183 -1.2268,1.3456 -1.8204,3.1462 -1.8204,5.4416 0,2.2756 0.5936,4.096 1.8204,5.4416 1.2071,1.3455 2.8296,2.0381 4.8677,2.0381" /><path
           id="path324"
           style="fill:#000000;fill-opacity:1;fill-rule:nonzero;stroke:none"
           d="m 501.3004,434.2374 c -0.1978,0.1187 -0.4155,0.1978 -0.653,0.2572 -0.2374,0.0396 -0.4946,0.0791 -0.7717,0.0791 -1.0091,0 -1.7809,-0.3363 -2.3151,-0.9893 -0.5541,-0.653 -0.8113,-1.583 -0.8113,-2.8099 v -5.6988 h -1.7809 v 10.8238 h 1.7809 v -1.6819 c 0.3562,0.653 0.8509,1.1476 1.4445,1.4642 0.5936,0.3166 1.3258,0.4749 2.1964,0.4749 0.1187,0 0.2572,-0.0197 0.4155,-0.0197 0.1386,-0.0198 0.2969,-0.0396 0.4947,-0.0792 v -1.8204" /><path
           id="path326"
           style="fill:#000000;fill-opacity:1;fill-rule:nonzero;stroke:none"
           d="m 508.0876,430.5173 c -1.4445,0 -2.4339,-0.1781 -2.988,-0.4947 -0.554,-0.3364 -0.831,-0.8904 -0.831,-1.6819 0,-0.6332 0.1978,-1.1477 0.6134,-1.5039 0.4155,-0.3759 0.9894,-0.554 1.7017,-0.554 0.9894,0 1.7809,0.3364 2.3745,1.0487 0.5936,0.6926 0.8904,1.6226 0.8904,2.79 v 0.3958 h -1.761 m 3.5419,0.7321 v -6.1737 h -1.7809 v 1.6424 c -0.4155,-0.6728 -0.93,-1.1477 -1.5236,-1.4445 -0.5936,-0.2968 -1.3455,-0.4551 -2.2162,-0.4551 -1.1081,0 -1.9985,0.2968 -2.6515,0.9102 -0.653,0.6134 -0.9696,1.4445 -0.9696,2.4932 0,1.2071 0.3957,2.1173 1.2268,2.7505 0.8113,0.6134 2.0183,0.93 3.6409,0.93 h 2.4932 v 0.1781 c 0,0.8113 -0.277,1.4445 -0.8112,1.8996 -0.5343,0.4353 -1.2862,0.6728 -2.2558,0.6728 -0.6332,0 -1.2268,-0.0792 -1.8205,-0.2375 -0.5936,-0.1583 -1.1477,-0.3759 -1.6819,-0.6529 v 1.6423 c 0.6332,0.2375 1.2664,0.4353 1.8798,0.5541 0.6134,0.1187 1.207,0.1978 1.8007,0.1978 1.5632,0 2.7306,-0.4155 3.5024,-1.2268 0.7717,-0.8113 1.1674,-2.0381 1.1674,-3.6805" /><path
           id="path328"
           style="fill:#000000;fill-opacity:1;fill-rule:nonzero;stroke:none"
           d="m 523.0865,435.484 v -1.6622 c -0.5145,0.277 -1.0092,0.4749 -1.5236,0.6134 -0.5145,0.1385 -1.0092,0.2177 -1.5237,0.2177 -1.1476,0 -2.0579,-0.376 -2.6911,-1.1081 -0.6332,-0.7321 -0.9498,-1.7611 -0.9498,-3.0671 0,-1.3257 0.3166,-2.3547 0.9498,-3.0868 0.6332,-0.7322 1.5435,-1.0883 2.6911,-1.0883 0.5145,0 1.0092,0.0593 1.5237,0.1978 0.5144,0.1385 1.0091,0.3562 1.5236,0.6332 v -1.6423 c -0.5145,-0.2375 -1.0289,-0.4156 -1.5434,-0.5145 -0.5343,-0.0989 -1.1081,-0.1583 -1.7017,-0.1583 -1.6226,0 -2.9286,0.4947 -3.8784,1.5236 -0.9696,1.0092 -1.4445,2.3943 -1.4445,4.1356 0,1.7611 0.4749,3.1462 1.4445,4.1554 0.9696,1.0092 2.2954,1.5236 3.9971,1.5236 0.554,0 1.0883,-0.0593 1.6028,-0.178 0.5144,-0.1188 1.0289,-0.2771 1.5236,-0.4947" /><path
           id="path330"
           style="fill:#000000;fill-opacity:1;fill-rule:nonzero;stroke:none"
           d="m 526.1734,440.1143 h 1.7808 v -15.0386 h -1.7808 v 15.0386" /><path
           id="path332"
           style="fill:#000000;fill-opacity:1;fill-rule:nonzero;stroke:none"
           d="m 540.9349,430.9328 v -0.8706 h -8.1723 c 0.0792,-1.2268 0.4353,-2.1766 1.1081,-2.8098 0.653,-0.6332 1.5632,-0.9498 2.7505,-0.9498 0.6728,0 1.3455,0.0791 1.9787,0.2374 0.6332,0.1583 1.2862,0.4155 1.9194,0.7717 v -1.6819 c -0.6332,-0.277 -1.2862,-0.4947 -1.9589,-0.6134 -0.6728,-0.1188 -1.3654,-0.1979 -2.0382,-0.1979 -1.7413,0 -3.1066,0.4947 -4.1158,1.4841 -1.0091,0.9893 -1.5038,2.3547 -1.5038,4.0762 0,1.7611 0.4749,3.166 1.4247,4.2147 0.9498,1.029 2.2558,1.5632 3.8783,1.5632 1.4643,0 2.612,-0.4749 3.4629,-1.4049 0.831,-0.9498 1.2664,-2.2162 1.2664,-3.819 m -1.7809,0.5145 c -0.0198,0.9696 -0.2968,1.7413 -0.8113,2.3349 -0.5343,0.5739 -1.2466,0.8707 -2.1173,0.8707 -0.9893,0 -1.7808,-0.2968 -2.3745,-0.8509 -0.5936,-0.554 -0.9498,-1.3455 -1.0289,-2.3547 h 6.332" /></g></g></g></svg>