<?xml version="1.0" encoding="UTF-8" standalone="no"?>
<svg
   xmlns:dc="http://purl.org/dc/elements/1.1/"
   xmlns:cc="http://creativecommons.org/ns#"
   xmlns:rdf="http://www.w3.org/1999/02/22-rdf-syntax-ns#"
   xmlns:svg="http://www.w3.org/2000/svg"
   xmlns="http://www.w3.org/2000/svg"
   viewBox="0 0 816 403.16174"
   height="403.16174"
   width="816"
   xml:space="preserve"
   id="svg2"
   version="1.1"><metadata
     id="metadata8"><rdf:RDF><cc:Work
         rdf:about=""><dc:format>image/svg+xml</dc:format><dc:type
           rdf:resource="http://purl.org/dc/dcmitype/StillImage" /></cc:Work></rdf:RDF></metadata><defs
     id="defs6"><clipPath
       id="clipPath14"
       clipPathUnits="userSpaceOnUse"><path
         id="path12"
         d="M 0,0 H 612 V 792 H 0 Z" /></clipPath><clipPath
       id="clipPath24"
       clipPathUnits="userSpaceOnUse"><path
         id="path22"
         d="M 0,245.6045 H 612 V 546.3954 H 0 Z" /></clipPath><clipPath
       id="clipPath194"
       clipPathUnits="userSpaceOnUse"><path
         id="path192"
         d="M 58.9929,270.8997 H 610.7518 V 544.9993 H 58.9929 Z" /></clipPath><clipPath
       id="clipPath206"
       clipPathUnits="userSpaceOnUse"><path
         id="path204"
         d="M 58.9929,270.8997 H 610.7518 V 544.9993 H 58.9929 Z" /></clipPath><clipPath
       id="clipPath218"
       clipPathUnits="userSpaceOnUse"><path
         id="path216"
         d="M 58.9929,270.8997 H 610.7518 V 544.9993 H 58.9929 Z" /></clipPath><clipPath
       id="clipPath230"
       clipPathUnits="userSpaceOnUse"><path
         id="path228"
         d="M 58.9929,270.8997 H 610.7518 V 544.9993 H 58.9929 Z" /></clipPath><clipPath
       id="clipPath242"
       clipPathUnits="userSpaceOnUse"><path
         id="path240"
         d="M 0,245.6045 H 612 V 546.3954 H 0 Z" /></clipPath></defs><g
     clip-path="url(#clipPath14)"
     transform="matrix(1.3333333,0,0,-1.3333333,0,729.4812)"
     id="g10"><g
       id="g16" /><g
       id="g18"><g
         clip-path="url(#clipPath24)"
         id="g20"><path
           id="path26"
           style="fill:#ffffff;fill-opacity:1;fill-rule:nonzero;stroke:none"
           d="m -30.00047,231.7426 h 711.947 v 355.9735 h -711.947 z" /><path
           id="path28"
           style="fill:#ffffff;fill-opacity:1;fill-rule:nonzero;stroke:none"
           d="M 58.9929,270.8997 H 610.7518 V 544.9993 H 58.9929 Z" /><g
           transform="matrix(1.648025,0,0,1.648025,-30.00047,231.7426)"
           id="g30"><path
             id="path32"
             style="fill:#000000;fill-opacity:1;fill-rule:nonzero;stroke:#000000;stroke-width:0.80000001;stroke-linecap:butt;stroke-linejoin:round;stroke-miterlimit:10;stroke-dasharray:none;stroke-opacity:1"
             d="m 69.21818,23.76 v -3.5" /></g><path
           id="path34"
           style="fill:#000000;fill-opacity:1;fill-rule:nonzero;stroke:none"
           d="m 76.20662,257.7917 c -0.8405,0 -1.46675,-0.412 -1.89523,-1.236 -0.42849,-0.824 -0.62625,-2.06 -0.62625,-3.7081 0,-1.648 0.19776,-2.884 0.62625,-3.708 0.42848,-0.824 1.05473,-1.236 1.89523,-1.236 0.84049,0 1.46674,0.412 1.89522,1.236 0.41201,0.824 0.62625,2.06 0.62625,3.708 0,1.6481 -0.21424,2.8841 -0.62625,3.7081 -0.42848,0.824 -1.05473,1.236 -1.89522,1.236 m 0,1.2855 c 1.3349,0 2.35667,-0.5439 3.0818,-1.5986 0.70865,-1.0712 1.07122,-2.6204 1.07122,-4.631 0,-2.027 -0.36257,-3.5762 -1.07122,-4.6309 -0.72513,-1.0548 -1.7469,-1.5821 -3.0818,-1.5821 -1.35139,0 -2.38964,0.5273 -3.09829,1.5821 -0.70865,1.0547 -1.05474,2.6039 -1.05474,4.6309 0,2.0106 0.34609,3.5598 1.05474,4.631 0.70865,1.0547 1.7469,1.5986 3.09829,1.5986" /><path
           id="path36"
           style="fill:#000000;fill-opacity:1;fill-rule:nonzero;stroke:none"
           d="m 83.21072,248.8924 h 1.69747 v -2.0436 h -1.69747 v 2.0436" /><path
           id="path38"
           style="fill:#000000;fill-opacity:1;fill-rule:nonzero;stroke:none"
           d="m 91.92878,257.7917 c -0.8405,0 -1.46675,-0.412 -1.89523,-1.236 -0.42849,-0.824 -0.62625,-2.06 -0.62625,-3.7081 0,-1.648 0.19776,-2.884 0.62625,-3.708 0.42848,-0.824 1.05473,-1.236 1.89523,-1.236 0.84049,0 1.46674,0.412 1.89523,1.236 0.412,0.824 0.62625,2.06 0.62625,3.708 0,1.6481 -0.21425,2.8841 -0.62625,3.7081 -0.42849,0.824 -1.05474,1.236 -1.89523,1.236 m 0,1.2855 c 1.3349,0 2.35667,-0.5439 3.0818,-1.5986 0.70866,-1.0712 1.07122,-2.6204 1.07122,-4.631 0,-2.027 -0.36256,-3.5762 -1.07122,-4.6309 -0.72513,-1.0548 -1.7469,-1.5821 -3.0818,-1.5821 -1.35138,0 -2.38964,0.5273 -3.09829,1.5821 -0.70865,1.0547 -1.05474,2.6039 -1.05474,4.6309 0,2.0106 0.34609,3.5598 1.05474,4.631 0.70865,1.0547 1.74691,1.5986 3.09829,1.5986" /><g
           transform="matrix(1.648025,0,0,1.648025,-30.00047,231.7426)"
           id="g40"><path
             id="path42"
             style="fill:#000000;fill-opacity:1;fill-rule:nonzero;stroke:#000000;stroke-width:0.80000001;stroke-linecap:butt;stroke-linejoin:round;stroke-miterlimit:10;stroke-dasharray:none;stroke-opacity:1"
             d="m 130.0909,23.76 v -3.5" /></g><path
           id="path44"
           style="fill:#000000;fill-opacity:1;fill-rule:nonzero;stroke:none"
           d="m 176.5264,257.7917 c -0.8405,0 -1.4667,-0.412 -1.8952,-1.236 -0.4285,-0.824 -0.6263,-2.06 -0.6263,-3.7081 0,-1.648 0.1978,-2.884 0.6263,-3.708 0.4285,-0.824 1.0547,-1.236 1.8952,-1.236 0.8405,0 1.4668,0.412 1.8952,1.236 0.412,0.824 0.6263,2.06 0.6263,3.708 0,1.6481 -0.2143,2.8841 -0.6263,3.7081 -0.4284,0.824 -1.0547,1.236 -1.8952,1.236 m 0,1.2855 c 1.3349,0 2.3567,-0.5439 3.0818,-1.5986 0.7087,-1.0712 1.0712,-2.6204 1.0712,-4.631 0,-2.027 -0.3625,-3.5762 -1.0712,-4.6309 -0.7251,-1.0548 -1.7469,-1.5821 -3.0818,-1.5821 -1.3514,0 -2.3896,0.5273 -3.0983,1.5821 -0.7086,1.0547 -1.0547,2.6039 -1.0547,4.6309 0,2.0106 0.3461,3.5598 1.0547,4.631 0.7087,1.0547 1.7469,1.5986 3.0983,1.5986" /><path
           id="path46"
           style="fill:#000000;fill-opacity:1;fill-rule:nonzero;stroke:none"
           d="m 183.5305,248.8924 h 1.6975 v -2.0436 h -1.6975 v 2.0436" /><path
           id="path48"
           style="fill:#000000;fill-opacity:1;fill-rule:nonzero;stroke:none"
           d="m 189.0514,248.2167 h 2.6533 v 9.163 l -2.884,-0.5768 v 1.4832 l 2.8675,0.5768 h 1.6316 v -10.6462 h 2.6533 v -1.3679 h -6.9217 v 1.3679" /><g
           transform="matrix(1.648025,0,0,1.648025,-30.00047,231.7426)"
           id="g50"><path
             id="path52"
             style="fill:#000000;fill-opacity:1;fill-rule:nonzero;stroke:#000000;stroke-width:0.80000001;stroke-linecap:butt;stroke-linejoin:round;stroke-miterlimit:10;stroke-dasharray:none;stroke-opacity:1"
             d="m 190.9636,23.76 v -3.5" /></g><path
           id="path54"
           style="fill:#000000;fill-opacity:1;fill-rule:nonzero;stroke:none"
           d="m 276.8462,257.7917 c -0.8405,0 -1.4667,-0.412 -1.8952,-1.236 -0.4285,-0.824 -0.6263,-2.06 -0.6263,-3.7081 0,-1.648 0.1978,-2.884 0.6263,-3.708 0.4285,-0.824 1.0547,-1.236 1.8952,-1.236 0.8405,0 1.4668,0.412 1.8952,1.236 0.412,0.824 0.6263,2.06 0.6263,3.708 0,1.6481 -0.2143,2.8841 -0.6263,3.7081 -0.4284,0.824 -1.0547,1.236 -1.8952,1.236 m 0,1.2855 c 1.3349,0 2.3567,-0.5439 3.0818,-1.5986 0.7087,-1.0712 1.0712,-2.6204 1.0712,-4.631 0,-2.027 -0.3625,-3.5762 -1.0712,-4.6309 -0.7251,-1.0548 -1.7469,-1.5821 -3.0818,-1.5821 -1.3514,0 -2.3896,0.5273 -3.0983,1.5821 -0.7086,1.0547 -1.0547,2.6039 -1.0547,4.6309 0,2.0106 0.3461,3.5598 1.0547,4.631 0.7087,1.0547 1.7469,1.5986 3.0983,1.5986" /><path
           id="path56"
           style="fill:#000000;fill-opacity:1;fill-rule:nonzero;stroke:none"
           d="m 283.8503,248.8924 h 1.6975 v -2.0436 h -1.6975 v 2.0436" /><path
           id="path58"
           style="fill:#000000;fill-opacity:1;fill-rule:nonzero;stroke:none"
           d="m 290.4919,248.2167 h 5.6692 v -1.3679 h -7.6304 v 1.3679 c 0.6098,0.6262 1.4503,1.4832 2.5215,2.5709 1.0547,1.0712 1.7304,1.7634 2.0106,2.0765 0.5273,0.5768 0.8899,1.0712 1.0877,1.4832 0.1977,0.3956 0.3131,0.8076 0.3131,1.2031 0,0.6262 -0.2307,1.1536 -0.6757,1.5491 -0.445,0.3956 -1.0218,0.6098 -1.7469,0.6098 -0.5109,0 -1.0547,-0.0989 -1.6151,-0.2637 -0.5603,-0.1813 -1.1701,-0.4449 -1.8128,-0.8075 v 1.648 c 0.6592,0.2637 1.269,0.4615 1.8293,0.5933 0.5603,0.1318 1.0877,0.1978 1.5656,0.1978 1.2361,0 2.2249,-0.3132 2.9665,-0.9394 0.7416,-0.6263 1.1206,-1.4503 1.1206,-2.4885 0,-0.4944 -0.0988,-0.9724 -0.2801,-1.4008 -0.1813,-0.445 -0.5109,-0.9724 -1.0053,-1.5657 -0.1319,-0.1648 -0.5603,-0.6097 -1.2855,-1.3514 -0.7251,-0.7416 -1.7304,-1.7798 -3.0323,-3.1147" /><g
           transform="matrix(1.648025,0,0,1.648025,-30.00047,231.7426)"
           id="g60"><path
             id="path62"
             style="fill:#000000;fill-opacity:1;fill-rule:nonzero;stroke:#000000;stroke-width:0.80000001;stroke-linecap:butt;stroke-linejoin:round;stroke-miterlimit:10;stroke-dasharray:none;stroke-opacity:1"
             d="m 251.8364,23.76 v -3.5" /></g><path
           id="path64"
           style="fill:#000000;fill-opacity:1;fill-rule:nonzero;stroke:none"
           d="m 377.166,257.7917 c -0.8405,0 -1.4667,-0.412 -1.8952,-1.236 -0.4285,-0.824 -0.6263,-2.06 -0.6263,-3.7081 0,-1.648 0.1978,-2.884 0.6263,-3.708 0.4285,-0.824 1.0547,-1.236 1.8952,-1.236 0.8405,0 1.4668,0.412 1.8952,1.236 0.412,0.824 0.6263,2.06 0.6263,3.708 0,1.6481 -0.2143,2.8841 -0.6263,3.7081 -0.4284,0.824 -1.0547,1.236 -1.8952,1.236 m 0,1.2855 c 1.3349,0 2.3567,-0.5439 3.0818,-1.5986 0.7087,-1.0712 1.0712,-2.6204 1.0712,-4.631 0,-2.027 -0.3625,-3.5762 -1.0712,-4.6309 -0.7251,-1.0548 -1.7469,-1.5821 -3.0818,-1.5821 -1.3514,0 -2.3896,0.5273 -3.0983,1.5821 -0.7086,1.0547 -1.0547,2.6039 -1.0547,4.6309 0,2.0106 0.3461,3.5598 1.0547,4.631 0.7087,1.0547 1.7469,1.5986 3.0983,1.5986" /><path
           id="path66"
           style="fill:#000000;fill-opacity:1;fill-rule:nonzero;stroke:none"
           d="m 384.1701,248.8924 h 1.6975 v -2.0436 h -1.6975 v 2.0436" /><path
           id="path68"
           style="fill:#000000;fill-opacity:1;fill-rule:nonzero;stroke:none"
           d="m 394.3384,253.3256 c 0.7746,-0.1648 1.3844,-0.5109 1.8129,-1.0383 0.4284,-0.5274 0.6592,-1.1866 0.6592,-1.9447 0,-1.1865 -0.412,-2.1094 -1.2196,-2.7522 -0.824,-0.6427 -1.9776,-0.9558 -3.4773,-0.9558 -0.5109,0 -1.0383,0.0494 -1.5656,0.1483 -0.5274,0.0824 -1.0877,0.2307 -1.6481,0.4285 v 1.5656 c 0.445,-0.2637 0.9394,-0.4614 1.4833,-0.5933 0.5273,-0.1318 1.0877,-0.1977 1.681,-0.1977 1.0217,0 1.7963,0.1977 2.3237,0.5932 0.5273,0.3956 0.8075,0.9889 0.8075,1.7634 0,0.6922 -0.2472,1.2525 -0.7416,1.6481 -0.4944,0.3955 -1.1866,0.6097 -2.0765,0.6097 h -1.4008 v 1.3349 h 1.4667 c 0.7911,0 1.4008,0.1484 1.8293,0.478 0.4285,0.3131 0.6427,0.7745 0.6427,1.3843 0,0.6098 -0.2307,1.0877 -0.6592,1.4173 -0.4449,0.3296 -1.0712,0.4944 -1.8787,0.4944 -0.445,0 -0.9229,-0.0494 -1.4338,-0.1483 -0.5109,-0.0989 -1.0712,-0.2472 -1.681,-0.445 v 1.4503 c 0.6098,0.1648 1.1866,0.2966 1.7304,0.379 0.5274,0.0824 1.0383,0.1319 1.5327,0.1319 1.2195,0 2.1919,-0.2802 2.917,-0.8405 0.7251,-0.5604 1.0877,-1.3184 1.0877,-2.2743 0,-0.6592 -0.1978,-1.2195 -0.5768,-1.681 -0.379,-0.4614 -0.9229,-0.791 -1.6151,-0.9558" /><g
           transform="matrix(1.648025,0,0,1.648025,-30.00047,231.7426)"
           id="g70"><path
             id="path72"
             style="fill:#000000;fill-opacity:1;fill-rule:nonzero;stroke:#000000;stroke-width:0.80000001;stroke-linecap:butt;stroke-linejoin:round;stroke-miterlimit:10;stroke-dasharray:none;stroke-opacity:1"
             d="m 312.7091,23.76 v -3.5" /></g><path
           id="path74"
           style="fill:#000000;fill-opacity:1;fill-rule:nonzero;stroke:none"
           d="m 477.4858,257.7917 c -0.8405,0 -1.4667,-0.412 -1.8952,-1.236 -0.4285,-0.824 -0.6263,-2.06 -0.6263,-3.7081 0,-1.648 0.1978,-2.884 0.6263,-3.708 0.4285,-0.824 1.0547,-1.236 1.8952,-1.236 0.8405,0 1.4667,0.412 1.8952,1.236 0.412,0.824 0.6263,2.06 0.6263,3.708 0,1.6481 -0.2143,2.8841 -0.6263,3.7081 -0.4285,0.824 -1.0547,1.236 -1.8952,1.236 m 0,1.2855 c 1.3349,0 2.3567,-0.5439 3.0818,-1.5986 0.7087,-1.0712 1.0712,-2.6204 1.0712,-4.631 0,-2.027 -0.3625,-3.5762 -1.0712,-4.6309 -0.7251,-1.0548 -1.7469,-1.5821 -3.0818,-1.5821 -1.3514,0 -2.3896,0.5273 -3.0983,1.5821 -0.7086,1.0547 -1.0547,2.6039 -1.0547,4.6309 0,2.0106 0.3461,3.5598 1.0547,4.631 0.7087,1.0547 1.7469,1.5986 3.0983,1.5986" /><path
           id="path76"
           style="fill:#000000;fill-opacity:1;fill-rule:nonzero;stroke:none"
           d="m 484.4899,248.8924 h 1.6975 v -2.0436 h -1.6975 v 2.0436" /><path
           id="path78"
           style="fill:#000000;fill-opacity:1;fill-rule:nonzero;stroke:none"
           d="m 494.1968,257.4456 -4.1036,-6.4108 h 4.1036 v 6.4108 m -0.4285,1.4173 h 2.0435 v -7.8281 h 1.714 v -1.3514 h -1.714 v -2.8346 h -1.615 v 2.8346 h -5.422 v 1.5656 l 4.9935,7.6139" /><g
           transform="matrix(1.648025,0,0,1.648025,-30.00047,231.7426)"
           id="g80"><path
             id="path82"
             style="fill:#000000;fill-opacity:1;fill-rule:nonzero;stroke:#000000;stroke-width:0.80000001;stroke-linecap:butt;stroke-linejoin:round;stroke-miterlimit:10;stroke-dasharray:none;stroke-opacity:1"
             d="m 373.5818,23.76 v -3.5" /></g><path
           id="path84"
           style="fill:#000000;fill-opacity:1;fill-rule:nonzero;stroke:none"
           d="m 577.8056,257.7917 c -0.8405,0 -1.4667,-0.412 -1.8952,-1.236 -0.4285,-0.824 -0.6263,-2.06 -0.6263,-3.7081 0,-1.648 0.1978,-2.884 0.6263,-3.708 0.4285,-0.824 1.0547,-1.236 1.8952,-1.236 0.8405,0 1.4667,0.412 1.8952,1.236 0.412,0.824 0.6263,2.06 0.6263,3.708 0,1.6481 -0.2143,2.8841 -0.6263,3.7081 -0.4285,0.824 -1.0547,1.236 -1.8952,1.236 m 0,1.2855 c 1.3349,0 2.3567,-0.5439 3.0818,-1.5986 0.7087,-1.0712 1.0712,-2.6204 1.0712,-4.631 0,-2.027 -0.3625,-3.5762 -1.0712,-4.6309 -0.7251,-1.0548 -1.7469,-1.5821 -3.0818,-1.5821 -1.3514,0 -2.3896,0.5273 -3.0983,1.5821 -0.7086,1.0547 -1.0547,2.6039 -1.0547,4.6309 0,2.0106 0.3461,3.5598 1.0547,4.631 0.7087,1.0547 1.7469,1.5986 3.0983,1.5986" /><path
           id="path86"
           style="fill:#000000;fill-opacity:1;fill-rule:nonzero;stroke:none"
           d="m 584.8097,248.8924 h 1.6975 v -2.0436 h -1.6975 v 2.0436" /><path
           id="path88"
           style="fill:#000000;fill-opacity:1;fill-rule:nonzero;stroke:none"
           d="m 590.0669,258.8629 h 6.3779 v -1.3678 h -4.8947 v -2.95 c 0.2308,0.0824 0.478,0.1483 0.7087,0.1813 0.2307,0.0329 0.4779,0.0659 0.7086,0.0659 1.3349,0 2.3897,-0.379 3.1807,-1.1042 0.7911,-0.7416 1.1866,-1.7304 1.1866,-2.9829 0,-1.3019 -0.412,-2.3072 -1.2195,-3.0159 -0.8076,-0.7086 -1.9447,-1.0547 -3.395,-1.0547 -0.5109,0 -1.0217,0.0494 -1.5491,0.1153 -0.5274,0.0824 -1.0547,0.1978 -1.6151,0.3791 v 1.6315 c 0.478,-0.2637 0.9724,-0.4614 1.4997,-0.5933 0.5109,-0.1318 1.0548,-0.1812 1.6316,-0.1812 0.9229,0 1.6645,0.2307 2.2083,0.7251 0.5274,0.4944 0.8076,1.1536 0.8076,1.9941 0,0.824 -0.2802,1.4832 -0.8076,1.9776 -0.5438,0.4944 -1.2854,0.7416 -2.2083,0.7416 -0.4285,0 -0.8735,-0.0494 -1.302,-0.1483 -0.4285,-0.0989 -0.8734,-0.2472 -1.3184,-0.4449 v 6.0317" /><g
           transform="matrix(1.648025,0,0,1.648025,-30.00047,231.7426)"
           id="g90"><path
             id="path92"
             style="fill:#000000;fill-opacity:1;fill-rule:nonzero;stroke:#000000;stroke-width:0.80000001;stroke-linecap:butt;stroke-linejoin:round;stroke-miterlimit:10;stroke-dasharray:none;stroke-opacity:1"
             d="M 54,31.32 H 50.5" /></g><path
           id="path94"
           style="fill:#000000;fill-opacity:1;fill-rule:nonzero;stroke:none"
           d="m 5.522714,288.0443 c -0.840493,0 -1.466742,-0.412 -1.895229,-1.236 -0.428487,-0.824 -0.62625,-2.06 -0.62625,-3.7081 0,-1.648 0.197763,-2.884 0.62625,-3.708 0.428487,-0.824 1.054736,-1.236 1.895229,-1.236 0.840493,0 1.466743,0.412 1.895229,1.236 0.412007,0.824 0.62625,2.06 0.62625,3.708 0,1.6481 -0.214243,2.8841 -0.62625,3.7081 -0.428486,0.824 -1.054736,1.236 -1.895229,1.236 m 0,1.2855 c 1.334901,0 2.356677,-0.5439 3.081808,-1.5986 0.708651,-1.0712 1.071216,-2.6204 1.071216,-4.631 0,-2.027 -0.362565,-3.5762 -1.071216,-4.6309 -0.725131,-1.0548 -1.746907,-1.5821 -3.081808,-1.5821 -1.351381,0 -2.389637,0.5273 -3.098287,1.5821 -0.708651,1.0547 -1.054737,2.6039 -1.054737,4.6309 0,2.0106 0.346086,3.5598 1.054737,4.631 0.70865,1.0547 1.746906,1.5986 3.098287,1.5986" /><path
           id="path96"
           style="fill:#000000;fill-opacity:1;fill-rule:nonzero;stroke:none"
           d="m 12.52682,279.145 h 1.69747 v -2.0436 h -1.69747 v 2.0436" /><path
           id="path98"
           style="fill:#000000;fill-opacity:1;fill-rule:nonzero;stroke:none"
           d="m 21.24488,288.0443 c -0.8405,0 -1.46675,-0.412 -1.89523,-1.236 -0.42849,-0.824 -0.62625,-2.06 -0.62625,-3.7081 0,-1.648 0.19776,-2.884 0.62625,-3.708 0.42848,-0.824 1.05473,-1.236 1.89523,-1.236 0.84049,0 1.46674,0.412 1.89523,1.236 0.412,0.824 0.62624,2.06 0.62624,3.708 0,1.6481 -0.21424,2.8841 -0.62624,3.7081 -0.42849,0.824 -1.05474,1.236 -1.89523,1.236 m 0,1.2855 c 1.3349,0 2.35667,-0.5439 3.0818,-1.5986 0.70865,-1.0712 1.07122,-2.6204 1.07122,-4.631 0,-2.027 -0.36257,-3.5762 -1.07122,-4.6309 -0.72513,-1.0548 -1.7469,-1.5821 -3.0818,-1.5821 -1.35138,0 -2.38964,0.5273 -3.09829,1.5821 -0.70865,1.0547 -1.05474,2.6039 -1.05474,4.6309 0,2.0106 0.34609,3.5598 1.05474,4.631 0.70865,1.0547 1.74691,1.5986 3.09829,1.5986" /><path
           id="path100"
           style="fill:#000000;fill-opacity:1;fill-rule:nonzero;stroke:none"
           d="m 31.72632,288.0443 c -0.8405,0 -1.46675,-0.412 -1.89523,-1.236 -0.42849,-0.824 -0.62625,-2.06 -0.62625,-3.7081 0,-1.648 0.19776,-2.884 0.62625,-3.708 0.42848,-0.824 1.05473,-1.236 1.89523,-1.236 0.84049,0 1.46674,0.412 1.89523,1.236 0.412,0.824 0.62625,2.06 0.62625,3.708 0,1.6481 -0.21425,2.8841 -0.62625,3.7081 -0.42849,0.824 -1.05474,1.236 -1.89523,1.236 m 0,1.2855 c 1.3349,0 2.35667,-0.5439 3.0818,-1.5986 0.70866,-1.0712 1.07122,-2.6204 1.07122,-4.631 0,-2.027 -0.36256,-3.5762 -1.07122,-4.6309 -0.72513,-1.0548 -1.7469,-1.5821 -3.0818,-1.5821 -1.35138,0 -2.38964,0.5273 -3.09829,1.5821 -0.70865,1.0547 -1.05474,2.6039 -1.05474,4.6309 0,2.0106 0.34609,3.5598 1.05474,4.631 0.70865,1.0547 1.74691,1.5986 3.09829,1.5986" /><path
           id="path102"
           style="fill:#000000;fill-opacity:1;fill-rule:nonzero;stroke:none"
           d="m 42.20776,288.0443 c -0.84049,0 -1.46674,-0.412 -1.89523,-1.236 -0.42849,-0.824 -0.62625,-2.06 -0.62625,-3.7081 0,-1.648 0.19776,-2.884 0.62625,-3.708 0.42849,-0.824 1.05474,-1.236 1.89523,-1.236 0.84049,0 1.46674,0.412 1.89523,1.236 0.412,0.824 0.62625,2.06 0.62625,3.708 0,1.6481 -0.21425,2.8841 -0.62625,3.7081 -0.42849,0.824 -1.05474,1.236 -1.89523,1.236 m 0,1.2855 c 1.3349,0 2.35667,-0.5439 3.08181,-1.5986 0.70865,-1.0712 1.07121,-2.6204 1.07121,-4.631 0,-2.027 -0.36256,-3.5762 -1.07121,-4.6309 -0.72514,-1.0548 -1.74691,-1.5821 -3.08181,-1.5821 -1.35138,0 -2.38964,0.5273 -3.09829,1.5821 -0.70865,1.0547 -1.05474,2.6039 -1.05474,4.6309 0,2.0106 0.34609,3.5598 1.05474,4.631 0.70865,1.0547 1.74691,1.5986 3.09829,1.5986" /><g
           transform="matrix(1.648025,0,0,1.648025,-30.00047,231.7426)"
           id="g104"><path
             id="path106"
             style="fill:#000000;fill-opacity:1;fill-rule:nonzero;stroke:#000000;stroke-width:0.80000001;stroke-linecap:butt;stroke-linejoin:round;stroke-miterlimit:10;stroke-dasharray:none;stroke-opacity:1"
             d="M 54,54.05922 H 50.5" /></g><path
           id="path108"
           style="fill:#000000;fill-opacity:1;fill-rule:nonzero;stroke:none"
           d="m 5.522714,325.5191 c -0.840493,0 -1.466742,-0.412 -1.895229,-1.236 -0.428487,-0.824 -0.62625,-2.06 -0.62625,-3.7081 0,-1.648 0.197763,-2.884 0.62625,-3.708 0.428487,-0.824 1.054736,-1.236 1.895229,-1.236 0.840493,0 1.466743,0.412 1.895229,1.236 0.412007,0.824 0.62625,2.06 0.62625,3.708 0,1.6481 -0.214243,2.8841 -0.62625,3.7081 -0.428486,0.824 -1.054736,1.236 -1.895229,1.236 m 0,1.2855 c 1.334901,0 2.356677,-0.5439 3.081808,-1.5986 0.708651,-1.0712 1.071216,-2.6204 1.071216,-4.631 0,-2.027 -0.362565,-3.5762 -1.071216,-4.6309 -0.725131,-1.0548 -1.746907,-1.5821 -3.081808,-1.5821 -1.351381,0 -2.389637,0.5273 -3.098287,1.5821 -0.708651,1.0547 -1.054737,2.6039 -1.054737,4.6309 0,2.0106 0.346086,3.5598 1.054737,4.631 0.70865,1.0547 1.746906,1.5986 3.098287,1.5986" /><path
           id="path110"
           style="fill:#000000;fill-opacity:1;fill-rule:nonzero;stroke:none"
           d="m 12.52682,316.6198 h 1.69747 v -2.0436 h -1.69747 v 2.0436" /><path
           id="path112"
           style="fill:#000000;fill-opacity:1;fill-rule:nonzero;stroke:none"
           d="m 21.24488,325.5191 c -0.8405,0 -1.46675,-0.412 -1.89523,-1.236 -0.42849,-0.824 -0.62625,-2.06 -0.62625,-3.7081 0,-1.648 0.19776,-2.884 0.62625,-3.708 0.42848,-0.824 1.05473,-1.236 1.89523,-1.236 0.84049,0 1.46674,0.412 1.89523,1.236 0.412,0.824 0.62624,2.06 0.62624,3.708 0,1.6481 -0.21424,2.8841 -0.62624,3.7081 -0.42849,0.824 -1.05474,1.236 -1.89523,1.236 m 0,1.2855 c 1.3349,0 2.35667,-0.5439 3.0818,-1.5986 0.70865,-1.0712 1.07122,-2.6204 1.07122,-4.631 0,-2.027 -0.36257,-3.5762 -1.07122,-4.6309 -0.72513,-1.0548 -1.7469,-1.5821 -3.0818,-1.5821 -1.35138,0 -2.38964,0.5273 -3.09829,1.5821 -0.70865,1.0547 -1.05474,2.6039 -1.05474,4.6309 0,2.0106 0.34609,3.5598 1.05474,4.631 0.70865,1.0547 1.74691,1.5986 3.09829,1.5986" /><path
           id="path114"
           style="fill:#000000;fill-opacity:1;fill-rule:nonzero;stroke:none"
           d="m 31.72632,325.5191 c -0.8405,0 -1.46675,-0.412 -1.89523,-1.236 -0.42849,-0.824 -0.62625,-2.06 -0.62625,-3.7081 0,-1.648 0.19776,-2.884 0.62625,-3.708 0.42848,-0.824 1.05473,-1.236 1.89523,-1.236 0.84049,0 1.46674,0.412 1.89523,1.236 0.412,0.824 0.62625,2.06 0.62625,3.708 0,1.6481 -0.21425,2.8841 -0.62625,3.7081 -0.42849,0.824 -1.05474,1.236 -1.89523,1.236 m 0,1.2855 c 1.3349,0 2.35667,-0.5439 3.0818,-1.5986 0.70866,-1.0712 1.07122,-2.6204 1.07122,-4.631 0,-2.027 -0.36256,-3.5762 -1.07122,-4.6309 -0.72513,-1.0548 -1.7469,-1.5821 -3.0818,-1.5821 -1.35138,0 -2.38964,0.5273 -3.09829,1.5821 -0.70865,1.0547 -1.05474,2.6039 -1.05474,4.6309 0,2.0106 0.34609,3.5598 1.05474,4.631 0.70865,1.0547 1.74691,1.5986 3.09829,1.5986" /><path
           id="path116"
           style="fill:#000000;fill-opacity:1;fill-rule:nonzero;stroke:none"
           d="m 40.13125,315.9441 h 5.6692 v -1.3679 H 38.1701 v 1.3679 c 0.60977,0.6262 1.45026,1.4832 2.52148,2.5709 1.05473,1.0712 1.73042,1.7634 2.01059,2.0765 0.52736,0.5768 0.88993,1.0712 1.08769,1.4832 0.19777,0.3956 0.31313,0.8076 0.31313,1.2031 0,0.6262 -0.23073,1.1536 -0.67569,1.5491 -0.44497,0.3956 -1.02178,0.6098 -1.74691,0.6098 -0.51089,0 -1.05474,-0.0989 -1.61506,-0.2637 -0.56033,-0.1813 -1.1701,-0.4449 -1.81283,-0.8075 v 1.648 c 0.65921,0.2637 1.26898,0.4615 1.82931,0.5933 0.56032,0.1319 1.08769,0.1978 1.56562,0.1978 1.23602,0 2.22483,-0.3132 2.96645,-0.9394 0.74161,-0.6263 1.12065,-1.4503 1.12065,-2.4885 0,-0.4944 -0.09888,-0.9724 -0.28016,-1.4008 -0.18128,-0.445 -0.51089,-0.9724 -1.0053,-1.5657 -0.13184,-0.1648 -0.56033,-0.6097 -1.28546,-1.3513 -0.72513,-0.7417 -1.73042,-1.7799 -3.03236,-3.1148" /><g
           transform="matrix(1.648025,0,0,1.648025,-30.00047,231.7426)"
           id="g118"><path
             id="path120"
             style="fill:#000000;fill-opacity:1;fill-rule:nonzero;stroke:#000000;stroke-width:0.80000001;stroke-linecap:butt;stroke-linejoin:round;stroke-miterlimit:10;stroke-dasharray:none;stroke-opacity:1"
             d="M 54,76.79844 H 50.5" /></g><path
           id="path122"
           style="fill:#000000;fill-opacity:1;fill-rule:nonzero;stroke:none"
           d="m 5.522714,362.9939 c -0.840493,0 -1.466742,-0.412 -1.895229,-1.236 -0.428487,-0.824 -0.62625,-2.06 -0.62625,-3.7081 0,-1.648 0.197763,-2.884 0.62625,-3.708 0.428487,-0.824 1.054736,-1.236 1.895229,-1.236 0.840493,0 1.466743,0.412 1.895229,1.236 0.412007,0.824 0.62625,2.06 0.62625,3.708 0,1.6481 -0.214243,2.8841 -0.62625,3.7081 -0.428486,0.824 -1.054736,1.236 -1.895229,1.236 m 0,1.2855 c 1.334901,0 2.356677,-0.5439 3.081808,-1.5986 0.708651,-1.0712 1.071216,-2.6204 1.071216,-4.631 0,-2.027 -0.362565,-3.5762 -1.071216,-4.6309 -0.725131,-1.0547 -1.746907,-1.5821 -3.081808,-1.5821 -1.351381,0 -2.389637,0.5274 -3.098287,1.5821 -0.708651,1.0547 -1.054737,2.6039 -1.054737,4.6309 0,2.0106 0.346086,3.5598 1.054737,4.631 0.70865,1.0547 1.746906,1.5986 3.098287,1.5986" /><path
           id="path124"
           style="fill:#000000;fill-opacity:1;fill-rule:nonzero;stroke:none"
           d="m 12.52682,354.0946 h 1.69747 v -2.0436 h -1.69747 v 2.0436" /><path
           id="path126"
           style="fill:#000000;fill-opacity:1;fill-rule:nonzero;stroke:none"
           d="m 21.24488,362.9939 c -0.8405,0 -1.46675,-0.412 -1.89523,-1.236 -0.42849,-0.824 -0.62625,-2.06 -0.62625,-3.7081 0,-1.648 0.19776,-2.884 0.62625,-3.708 0.42848,-0.824 1.05473,-1.236 1.89523,-1.236 0.84049,0 1.46674,0.412 1.89523,1.236 0.412,0.824 0.62624,2.06 0.62624,3.708 0,1.6481 -0.21424,2.8841 -0.62624,3.7081 -0.42849,0.824 -1.05474,1.236 -1.89523,1.236 m 0,1.2855 c 1.3349,0 2.35667,-0.5439 3.0818,-1.5986 0.70865,-1.0712 1.07122,-2.6204 1.07122,-4.631 0,-2.027 -0.36257,-3.5762 -1.07122,-4.6309 -0.72513,-1.0547 -1.7469,-1.5821 -3.0818,-1.5821 -1.35138,0 -2.38964,0.5274 -3.09829,1.5821 -0.70865,1.0547 -1.05474,2.6039 -1.05474,4.6309 0,2.0106 0.34609,3.5598 1.05474,4.631 0.70865,1.0547 1.74691,1.5986 3.09829,1.5986" /><path
           id="path128"
           style="fill:#000000;fill-opacity:1;fill-rule:nonzero;stroke:none"
           d="m 31.72632,362.9939 c -0.8405,0 -1.46675,-0.412 -1.89523,-1.236 -0.42849,-0.824 -0.62625,-2.06 -0.62625,-3.7081 0,-1.648 0.19776,-2.884 0.62625,-3.708 0.42848,-0.824 1.05473,-1.236 1.89523,-1.236 0.84049,0 1.46674,0.412 1.89523,1.236 0.412,0.824 0.62625,2.06 0.62625,3.708 0,1.6481 -0.21425,2.8841 -0.62625,3.7081 -0.42849,0.824 -1.05474,1.236 -1.89523,1.236 m 0,1.2855 c 1.3349,0 2.35667,-0.5439 3.0818,-1.5986 0.70866,-1.0712 1.07122,-2.6204 1.07122,-4.631 0,-2.027 -0.36256,-3.5762 -1.07122,-4.6309 -0.72513,-1.0547 -1.7469,-1.5821 -3.0818,-1.5821 -1.35138,0 -2.38964,0.5274 -3.09829,1.5821 -0.70865,1.0547 -1.05474,2.6039 -1.05474,4.6309 0,2.0106 0.34609,3.5598 1.05474,4.631 0.70865,1.0547 1.74691,1.5986 3.09829,1.5986" /><path
           id="path130"
           style="fill:#000000;fill-opacity:1;fill-rule:nonzero;stroke:none"
           d="m 43.19657,362.6478 -4.10358,-6.4108 h 4.10358 v 6.4108 m -0.42848,1.4173 h 2.04355 v -7.8281 h 1.71395 v -1.3514 h -1.71395 v -2.8346 h -1.61507 v 2.8346 h -5.422 v 1.5657 l 4.99352,7.6138" /><g
           transform="matrix(1.648025,0,0,1.648025,-30.00047,231.7426)"
           id="g132"><path
             id="path134"
             style="fill:#000000;fill-opacity:1;fill-rule:nonzero;stroke:#000000;stroke-width:0.80000001;stroke-linecap:butt;stroke-linejoin:round;stroke-miterlimit:10;stroke-dasharray:none;stroke-opacity:1"
             d="M 54,99.53766 H 50.5" /></g><path
           id="path136"
           style="fill:#000000;fill-opacity:1;fill-rule:nonzero;stroke:none"
           d="m 5.522714,400.4687 c -0.840493,0 -1.466742,-0.412 -1.895229,-1.236 -0.428487,-0.824 -0.62625,-2.06 -0.62625,-3.708 0,-1.6481 0.197763,-2.8841 0.62625,-3.7081 0.428487,-0.824 1.054736,-1.236 1.895229,-1.236 0.840493,0 1.466743,0.412 1.895229,1.236 0.412007,0.824 0.62625,2.06 0.62625,3.7081 0,1.648 -0.214243,2.884 -0.62625,3.708 -0.428486,0.824 -1.054736,1.236 -1.895229,1.236 m 0,1.2855 c 1.334901,0 2.356677,-0.5439 3.081808,-1.5986 0.708651,-1.0712 1.071216,-2.6204 1.071216,-4.6309 0,-2.0271 -0.362565,-3.5763 -1.071216,-4.631 -0.725131,-1.0547 -1.746907,-1.5821 -3.081808,-1.5821 -1.351381,0 -2.389637,0.5274 -3.098287,1.5821 -0.708651,1.0547 -1.054737,2.6039 -1.054737,4.631 0,2.0105 0.346086,3.5597 1.054737,4.6309 0.70865,1.0547 1.746906,1.5986 3.098287,1.5986" /><path
           id="path138"
           style="fill:#000000;fill-opacity:1;fill-rule:nonzero;stroke:none"
           d="m 12.52682,391.5694 h 1.69747 v -2.0436 h -1.69747 v 2.0436" /><path
           id="path140"
           style="fill:#000000;fill-opacity:1;fill-rule:nonzero;stroke:none"
           d="m 21.24488,400.4687 c -0.8405,0 -1.46675,-0.412 -1.89523,-1.236 -0.42849,-0.824 -0.62625,-2.06 -0.62625,-3.708 0,-1.6481 0.19776,-2.8841 0.62625,-3.7081 0.42848,-0.824 1.05473,-1.236 1.89523,-1.236 0.84049,0 1.46674,0.412 1.89523,1.236 0.412,0.824 0.62624,2.06 0.62624,3.7081 0,1.648 -0.21424,2.884 -0.62624,3.708 -0.42849,0.824 -1.05474,1.236 -1.89523,1.236 m 0,1.2855 c 1.3349,0 2.35667,-0.5439 3.0818,-1.5986 0.70865,-1.0712 1.07122,-2.6204 1.07122,-4.6309 0,-2.0271 -0.36257,-3.5763 -1.07122,-4.631 -0.72513,-1.0547 -1.7469,-1.5821 -3.0818,-1.5821 -1.35138,0 -2.38964,0.5274 -3.09829,1.5821 -0.70865,1.0547 -1.05474,2.6039 -1.05474,4.631 0,2.0105 0.34609,3.5597 1.05474,4.6309 0.70865,1.0547 1.74691,1.5986 3.09829,1.5986" /><path
           id="path142"
           style="fill:#000000;fill-opacity:1;fill-rule:nonzero;stroke:none"
           d="m 31.72632,400.4687 c -0.8405,0 -1.46675,-0.412 -1.89523,-1.236 -0.42849,-0.824 -0.62625,-2.06 -0.62625,-3.708 0,-1.6481 0.19776,-2.8841 0.62625,-3.7081 0.42848,-0.824 1.05473,-1.236 1.89523,-1.236 0.84049,0 1.46674,0.412 1.89523,1.236 0.412,0.824 0.62625,2.06 0.62625,3.7081 0,1.648 -0.21425,2.884 -0.62625,3.708 -0.42849,0.824 -1.05474,1.236 -1.89523,1.236 m 0,1.2855 c 1.3349,0 2.35667,-0.5439 3.0818,-1.5986 0.70866,-1.0712 1.07122,-2.6204 1.07122,-4.6309 0,-2.0271 -0.36256,-3.5763 -1.07122,-4.631 -0.72513,-1.0547 -1.7469,-1.5821 -3.0818,-1.5821 -1.35138,0 -2.38964,0.5274 -3.09829,1.5821 -0.70865,1.0547 -1.05474,2.6039 -1.05474,4.631 0,2.0105 0.34609,3.5597 1.05474,4.6309 0.70865,1.0547 1.74691,1.5986 3.09829,1.5986" /><path
           id="path144"
           style="fill:#000000;fill-opacity:1;fill-rule:nonzero;stroke:none"
           d="m 42.40552,396.1839 c -0.72513,0 -1.30194,-0.2637 -1.73042,-0.7581 -0.42849,-0.4944 -0.64273,-1.1866 -0.64273,-2.0436 0,-0.8734 0.21424,-1.5656 0.64273,-2.06 0.42848,-0.4944 1.00529,-0.7416 1.73042,-0.7416 0.72513,0 1.30194,0.2472 1.73043,0.7416 0.42848,0.4944 0.64273,1.1866 0.64273,2.06 0,0.857 -0.21425,1.5492 -0.64273,2.0436 -0.42849,0.4944 -1.0053,0.7581 -1.73043,0.7581 m 3.23013,5.0924 v -1.4833 c -0.412,0.1978 -0.82401,0.3461 -1.23602,0.445 -0.42848,0.0989 -0.84049,0.1483 -1.23602,0.1483 -1.08769,0 -1.91171,-0.3625 -2.47203,-1.0877 -0.56033,-0.7251 -0.88994,-1.8293 -0.95586,-3.2795 0.31313,0.4614 0.70865,0.824 1.18658,1.0712 0.47793,0.2472 1.00529,0.379 1.5821,0.379 1.20306,0 2.15892,-0.379 2.85109,-1.1041 0.69217,-0.7252 1.05473,-1.7305 1.05473,-2.983 0,-1.236 -0.37904,-2.2248 -1.10417,-2.9664 -0.72513,-0.7416 -1.69747,-1.1042 -2.90053,-1.1042 -1.38434,0 -2.45556,0.5274 -3.18069,1.5821 -0.74161,1.0547 -1.10417,2.6039 -1.10417,4.631 0,1.8952 0.44496,3.4114 1.35138,4.532 0.88993,1.1207 2.10947,1.6975 3.62565,1.6975 0.39553,0 0.80753,-0.0494 1.23602,-0.1154 0.41201,-0.0824 0.84049,-0.1977 1.30194,-0.3625" /><g
           transform="matrix(1.648025,0,0,1.648025,-30.00047,231.7426)"
           id="g146"><path
             id="path148"
             style="fill:#000000;fill-opacity:1;fill-rule:nonzero;stroke:#000000;stroke-width:0.80000001;stroke-linecap:butt;stroke-linejoin:round;stroke-miterlimit:10;stroke-dasharray:none;stroke-opacity:1"
             d="M 54,122.2769 H 50.5" /></g><path
           id="path150"
           style="fill:#000000;fill-opacity:1;fill-rule:nonzero;stroke:none"
           d="m 5.522714,437.9435 c -0.840493,0 -1.466742,-0.412 -1.895229,-1.236 -0.428487,-0.824 -0.62625,-2.06 -0.62625,-3.708 0,-1.6481 0.197763,-2.8841 0.62625,-3.7081 0.428487,-0.824 1.054736,-1.236 1.895229,-1.236 0.840493,0 1.466743,0.412 1.895229,1.236 0.412007,0.824 0.62625,2.06 0.62625,3.7081 0,1.648 -0.214243,2.884 -0.62625,3.708 -0.428486,0.824 -1.054736,1.236 -1.895229,1.236 m 0,1.2855 c 1.334901,0 2.356677,-0.5438 3.081808,-1.5986 0.708651,-1.0712 1.071216,-2.6203 1.071216,-4.6309 0,-2.0271 -0.362565,-3.5762 -1.071216,-4.631 -0.725131,-1.0547 -1.746907,-1.5821 -3.081808,-1.5821 -1.351381,0 -2.389637,0.5274 -3.098287,1.5821 -0.708651,1.0548 -1.054737,2.6039 -1.054737,4.631 0,2.0106 0.346086,3.5597 1.054737,4.6309 0.70865,1.0548 1.746906,1.5986 3.098287,1.5986" /><path
           id="path152"
           style="fill:#000000;fill-opacity:1;fill-rule:nonzero;stroke:none"
           d="m 12.52682,429.0442 h 1.69747 v -2.0435 h -1.69747 v 2.0435" /><path
           id="path154"
           style="fill:#000000;fill-opacity:1;fill-rule:nonzero;stroke:none"
           d="m 21.24488,437.9435 c -0.8405,0 -1.46675,-0.412 -1.89523,-1.236 -0.42849,-0.824 -0.62625,-2.06 -0.62625,-3.708 0,-1.6481 0.19776,-2.8841 0.62625,-3.7081 0.42848,-0.824 1.05473,-1.236 1.89523,-1.236 0.84049,0 1.46674,0.412 1.89523,1.236 0.412,0.824 0.62624,2.06 0.62624,3.7081 0,1.648 -0.21424,2.884 -0.62624,3.708 -0.42849,0.824 -1.05474,1.236 -1.89523,1.236 m 0,1.2855 c 1.3349,0 2.35667,-0.5438 3.0818,-1.5986 0.70865,-1.0712 1.07122,-2.6203 1.07122,-4.6309 0,-2.0271 -0.36257,-3.5762 -1.07122,-4.631 -0.72513,-1.0547 -1.7469,-1.5821 -3.0818,-1.5821 -1.35138,0 -2.38964,0.5274 -3.09829,1.5821 -0.70865,1.0548 -1.05474,2.6039 -1.05474,4.631 0,2.0106 0.34609,3.5597 1.05474,4.6309 0.70865,1.0548 1.74691,1.5986 3.09829,1.5986" /><path
           id="path156"
           style="fill:#000000;fill-opacity:1;fill-rule:nonzero;stroke:none"
           d="m 31.72632,437.9435 c -0.8405,0 -1.46675,-0.412 -1.89523,-1.236 -0.42849,-0.824 -0.62625,-2.06 -0.62625,-3.708 0,-1.6481 0.19776,-2.8841 0.62625,-3.7081 0.42848,-0.824 1.05473,-1.236 1.89523,-1.236 0.84049,0 1.46674,0.412 1.89523,1.236 0.412,0.824 0.62625,2.06 0.62625,3.7081 0,1.648 -0.21425,2.884 -0.62625,3.708 -0.42849,0.824 -1.05474,1.236 -1.89523,1.236 m 0,1.2855 c 1.3349,0 2.35667,-0.5438 3.0818,-1.5986 0.70866,-1.0712 1.07122,-2.6203 1.07122,-4.6309 0,-2.0271 -0.36256,-3.5762 -1.07122,-4.631 -0.72513,-1.0547 -1.7469,-1.5821 -3.0818,-1.5821 -1.35138,0 -2.38964,0.5274 -3.09829,1.5821 -0.70865,1.0548 -1.05474,2.6039 -1.05474,4.631 0,2.0106 0.34609,3.5597 1.05474,4.6309 0.70865,1.0548 1.74691,1.5986 3.09829,1.5986" /><path
           id="path158"
           style="fill:#000000;fill-opacity:1;fill-rule:nonzero;stroke:none"
           d="m 42.20776,432.7028 c -0.77457,0 -1.38434,-0.2142 -1.82931,-0.6262 -0.44497,-0.412 -0.65921,-0.9724 -0.65921,-1.6975 0,-0.7251 0.21424,-1.3019 0.65921,-1.7139 0.44497,-0.412 1.05474,-0.6098 1.82931,-0.6098 0.75809,0 1.36786,0.1978 1.81283,0.6262 0.44496,0.412 0.67569,0.9724 0.67569,1.6975 0,0.7251 -0.23073,1.2855 -0.65921,1.6975 -0.44497,0.412 -1.05474,0.6262 -1.82931,0.6262 m -1.63155,0.6922 c -0.69217,0.1648 -1.23602,0.4944 -1.63154,0.9723 -0.39553,0.478 -0.57681,1.0548 -0.57681,1.7469 0,0.9559 0.3296,1.714 1.02178,2.2743 0.67569,0.5603 1.61506,0.8405 2.81812,0.8405 1.18658,0 2.12595,-0.2802 2.81812,-0.8405 0.67569,-0.5603 1.02178,-1.3184 1.02178,-2.2743 0,-0.6921 -0.19777,-1.2689 -0.59329,-1.7469 -0.39553,-0.4779 -0.9229,-0.8075 -1.61507,-0.9723 0.77458,-0.1813 1.38435,-0.5439 1.82931,-1.0712 0.42849,-0.5274 0.65921,-1.1866 0.65921,-1.9447 0,-1.1701 -0.36256,-2.06 -1.07121,-2.6698 -0.72514,-0.6262 -1.73043,-0.9229 -3.04885,-0.9229 -1.3349,0 -2.35668,0.2967 -3.06533,0.9229 -0.70865,0.6098 -1.05473,1.4997 -1.05473,2.6698 0,0.7581 0.21424,1.4173 0.65921,1.9447 0.42848,0.5273 1.03825,0.8899 1.8293,1.0712 m -0.59329,2.5709 c 0,-0.6262 0.18129,-1.1206 0.57681,-1.4667 0.39553,-0.3461 0.93938,-0.5109 1.64803,-0.5109 0.69217,0 1.23602,0.1648 1.63154,0.5109 0.39553,0.3461 0.59329,0.8405 0.59329,1.4667 0,0.6263 -0.19776,1.1042 -0.59329,1.4503 -0.39552,0.3461 -0.93937,0.5273 -1.63154,0.5273 -0.70865,0 -1.2525,-0.1812 -1.64803,-0.5273 -0.39552,-0.3461 -0.57681,-0.824 -0.57681,-1.4503" /><g
           transform="matrix(1.648025,0,0,1.648025,-30.00047,231.7426)"
           id="g160"><path
             id="path162"
             style="fill:#000000;fill-opacity:1;fill-rule:nonzero;stroke:#000000;stroke-width:0.80000001;stroke-linecap:butt;stroke-linejoin:round;stroke-miterlimit:10;stroke-dasharray:none;stroke-opacity:1"
             d="M 54,145.0161 H 50.5" /></g><path
           id="path164"
           style="fill:#000000;fill-opacity:1;fill-rule:nonzero;stroke:none"
           d="m 5.522714,475.4184 c -0.840493,0 -1.466742,-0.4121 -1.895229,-1.2361 -0.428487,-0.824 -0.62625,-2.06 -0.62625,-3.708 0,-1.648 0.197763,-2.8841 0.62625,-3.7081 0.428487,-0.824 1.054736,-1.236 1.895229,-1.236 0.840493,0 1.466743,0.412 1.895229,1.236 0.412007,0.824 0.62625,2.0601 0.62625,3.7081 0,1.648 -0.214243,2.884 -0.62625,3.708 -0.428486,0.824 -1.054736,1.2361 -1.895229,1.2361 m 0,1.2854 c 1.334901,0 2.356677,-0.5438 3.081808,-1.5986 0.708651,-1.0712 1.071216,-2.6203 1.071216,-4.6309 0,-2.0271 -0.362565,-3.5762 -1.071216,-4.631 -0.725131,-1.0547 -1.746907,-1.5821 -3.081808,-1.5821 -1.351381,0 -2.389637,0.5274 -3.098287,1.5821 -0.708651,1.0548 -1.054737,2.6039 -1.054737,4.631 0,2.0106 0.346086,3.5597 1.054737,4.6309 0.70865,1.0548 1.746906,1.5986 3.098287,1.5986" /><path
           id="path166"
           style="fill:#000000;fill-opacity:1;fill-rule:nonzero;stroke:none"
           d="m 12.52682,466.519 h 1.69747 v -2.0435 h -1.69747 v 2.0435" /><path
           id="path168"
           style="fill:#000000;fill-opacity:1;fill-rule:nonzero;stroke:none"
           d="m 21.24488,475.4184 c -0.8405,0 -1.46675,-0.4121 -1.89523,-1.2361 -0.42849,-0.824 -0.62625,-2.06 -0.62625,-3.708 0,-1.648 0.19776,-2.8841 0.62625,-3.7081 0.42848,-0.824 1.05473,-1.236 1.89523,-1.236 0.84049,0 1.46674,0.412 1.89523,1.236 0.412,0.824 0.62624,2.0601 0.62624,3.7081 0,1.648 -0.21424,2.884 -0.62624,3.708 -0.42849,0.824 -1.05474,1.2361 -1.89523,1.2361 m 0,1.2854 c 1.3349,0 2.35667,-0.5438 3.0818,-1.5986 0.70865,-1.0712 1.07122,-2.6203 1.07122,-4.6309 0,-2.0271 -0.36257,-3.5762 -1.07122,-4.631 -0.72513,-1.0547 -1.7469,-1.5821 -3.0818,-1.5821 -1.35138,0 -2.38964,0.5274 -3.09829,1.5821 -0.70865,1.0548 -1.05474,2.6039 -1.05474,4.631 0,2.0106 0.34609,3.5597 1.05474,4.6309 0.70865,1.0548 1.74691,1.5986 3.09829,1.5986" /><path
           id="path170"
           style="fill:#000000;fill-opacity:1;fill-rule:nonzero;stroke:none"
           d="m 28.52915,465.8433 h 2.65332 v 9.163 l -2.88405,-0.5768 v 1.4833 l 2.86757,0.5768 h 1.63154 v -10.6463 h 2.65332 v -1.3678 h -6.9217 v 1.3678" /><path
           id="path172"
           style="fill:#000000;fill-opacity:1;fill-rule:nonzero;stroke:none"
           d="m 42.20776,475.4184 c -0.84049,0 -1.46674,-0.4121 -1.89523,-1.2361 -0.42849,-0.824 -0.62625,-2.06 -0.62625,-3.708 0,-1.648 0.19776,-2.8841 0.62625,-3.7081 0.42849,-0.824 1.05474,-1.236 1.89523,-1.236 0.84049,0 1.46674,0.412 1.89523,1.236 0.412,0.824 0.62625,2.0601 0.62625,3.7081 0,1.648 -0.21425,2.884 -0.62625,3.708 -0.42849,0.824 -1.05474,1.2361 -1.89523,1.2361 m 0,1.2854 c 1.3349,0 2.35667,-0.5438 3.08181,-1.5986 0.70865,-1.0712 1.07121,-2.6203 1.07121,-4.6309 0,-2.0271 -0.36256,-3.5762 -1.07121,-4.631 -0.72514,-1.0547 -1.74691,-1.5821 -3.08181,-1.5821 -1.35138,0 -2.38964,0.5274 -3.09829,1.5821 -0.70865,1.0548 -1.05474,2.6039 -1.05474,4.631 0,2.0106 0.34609,3.5597 1.05474,4.6309 0.70865,1.0548 1.74691,1.5986 3.09829,1.5986" /><g
           transform="matrix(1.648025,0,0,1.648025,-30.00047,231.7426)"
           id="g174"><path
             id="path176"
             style="fill:#000000;fill-opacity:1;fill-rule:nonzero;stroke:#000000;stroke-width:0.80000001;stroke-linecap:butt;stroke-linejoin:round;stroke-miterlimit:10;stroke-dasharray:none;stroke-opacity:1"
             d="M 54,167.7553 H 50.5" /></g><path
           id="path178"
           style="fill:#000000;fill-opacity:1;fill-rule:nonzero;stroke:none"
           d="m 5.522714,512.8932 c -0.840493,0 -1.466742,-0.412 -1.895229,-1.2361 -0.428487,-0.824 -0.62625,-2.06 -0.62625,-3.708 0,-1.648 0.197763,-2.8841 0.62625,-3.7081 0.428487,-0.824 1.054736,-1.236 1.895229,-1.236 0.840493,0 1.466743,0.412 1.895229,1.236 0.412007,0.824 0.62625,2.0601 0.62625,3.7081 0,1.648 -0.214243,2.884 -0.62625,3.708 -0.428486,0.8241 -1.054736,1.2361 -1.895229,1.2361 m 0,1.2854 c 1.334901,0 2.356677,-0.5438 3.081808,-1.5986 0.708651,-1.0712 1.071216,-2.6203 1.071216,-4.6309 0,-2.0271 -0.362565,-3.5762 -1.071216,-4.631 -0.725131,-1.0547 -1.746907,-1.5821 -3.081808,-1.5821 -1.351381,0 -2.389637,0.5274 -3.098287,1.5821 -0.708651,1.0548 -1.054737,2.6039 -1.054737,4.631 0,2.0106 0.346086,3.5597 1.054737,4.6309 0.70865,1.0548 1.746906,1.5986 3.098287,1.5986" /><path
           id="path180"
           style="fill:#000000;fill-opacity:1;fill-rule:nonzero;stroke:none"
           d="m 12.52682,503.9938 h 1.69747 v -2.0435 h -1.69747 v 2.0435" /><path
           id="path182"
           style="fill:#000000;fill-opacity:1;fill-rule:nonzero;stroke:none"
           d="m 21.24488,512.8932 c -0.8405,0 -1.46675,-0.412 -1.89523,-1.2361 -0.42849,-0.824 -0.62625,-2.06 -0.62625,-3.708 0,-1.648 0.19776,-2.8841 0.62625,-3.7081 0.42848,-0.824 1.05473,-1.236 1.89523,-1.236 0.84049,0 1.46674,0.412 1.89523,1.236 0.412,0.824 0.62624,2.0601 0.62624,3.7081 0,1.648 -0.21424,2.884 -0.62624,3.708 -0.42849,0.8241 -1.05474,1.2361 -1.89523,1.2361 m 0,1.2854 c 1.3349,0 2.35667,-0.5438 3.0818,-1.5986 0.70865,-1.0712 1.07122,-2.6203 1.07122,-4.6309 0,-2.0271 -0.36257,-3.5762 -1.07122,-4.631 -0.72513,-1.0547 -1.7469,-1.5821 -3.0818,-1.5821 -1.35138,0 -2.38964,0.5274 -3.09829,1.5821 -0.70865,1.0548 -1.05474,2.6039 -1.05474,4.631 0,2.0106 0.34609,3.5597 1.05474,4.6309 0.70865,1.0548 1.74691,1.5986 3.09829,1.5986" /><path
           id="path184"
           style="fill:#000000;fill-opacity:1;fill-rule:nonzero;stroke:none"
           d="m 28.52915,503.3181 h 2.65332 v 9.1631 l -2.88405,-0.5769 v 1.4833 l 2.86757,0.5768 h 1.63154 v -10.6463 h 2.65332 v -1.3678 h -6.9217 v 1.3678" /><path
           id="path186"
           style="fill:#000000;fill-opacity:1;fill-rule:nonzero;stroke:none"
           d="m 40.13125,503.3181 h 5.6692 v -1.3678 H 38.1701 v 1.3678 c 0.60977,0.6263 1.45026,1.4833 2.52148,2.571 1.05473,1.0712 1.73042,1.7633 2.01059,2.0765 0.52736,0.5768 0.88993,1.0712 1.08769,1.4832 0.19777,0.3955 0.31313,0.8075 0.31313,1.203 0,0.6263 -0.23073,1.1537 -0.67569,1.5492 -0.44497,0.3955 -1.02178,0.6098 -1.74691,0.6098 -0.51089,0 -1.05474,-0.0989 -1.61506,-0.2637 -0.56033,-0.1813 -1.1701,-0.445 -1.81283,-0.8076 v 1.6481 c 0.65921,0.2637 1.26898,0.4614 1.82931,0.5933 0.56032,0.1318 1.08769,0.1977 1.56562,0.1977 1.23602,0 2.22483,-0.3131 2.96645,-0.9394 0.74161,-0.6262 1.12065,-1.4502 1.12065,-2.4885 0,-0.4944 -0.09888,-0.9723 -0.28016,-1.4008 -0.18128,-0.445 -0.51089,-0.9723 -1.0053,-1.5656 -0.13184,-0.1648 -0.56033,-0.6098 -1.28546,-1.3514 -0.72513,-0.7416 -1.73042,-1.7799 -3.03236,-3.1148" /></g></g><g
       id="g188"><g
         clip-path="url(#clipPath194)"
         id="g190"><g
           transform="matrix(1.648025,0,0,1.648025,-30.00047,231.7426)"
           id="g196"><path
             id="path198"
             style="fill:none;stroke:#1f77b4;stroke-width:1.5;stroke-linecap:square;stroke-linejoin:round;stroke-miterlimit:10;stroke-dasharray:none;stroke-opacity:1"
             d="m 69.21818,182.52 30.43636,-7.9628 30.43636,-8.839 30.4364,-9.8736 30.4363,-11.1268 30.4364,-12.6031 30.4364,-14.39 30.4363,-16.6189 L 312.7091,81.73064 343.1455,58.8169 373.5818,31.32" /></g></g></g><g
       id="g200"><g
         clip-path="url(#clipPath206)"
         id="g202"><g
           transform="matrix(1.648025,0,0,1.648025,-30.00047,231.7426)"
           id="g208"><path
             id="path210"
             style="fill:none;stroke:#ff7f0e;stroke-width:1.5;stroke-linecap:square;stroke-linejoin:round;stroke-miterlimit:10;stroke-dasharray:none;stroke-opacity:1"
             d="M 69.21818,182.52 99.65454,164.7934 130.0909,153.095 160.5273,141.259 190.9636,128.7164 221.4,115.2718 251.8364,100.8412 282.2727,85.29678 312.7091,68.64876 343.1455,50.76911 373.5818,31.32" /></g></g></g><g
       id="g212"><g
         clip-path="url(#clipPath218)"
         id="g214"><g
           transform="matrix(1.648025,0,0,1.648025,-30.00047,231.7426)"
           id="g220"><path
             id="path222"
             style="fill:none;stroke:#2ca02c;stroke-width:1.5;stroke-linecap:square;stroke-linejoin:round;stroke-miterlimit:10;stroke-dasharray:none;stroke-opacity:1"
             d="M 69.21818,182.52 99.65454,135.8787 130.0909,111.9445 160.5273,93.64734 190.9636,78.41942 221.4,65.32067 251.8364,53.91598 282.2727,44.54774 312.7091,37.74057 343.1455,33.38031 373.5818,31.32" /></g></g></g><g
       id="g224"><g
         clip-path="url(#clipPath230)"
         id="g226"><g
           transform="matrix(1.648025,0,0,1.648025,-30.00047,231.7426)"
           id="g232"><path
             id="path234"
             style="fill:none;stroke:#d62728;stroke-width:1.5;stroke-linecap:square;stroke-linejoin:round;stroke-miterlimit:10;stroke-dasharray:none;stroke-opacity:1"
             d="M 69.21818,182.52 99.65454,84.1623 130.0909,57.62459 160.5273,45.50638 190.9636,39.12882 221.4,35.5788 l 30.4364,-2.0209 30.4363,-1.15519 30.4364,-0.64369 30.4364,-0.3272 30.4363,-0.11182" /></g></g></g><g
       id="g236"><g
         clip-path="url(#clipPath242)"
         id="g238"><g
           transform="matrix(1.648025,0,0,1.648025,-30.00047,231.7426)"
           id="g244"><path
             id="path246"
             style="fill:none;stroke:#000000;stroke-width:0.80000001;stroke-linecap:square;stroke-linejoin:miter;stroke-miterlimit:10;stroke-dasharray:none;stroke-opacity:1"
             d="M 54,23.76 V 190.08" /></g><g
           transform="matrix(1.648025,0,0,1.648025,-30.00047,231.7426)"
           id="g248"><path
             id="path250"
             style="fill:none;stroke:#000000;stroke-width:0.80000001;stroke-linecap:square;stroke-linejoin:miter;stroke-miterlimit:10;stroke-dasharray:none;stroke-opacity:1"
             d="M 388.8,23.76 V 190.08" /></g><g
           transform="matrix(1.648025,0,0,1.648025,-30.00047,231.7426)"
           id="g252"><path
             id="path254"
             style="fill:none;stroke:#000000;stroke-width:0.80000001;stroke-linecap:square;stroke-linejoin:miter;stroke-miterlimit:10;stroke-dasharray:none;stroke-opacity:1"
             d="M 54,23.76 H 388.8" /></g><g
           transform="matrix(1.648025,0,0,1.648025,-30.00047,231.7426)"
           id="g256"><path
             id="path258"
             style="fill:none;stroke:#000000;stroke-width:0.80000001;stroke-linecap:square;stroke-linejoin:miter;stroke-miterlimit:10;stroke-dasharray:none;stroke-opacity:1"
             d="M 54,190.08 H 388.8" /></g><g
           transform="matrix(1.648025,0,0,1.648025,-30.00047,231.7426)"
           id="g260"><path
             id="path262"
             style="fill:#ffffff;fill-opacity:0.8;fill-rule:nonzero;stroke:#cccccc;stroke-width:1;stroke-linecap:butt;stroke-linejoin:miter;stroke-miterlimit:10;stroke-dasharray:none;stroke-opacity:0.8"
             d="M 271.875,109.98 H 380.4 c 1.6,0 2.4,0.8 2.4,2.4 v 69.3 c 0,1.6 -0.8,2.4 -2.4,2.4 H 271.875 c -1.6,0 -2.4,-0.8 -2.4,-2.4 v -69.3 c 0,-1.6 0.8,-2.4 2.4,-2.4 z" /></g><g
           transform="matrix(1.648025,0,0,1.648025,-30.00047,231.7426)"
           id="g264"><path
             id="path266"
             style="fill:none;stroke:#1f77b4;stroke-width:1.5;stroke-linecap:square;stroke-linejoin:round;stroke-miterlimit:10;stroke-dasharray:none;stroke-opacity:1"
             d="m 274.275,174.355 h 24" /></g><path
           id="path268"
           style="fill:#000000;fill-opacity:1;fill-rule:nonzero;stroke:none"
           d="m 486.166,518.9259 c 0.4153,-0.1583 0.8306,-0.4549 1.2261,-0.9098 0.3956,-0.4746 0.7911,-1.1074 1.1866,-1.9183 l 1.9777,-3.9354 h -2.0963 l -1.8392,3.6981 c -0.4747,0.9493 -0.9493,1.6019 -1.3844,1.9183 -0.4548,0.3165 -1.0679,0.4747 -1.8392,0.4747 h -2.116 v -6.0911 h -1.9579 v 14.4169 h 4.4101 c 1.6415,0 2.8676,-0.356 3.6784,-1.0284 0.8108,-0.6922 1.2262,-1.7403 1.2262,-3.1246 0,-0.9097 -0.2176,-1.681 -0.6329,-2.2743 -0.4351,-0.5933 -1.0481,-1.0086 -1.8392,-1.2261 m -4.8847,6.0515 v -5.1221 h 2.4522 c 0.9295,0 1.6415,0.2176 2.1161,0.6527 0.4746,0.435 0.7317,1.0679 0.7317,1.9183 0,0.8306 -0.2571,1.4634 -0.7317,1.8985 -0.4746,0.4351 -1.1866,0.6526 -2.1161,0.6526 h -2.4522" /><path
           id="path270"
           style="fill:#000000;fill-opacity:1;fill-rule:nonzero;stroke:none"
           d="m 497.9131,517.6008 c -1.4436,0 -2.4324,-0.1779 -2.9862,-0.4944 -0.5537,-0.3362 -0.8306,-0.8899 -0.8306,-1.6809 0,-0.6329 0.1978,-1.1471 0.6131,-1.503 0.4153,-0.3758 0.9888,-0.5538 1.7007,-0.5538 0.9889,0 1.7799,0.3362 2.3732,1.0482 0.5933,0.6921 0.8899,1.6216 0.8899,2.7884 v 0.3955 h -1.7601 m 3.54,0.7318 v -6.1702 h -1.7799 v 1.6414 c -0.4153,-0.6724 -0.9295,-1.147 -1.5227,-1.4437 -0.5933,-0.2966 -1.3448,-0.4548 -2.215,-0.4548 -1.1075,0 -1.9974,0.2966 -2.65,0.9097 -0.6526,0.613 -0.9691,1.4436 -0.9691,2.4918 0,1.2063 0.3956,2.1161 1.2262,2.7489 0.8108,0.6131 2.0172,0.9295 3.6388,0.9295 h 2.4918 v 0.178 c 0,0.8108 -0.2768,1.4436 -0.8108,1.8985 -0.534,0.4351 -1.2855,0.6724 -2.2545,0.6724 -0.6328,0 -1.2261,-0.0791 -1.8194,-0.2373 -0.5933,-0.1582 -1.147,-0.3758 -1.681,-0.6526 v 1.6414 c 0.6328,0.2373 1.2657,0.4351 1.8787,0.5537 0.6131,0.1187 1.2064,0.1978 1.7997,0.1978 1.5623,0 2.7291,-0.4153 3.5004,-1.2261 0.7713,-0.8109 1.1668,-2.037 1.1668,-3.6784" /><path
           id="path272"
           style="fill:#000000;fill-opacity:1;fill-rule:nonzero;stroke:none"
           d="m 514.1099,518.6885 v -6.5261 h -1.7798 v 6.4668 c 0,1.0284 -0.2176,1.7799 -0.6131,2.2941 -0.3955,0.5141 -0.9888,0.7712 -1.7799,0.7712 -0.969,0 -1.7205,-0.3164 -2.2742,-0.9294 -0.5538,-0.6131 -0.8306,-1.4437 -0.8306,-2.4919 v -6.1108 h -1.7799 V 522.98 h 1.7799 v -1.681 c 0.4153,0.6329 0.9097,1.1273 1.5029,1.4437 0.5736,0.3164 1.246,0.4944 1.9975,0.4944 1.2261,0 2.1754,-0.3955 2.8082,-1.1668 0.6328,-0.7713 0.969,-1.8985 0.969,-3.3818" /><path
           id="path274"
           style="fill:#000000;fill-opacity:1;fill-rule:nonzero;stroke:none"
           d="m 524.7694,521.3386 v 5.8538 h 1.7798 v -15.03 h -1.7798 v 1.6216 c -0.3758,-0.6526 -0.8504,-1.1272 -1.4239,-1.4239 -0.5735,-0.2966 -1.2459,-0.4548 -2.037,-0.4548 -1.3052,0 -2.3732,0.5142 -3.2038,1.5425 -0.8306,1.0284 -1.2261,2.4127 -1.2261,4.1135 0,1.7008 0.3955,3.0653 1.2261,4.1135 0.8306,1.0283 1.8986,1.5623 3.2038,1.5623 0.7911,0 1.4635,-0.1582 2.037,-0.4746 0.5735,-0.3165 1.0481,-0.7911 1.4239,-1.4239 m -6.0516,-3.7773 c 0,-1.3052 0.2571,-2.3336 0.7911,-3.0851 0.5339,-0.7515 1.2854,-1.1075 2.2347,-1.1075 0.9295,0 1.6612,0.356 2.2149,1.1075 0.534,0.7515 0.8109,1.7799 0.8109,3.0851 0,1.3052 -0.2769,2.3138 -0.8109,3.0653 -0.5537,0.7515 -1.2854,1.1273 -2.2149,1.1273 -0.9493,0 -1.7008,-0.3758 -2.2347,-1.1273 -0.534,-0.7515 -0.7911,-1.7601 -0.7911,-3.0653" /><path
           id="path276"
           style="fill:#000000;fill-opacity:1;fill-rule:nonzero;stroke:none"
           d="m 534.4004,521.7341 c -0.9492,0 -1.7007,-0.3758 -2.2545,-1.1273 -0.5537,-0.7515 -0.8306,-1.76 -0.8306,-3.0455 0,-1.3052 0.2571,-2.3138 0.8108,-3.0653 0.5538,-0.7515 1.3053,-1.1075 2.2743,-1.1075 0.9493,0 1.7008,0.356 2.2545,1.1075 0.5538,0.7515 0.8306,1.7601 0.8306,3.0653 0,1.2657 -0.2768,2.294 -0.8306,3.0455 -0.5537,0.7515 -1.3052,1.1273 -2.2545,1.1273 m 0,1.503 c 1.5426,0 2.7489,-0.5142 3.6389,-1.503 0.8701,-1.0086 1.325,-2.3929 1.325,-4.1728 0,-1.7799 -0.4549,-3.1642 -1.325,-4.153 -0.89,-1.0086 -2.0963,-1.503 -3.6389,-1.503 -1.5623,0 -2.7884,0.4944 -3.6586,1.503 -0.8702,0.9888 -1.3052,2.3731 -1.3052,4.153 0,1.7799 0.435,3.1642 1.3052,4.1728 0.8702,0.9888 2.0963,1.503 3.6586,1.503" /><path
           id="path278"
           style="fill:#000000;fill-opacity:1;fill-rule:nonzero;stroke:none"
           d="m 550.7356,520.9035 c 0.4351,0.791 0.9691,1.3646 1.5822,1.7601 0.613,0.3757 1.3447,0.5735 2.1951,0.5735 1.1075,0 1.9777,-0.3955 2.5907,-1.1866 0.6131,-0.791 0.9295,-1.9183 0.9295,-3.362 v -6.5261 h -1.7799 v 6.4668 c 0,1.0284 -0.1977,1.7997 -0.5537,2.3138 -0.3758,0.4944 -0.9295,0.7515 -1.681,0.7515 -0.9295,0 -1.6612,-0.3164 -2.1952,-0.9294 -0.5339,-0.6131 -0.791,-1.4437 -0.791,-2.4919 v -6.1108 h -1.7799 v 6.4668 c 0,1.0284 -0.1977,1.7997 -0.5537,2.3138 -0.3758,0.4944 -0.9493,0.7515 -1.7008,0.7515 -0.9097,0 -1.6414,-0.3164 -2.1754,-0.9294 -0.5339,-0.6131 -0.791,-1.4437 -0.791,-2.4919 v -6.1108 h -1.7799 V 522.98 h 1.7799 v -1.681 c 0.3955,0.6526 0.8899,1.147 1.4634,1.4635 0.5538,0.3164 1.2262,0.4746 2.0172,0.4746 0.7911,0 1.4437,-0.1978 1.9974,-0.5933 0.5538,-0.3955 0.9493,-0.9888 1.2261,-1.7403" /><g
           transform="matrix(1.648025,0,0,1.648025,-30.00047,231.7426)"
           id="g280"><path
             id="path282"
             style="fill:none;stroke:#ff7f0e;stroke-width:1.5;stroke-linecap:square;stroke-linejoin:round;stroke-miterlimit:10;stroke-dasharray:none;stroke-opacity:1"
             d="m 274.275,156.73 h 24" /></g><path
           id="path284"
           style="fill:#000000;fill-opacity:1;fill-rule:nonzero;stroke:none"
           d="m 479.3234,497.5328 h 9.1169 v -1.6414 h -7.159 v -4.2717 h 6.8623 v -1.6414 h -6.8623 v -5.221 h 7.337 v -1.6414 h -9.2949 v 14.4169" /><path
           id="path286"
           style="fill:#000000;fill-opacity:1;fill-rule:nonzero;stroke:none"
           d="m 498.8624,492.2921 v 5.8538 h 1.7799 v -15.03 h -1.7799 v 1.6217 c -0.3757,-0.6526 -0.8504,-1.1273 -1.4239,-1.4239 -0.5735,-0.2967 -1.2459,-0.4549 -2.037,-0.4549 -1.3052,0 -2.3731,0.5142 -3.2037,1.5426 -0.8306,1.0283 -1.2261,2.4127 -1.2261,4.1134 0,1.7008 0.3955,3.0654 1.2261,4.1135 0.8306,1.0284 1.8985,1.5623 3.2037,1.5623 0.7911,0 1.4635,-0.1582 2.037,-0.4746 0.5735,-0.3164 1.0482,-0.791 1.4239,-1.4239 m -6.0515,-3.7773 c 0,-1.3052 0.257,-2.3336 0.791,-3.0851 0.534,-0.7515 1.2855,-1.1074 2.2347,-1.1074 0.9295,0 1.6612,0.3559 2.215,1.1074 0.5339,0.7515 0.8108,1.7799 0.8108,3.0851 0,1.3053 -0.2769,2.3139 -0.8108,3.0654 -0.5538,0.7515 -1.2855,1.1272 -2.215,1.1272 -0.9492,0 -1.7007,-0.3757 -2.2347,-1.1272 -0.534,-0.7515 -0.791,-1.7601 -0.791,-3.0654" /><path
           id="path288"
           style="fill:#000000;fill-opacity:1;fill-rule:nonzero;stroke:none"
           d="m 511.4204,488.6533 c 0,1.2657 -0.2769,2.2743 -0.7911,2.9862 -0.534,0.7119 -1.2855,1.0679 -2.2347,1.0679 -0.9493,0 -1.7008,-0.356 -2.2347,-1.0679 -0.534,-0.7119 -0.7911,-1.7205 -0.7911,-2.9862 0,-1.2855 0.2571,-2.2743 0.7911,-2.9862 0.5339,-0.712 1.2854,-1.068 2.2347,-1.068 0.9492,0 1.7007,0.356 2.2347,1.068 0.5142,0.7119 0.7911,1.7007 0.7911,2.9862 m 1.7798,-4.1926 c 0,-1.8194 -0.4153,-3.184 -1.2261,-4.0937 -0.8306,-0.8899 -2.0765,-1.3448 -3.7575,-1.3448 -0.6328,0 -1.2064,0.0593 -1.7601,0.1385 -0.5537,0.0988 -1.1075,0.2373 -1.6217,0.435 v 1.7206 c 0.5142,-0.2769 1.0284,-0.4747 1.5426,-0.6131 0.5142,-0.1384 1.0284,-0.2175 1.5623,-0.2175 1.147,0 2.0172,0.3164 2.6105,0.9097 0.5735,0.613 0.8702,1.5228 0.8702,2.7489 v 0.8701 c -0.3758,-0.6328 -0.8504,-1.1074 -1.4239,-1.4239 -0.5736,-0.3164 -1.2459,-0.4746 -2.037,-0.4746 -1.3448,0 -2.4127,0.4944 -3.2235,1.503 -0.8109,1.0086 -1.2064,2.3534 -1.2064,4.0344 0,1.6612 0.3955,3.006 1.2064,4.0146 0.8108,1.0086 1.8787,1.5227 3.2235,1.5227 0.7911,0 1.4634,-0.1582 2.037,-0.4746 0.5735,-0.3164 1.0481,-0.791 1.4239,-1.4239 v 1.6415 h 1.7798 v -9.4729" /><path
           id="path290"
           style="fill:#000000;fill-opacity:1;fill-rule:nonzero;stroke:none"
           d="m 526.1141,488.9697 v -0.8702 h -8.1676 c 0.0791,-1.2261 0.4351,-2.1754 1.1075,-2.8082 0.6526,-0.6328 1.5623,-0.9493 2.7489,-0.9493 0.6724,0 1.3448,0.0792 1.9776,0.2374 0.6329,0.1582 1.2855,0.4153 1.9183,0.7712 v -1.6809 c -0.6328,-0.2769 -1.2854,-0.4945 -1.9578,-0.6131 -0.6724,-0.1187 -1.3646,-0.1978 -2.037,-0.1978 -1.7403,0 -3.1048,0.4944 -4.1134,1.4832 -1.0086,0.9889 -1.503,2.3534 -1.503,4.074 0,1.7601 0.4746,3.1642 1.4239,4.2123 0.9492,1.0284 2.2545,1.5623 3.8761,1.5623 1.4635,0 2.6105,-0.4746 3.4609,-1.4041 0.8306,-0.9492 1.2656,-2.2149 1.2656,-3.8168 m -1.7798,0.5142 c -0.0198,0.969 -0.2967,1.7403 -0.8108,2.3336 -0.534,0.5735 -1.246,0.8701 -2.1161,0.8701 -0.9888,0 -1.7799,-0.2966 -2.3732,-0.8503 -0.5933,-0.5538 -0.9492,-1.3448 -1.0283,-2.3534 h 6.3284" /><g
           transform="matrix(1.648025,0,0,1.648025,-30.00047,231.7426)"
           id="g292"><path
             id="path294"
             style="fill:none;stroke:#2ca02c;stroke-width:1.5;stroke-linecap:square;stroke-linejoin:round;stroke-miterlimit:10;stroke-dasharray:none;stroke-opacity:1"
             d="m 274.275,139.105 h 24" /></g><path
           id="path296"
           style="fill:#000000;fill-opacity:1;fill-rule:nonzero;stroke:none"
           d="m 479.1059,468.4864 h 1.9578 v -8.7609 c 0,-1.5426 0.2769,-2.6698 0.8306,-3.3422 0.5538,-0.6724 1.4635,-1.0086 2.7292,-1.0086 1.2459,0 2.1556,0.3362 2.7093,1.0086 0.5538,0.6724 0.8504,1.7996 0.8504,3.3422 v 8.7609 h 1.9579 v -8.9982 c 0,-1.8986 -0.4747,-3.3027 -1.4042,-4.2519 -0.9295,-0.9493 -2.294,-1.4239 -4.1134,-1.4239 -1.8195,0 -3.2038,0.4746 -4.1333,1.4239 -0.9295,0.9492 -1.3843,2.3533 -1.3843,4.2519 v 8.9982" /><path
           id="path298"
           style="fill:#000000;fill-opacity:1;fill-rule:nonzero;stroke:none"
           d="m 502.7188,460.5956 v -6.5261 h -1.7799 v 6.4668 c 0,1.0284 -0.2175,1.7799 -0.6131,2.2941 -0.3955,0.5142 -0.9888,0.7712 -1.7798,0.7712 -0.9691,0 -1.7206,-0.3164 -2.2743,-0.9294 -0.5537,-0.6131 -0.8306,-1.4437 -0.8306,-2.4919 v -6.1108 h -1.7799 v 10.8176 h 1.7799 v -1.681 c 0.4153,0.6329 0.9097,1.1273 1.503,1.4437 0.5735,0.3164 1.2459,0.4944 1.9974,0.4944 1.2261,0 2.1754,-0.3955 2.8082,-1.1668 0.6329,-0.7713 0.9691,-1.8985 0.9691,-3.3818" /><path
           id="path300"
           style="fill:#000000;fill-opacity:1;fill-rule:nonzero;stroke:none"
           d="m 514.0506,464.4718 v -1.6612 c -0.5142,0.2769 -1.0086,0.4746 -1.5228,0.6131 -0.5142,0.1384 -1.0086,0.2175 -1.5227,0.2175 -1.1471,0 -2.0568,-0.3758 -2.6896,-1.1075 -0.6329,-0.7317 -0.9493,-1.7601 -0.9493,-3.0653 0,-1.325 0.3164,-2.3534 0.9493,-3.0851 0.6328,-0.7317 1.5425,-1.0877 2.6896,-1.0877 0.5141,0 1.0085,0.0593 1.5227,0.1978 0.5142,0.1384 1.0086,0.3559 1.5228,0.6328 v -1.6414 c -0.5142,-0.2373 -1.0284,-0.4153 -1.5425,-0.5142 -0.534,-0.0989 -1.1075,-0.1582 -1.7008,-0.1582 -1.6217,0 -2.9269,0.4944 -3.8762,1.5228 -0.969,1.0085 -1.4436,2.3929 -1.4436,4.1332 0,1.7601 0.4746,3.1444 1.4436,4.153 0.9691,1.0086 2.2941,1.5228 3.9948,1.5228 0.5538,0 1.0877,-0.0593 1.6019,-0.178 0.5142,-0.1186 1.0284,-0.2769 1.5228,-0.4944" /><path
           id="path302"
           style="fill:#000000;fill-opacity:1;fill-rule:nonzero;stroke:none"
           d="m 526.391,459.9233 v -0.8702 h -8.1676 c 0.0791,-1.2261 0.4351,-2.1754 1.1075,-2.8082 0.6526,-0.6329 1.5623,-0.9493 2.7489,-0.9493 0.6724,0 1.3448,0.0791 1.9776,0.2373 0.6329,0.1582 1.2855,0.4153 1.9183,0.7713 v -1.681 c -0.6328,-0.2769 -1.2854,-0.4944 -1.9578,-0.6131 -0.6724,-0.1186 -1.3646,-0.1977 -2.037,-0.1977 -1.7403,0 -3.1049,0.4944 -4.1135,1.4832 -1.0086,0.9888 -1.503,2.3534 -1.503,4.0739 0,1.7601 0.4747,3.1642 1.4239,4.2124 0.9493,1.0283 2.2545,1.5623 3.8762,1.5623 1.4634,0 2.6105,-0.4746 3.4608,-1.4041 0.8306,-0.9493 1.2657,-2.215 1.2657,-3.8168 m -1.7799,0.5141 c -0.0197,0.9691 -0.2966,1.7404 -0.8108,2.3336 -0.5339,0.5736 -1.2459,0.8702 -2.116,0.8702 -0.9889,0 -1.7799,-0.2966 -2.3732,-0.8504 -0.5933,-0.5537 -0.9493,-1.3448 -1.0284,-2.3534 h 6.3284" /><path
           id="path304"
           style="fill:#000000;fill-opacity:1;fill-rule:nonzero;stroke:none"
           d="m 535.5672,463.2259 c -0.1977,0.1187 -0.4153,0.1978 -0.6526,0.2571 -0.2373,0.0395 -0.4944,0.0791 -0.7713,0.0791 -1.0086,0 -1.7798,-0.3362 -2.3138,-0.9888 -0.5537,-0.6526 -0.8108,-1.5821 -0.8108,-2.8083 v -5.6955 h -1.7799 v 10.8176 h 1.7799 v -1.681 c 0.3559,0.6526 0.8504,1.147 1.4436,1.4635 0.5933,0.3164 1.3251,0.4746 2.1952,0.4746 0.1187,0 0.2571,-0.0198 0.4153,-0.0198 0.1384,-0.0198 0.2967,-0.0395 0.4944,-0.0791 v -1.8194" /><path
           id="path306"
           style="fill:#000000;fill-opacity:1;fill-rule:nonzero;stroke:none"
           d="m 539.1863,467.9524 v -3.0653 h 3.6586 v -1.3843 h -3.6586 v -5.8736 c 0,-0.8899 0.1186,-1.4634 0.356,-1.7008 0.2373,-0.2571 0.7317,-0.3757 1.4832,-0.3757 h 1.8194 v -1.4832 h -1.8194 c -1.3844,0 -2.3336,0.2571 -2.8478,0.7712 -0.5142,0.5142 -0.7713,1.4437 -0.7713,2.7885 v 5.8736 h -1.3052 v 1.3843 h 1.3052 v 3.0653 h 1.7799" /><path
           id="path308"
           style="fill:#000000;fill-opacity:1;fill-rule:nonzero;stroke:none"
           d="m 550.1028,459.508 c -1.4437,0 -2.4325,-0.178 -2.9862,-0.4945 -0.5538,-0.3362 -0.8306,-0.8899 -0.8306,-1.6809 0,-0.6329 0.1977,-1.1471 0.613,-1.503 0.4153,-0.3758 0.9889,-0.5538 1.7008,-0.5538 0.9888,0 1.7799,0.3362 2.3732,1.0482 0.5933,0.6921 0.8899,1.6216 0.8899,2.7884 v 0.3956 h -1.7601 m 3.54,0.7317 v -6.1702 h -1.7799 v 1.6414 c -0.4153,-0.6724 -0.9295,-1.147 -1.5228,-1.4437 -0.5933,-0.2966 -1.3448,-0.4548 -2.2149,-0.4548 -1.1075,0 -1.9974,0.2966 -2.6501,0.9097 -0.6526,0.6131 -0.969,1.4437 -0.969,2.4918 0,1.2064 0.3955,2.1161 1.2261,2.7489 0.8109,0.6131 2.0172,0.9295 3.6389,0.9295 h 2.4918 v 0.178 c 0,0.8108 -0.2769,1.4436 -0.8108,1.8985 -0.534,0.4351 -1.2855,0.6724 -2.2545,0.6724 -0.6329,0 -1.2262,-0.0791 -1.8195,-0.2373 -0.5932,-0.1582 -1.147,-0.3758 -1.6809,-0.6526 v 1.6414 c 0.6328,0.2373 1.2656,0.4351 1.8787,0.5537 0.6131,0.1187 1.2064,0.1978 1.7997,0.1978 1.5623,0 2.7291,-0.4153 3.5004,-1.2261 0.7712,-0.8109 1.1668,-2.037 1.1668,-3.6784" /><path
           id="path310"
           style="fill:#000000;fill-opacity:1;fill-rule:nonzero;stroke:none"
           d="m 557.3014,464.8871 h 1.7798 v -10.8176 h -1.7798 v 10.8176 m 0,4.2124 h 1.7798 v -2.2545 h -1.7798 v 2.2545" /><path
           id="path312"
           style="fill:#000000;fill-opacity:1;fill-rule:nonzero;stroke:none"
           d="m 571.7974,460.5956 v -6.5261 h -1.7799 v 6.4668 c 0,1.0284 -0.2175,1.7799 -0.613,2.2941 -0.3955,0.5142 -0.9888,0.7712 -1.7799,0.7712 -0.969,0 -1.7205,-0.3164 -2.2743,-0.9294 -0.5537,-0.6131 -0.8306,-1.4437 -0.8306,-2.4919 v -6.1108 h -1.7798 v 10.8176 h 1.7798 v -1.681 c 0.4153,0.6329 0.9097,1.1273 1.503,1.4437 0.5735,0.3164 1.2459,0.4944 1.9974,0.4944 1.2262,0 2.1754,-0.3955 2.8083,-1.1668 0.6328,-0.7713 0.969,-1.8985 0.969,-3.3818" /><path
           id="path314"
           style="fill:#000000;fill-opacity:1;fill-rule:nonzero;stroke:none"
           d="m 577.0975,467.9524 v -3.0653 h 3.6586 v -1.3843 h -3.6586 v -5.8736 c 0,-0.8899 0.1186,-1.4634 0.3559,-1.7008 0.2373,-0.2571 0.7318,-0.3757 1.4833,-0.3757 h 1.8194 v -1.4832 h -1.8194 c -1.3844,0 -2.3336,0.2571 -2.8478,0.7712 -0.5142,0.5142 -0.7713,1.4437 -0.7713,2.7885 v 5.8736 h -1.3052 v 1.3843 h 1.3052 v 3.0653 h 1.7799" /><path
           id="path316"
           style="fill:#000000;fill-opacity:1;fill-rule:nonzero;stroke:none"
           d="m 587.5987,453.0807 c -0.5142,-1.2657 -1.0086,-2.1161 -1.4832,-2.5116 -0.4747,-0.3956 -1.1075,-0.5933 -1.8986,-0.5933 h -1.4239 v 1.4832 h 1.0482 c 0.4746,0 0.8504,0.1187 1.1272,0.356 0.2769,0.2373 0.5735,0.7712 0.9097,1.6414 l 0.3165,0.7911 -4.3706,10.6396 h 1.8787 l 3.3818,-8.4643 3.3817,8.4643 h 1.8788 l -4.7463,-11.8064" /><g
           transform="matrix(1.648025,0,0,1.648025,-30.00047,231.7426)"
           id="g318"><path
             id="path320"
             style="fill:none;stroke:#d62728;stroke-width:1.5;stroke-linecap:square;stroke-linejoin:round;stroke-miterlimit:10;stroke-dasharray:none;stroke-opacity:1"
             d="m 274.275,121.48 h 24" /></g><path
           id="path322"
           style="fill:#000000;fill-opacity:1;fill-rule:nonzero;stroke:none"
           d="m 485.1772,438.1149 c -1.4239,0 -2.5511,-0.5339 -3.3818,-1.5821 -0.8306,-1.0679 -1.2459,-2.4918 -1.2459,-4.3112 0,-1.8194 0.4153,-3.2631 1.2459,-4.3112 0.8307,-1.068 1.9579,-1.5821 3.3818,-1.5821 1.4041,0 2.5314,0.5141 3.362,1.5821 0.8306,1.0481 1.2459,2.4918 1.2459,4.3112 0,1.8194 -0.4153,3.2433 -1.2459,4.3112 -0.8306,1.0482 -1.9579,1.5821 -3.362,1.5821 m 0,1.5821 c 2.0172,0 3.6191,-0.6921 4.8452,-2.0369 1.2063,-1.3448 1.8194,-3.1642 1.8194,-5.4385 0,-2.2941 -0.6131,-4.0937 -1.8194,-5.4385 -1.2261,-1.3448 -2.828,-2.0172 -4.8452,-2.0172 -2.037,0 -3.6586,0.6724 -4.865,2.0172 -1.2261,1.3448 -1.8194,3.1444 -1.8194,5.4385 0,2.2743 0.5933,4.0937 1.8194,5.4385 1.2064,1.3448 2.828,2.0369 4.865,2.0369" /><path
           id="path324"
           style="fill:#000000;fill-opacity:1;fill-rule:nonzero;stroke:none"
           d="m 501.0773,434.1794 c -0.1977,0.1187 -0.4153,0.1978 -0.6526,0.2571 -0.2373,0.0396 -0.4944,0.0791 -0.7712,0.0791 -1.0086,0 -1.7799,-0.3362 -2.3139,-0.9888 -0.5537,-0.6526 -0.8108,-1.5821 -0.8108,-2.8082 v -5.6956 h -1.7799 v 10.8177 h 1.7799 v -1.681 c 0.356,0.6526 0.8504,1.147 1.4437,1.4634 0.5933,0.3164 1.325,0.4747 2.1951,0.4747 0.1187,0 0.2571,-0.0198 0.4153,-0.0198 0.1385,-0.0198 0.2967,-0.0396 0.4944,-0.0791 v -1.8195" /><path
           id="path326"
           style="fill:#000000;fill-opacity:1;fill-rule:nonzero;stroke:none"
           d="m 507.8606,430.4615 c -1.4437,0 -2.4325,-0.178 -2.9862,-0.4944 -0.5537,-0.3362 -0.8306,-0.8899 -0.8306,-1.681 0,-0.6328 0.1978,-1.147 0.6131,-1.503 0.4153,-0.3757 0.9888,-0.5537 1.7007,-0.5537 0.9888,0 1.7799,0.3362 2.3732,1.0481 0.5933,0.6922 0.8899,1.6217 0.8899,2.7885 v 0.3955 h -1.7601 m 3.54,0.7317 v -6.1702 h -1.7799 v 1.6415 c -0.4153,-0.6724 -0.9295,-1.1471 -1.5228,-1.4437 -0.5933,-0.2967 -1.3448,-0.4549 -2.2149,-0.4549 -1.1075,0 -1.9974,0.2967 -2.65,0.9097 -0.6527,0.6131 -0.9691,1.4437 -0.9691,2.4919 0,1.2063 0.3956,2.116 1.2262,2.7489 0.8108,0.613 2.0171,0.9294 3.6388,0.9294 h 2.4918 v 0.178 c 0,0.8109 -0.2769,1.4437 -0.8108,1.8986 -0.534,0.435 -1.2855,0.6724 -2.2545,0.6724 -0.6329,0 -1.2261,-0.0792 -1.8194,-0.2374 -0.5933,-0.1582 -1.1471,-0.3757 -1.681,-0.6526 v 1.6415 c 0.6328,0.2373 1.2657,0.435 1.8787,0.5537 0.6131,0.1186 1.2064,0.1978 1.7997,0.1978 1.5623,0 2.7291,-0.4154 3.5004,-1.2262 0.7713,-0.8108 1.1668,-2.0369 1.1668,-3.6784" /><path
           id="path328"
           style="fill:#000000;fill-opacity:1;fill-rule:nonzero;stroke:none"
           d="m 522.8511,435.4254 v -1.6613 c -0.5142,0.2769 -1.0086,0.4747 -1.5228,0.6131 -0.5142,0.1384 -1.0086,0.2176 -1.5228,0.2176 -1.147,0 -2.0567,-0.3758 -2.6896,-1.1075 -0.6328,-0.7317 -0.9492,-1.7601 -0.9492,-3.0653 0,-1.3251 0.3164,-2.3534 0.9492,-3.0852 0.6329,-0.7317 1.5426,-1.0876 2.6896,-1.0876 0.5142,0 1.0086,0.0593 1.5228,0.1977 0.5142,0.1384 1.0086,0.356 1.5228,0.6329 v -1.6415 c -0.5142,-0.2373 -1.0284,-0.4153 -1.5426,-0.5142 -0.534,-0.0988 -1.1075,-0.1582 -1.7008,-0.1582 -1.6216,0 -2.9268,0.4944 -3.8761,1.5228 -0.9691,1.0086 -1.4437,2.3929 -1.4437,4.1333 0,1.76 0.4746,3.1444 1.4437,4.153 0.969,1.0086 2.294,1.5228 3.9948,1.5228 0.5537,0 1.0877,-0.0594 1.6019,-0.178 0.5142,-0.1187 1.0283,-0.2769 1.5228,-0.4944" /><path
           id="path330"
           style="fill:#000000;fill-opacity:1;fill-rule:nonzero;stroke:none"
           d="m 525.9362,440.053 h 1.7798 v -15.03 h -1.7798 v 15.03" /><path
           id="path332"
           style="fill:#000000;fill-opacity:1;fill-rule:nonzero;stroke:none"
           d="m 540.6893,430.8768 v -0.8702 h -8.1676 c 0.0791,-1.2261 0.435,-2.1753 1.1074,-2.8082 0.6527,-0.6328 1.5624,-0.9492 2.7489,-0.9492 0.6724,0 1.3448,0.0791 1.9777,0.2373 0.6328,0.1582 1.2854,0.4153 1.9183,0.7712 v -1.6809 c -0.6329,-0.2769 -1.2855,-0.4945 -1.9579,-0.6131 -0.6724,-0.1187 -1.3645,-0.1978 -2.0369,-0.1978 -1.7403,0 -3.1049,0.4944 -4.1135,1.4833 -1.0086,0.9888 -1.503,2.3533 -1.503,4.0739 0,1.7601 0.4746,3.1642 1.4239,4.2123 0.9493,1.0284 2.2545,1.5624 3.8761,1.5624 1.4635,0 2.6105,-0.4747 3.4609,-1.4042 0.8306,-0.9492 1.2657,-2.2149 1.2657,-3.8168 m -1.7799,0.5142 c -0.0198,0.969 -0.2966,1.7403 -0.8108,2.3336 -0.534,0.5735 -1.2459,0.8702 -2.1161,0.8702 -0.9888,0 -1.7798,-0.2967 -2.3731,-0.8504 -0.5933,-0.5538 -0.9493,-1.3448 -1.0284,-2.3534 h 6.3284" /></g></g></g></svg>